<?xml version="1.0" encoding="utf-8"?>
<!-- Generator: Adobe Illustrator 23.0.1, SVG Export Plug-In . SVG Version: 6.00 Build 0)  -->
<svg version="1.1" id="レイヤー_1" xmlns="http://www.w3.org/2000/svg" xmlns:xlink="http://www.w3.org/1999/xlink" x="0px"
	 y="0px" viewBox="0 0 100 100" style="enable-background:new 0 0 100 100;" xml:space="preserve">
<style type="text/css">
	.st0{fill:#C4E1D6;}
</style>
<g>
	<g>
		<g>
			<path class="st0" d="M20.92,53.16c0.32-0.08,0.34-0.09,0.67-0.09c0.34,0,0.51-0.1,0.7-0.18c0.28-0.12,0.25-0.19,0.31-0.46
				c0.05-0.23,0.51-0.44,0.5-0.74c-0.01-0.25-0.48-0.51-0.48-0.79c0-0.28,0.01-0.56,0.02-0.81c0.01-0.3,0.36-0.58,0.31-0.81
				c-0.06-0.26-0.25-0.54-0.54-0.66c-0.19-0.08-0.48-0.3-0.82-0.3c-0.19,0-0.08,0.18-0.24,0.07c0.18-0.13,0.34,0.06,0.54-0.1
				c0.18-0.14,0.39-0.28,0.57-0.44c0.17-0.15,0.1-0.58,0.28-0.75c0.17-0.16,0.51-0.15,0.69-0.32c0.16-0.17,0.19-0.48,0.36-0.65
				c0.16-0.17,0.62-0.07,0.79-0.25c0.16-0.17,0.22-0.45,0.38-0.63c0.16-0.18,0.32-0.36,0.48-0.54c0.15-0.18,0.17-0.48,0.33-0.67
				c0.15-0.18,0.48-0.22,0.63-0.41c0.15-0.18,0.12-0.51,0.28-0.7c0.15-0.18,0.33-0.34,0.48-0.53c0.15-0.19,0.16-0.48,0.31-0.67
				c0.15-0.19,0.62-0.13,0.77-0.32c0.14-0.19-0.04-0.63,0.1-0.82c0.14-0.19,0.57-0.18,0.71-0.37c0.14-0.19,0.11-0.51,0.25-0.71
				c0.14-0.2,0.06-0.54,0.19-0.74c0.14-0.2,0.65-0.13,0.79-0.33c0.14-0.2,0.3-0.38,0.43-0.58c0.13-0.2,0.29-0.39,0.42-0.59
				c0.13-0.2-0.04-0.6,0.09-0.8c0.13-0.2,0.28-0.39,0.4-0.6c0.13-0.21,0.14-0.48,0.26-0.68c0.12-0.21,0.65-0.18,0.77-0.38
				c0.12-0.21-0.01-0.57,0.1-0.78c0.12-0.21,0.47-0.3,0.59-0.51c0.12-0.22-0.09-0.6,0.02-0.81c0.11-0.22,0.44-0.32,0.54-0.54
				c0.11-0.22-0.1-0.59-0.01-0.8c0.1-0.22,0.24-0.41,0.34-0.63c0.1-0.23,0.22-0.43,0.3-0.65c0.09-0.23,0.1-0.47,0.18-0.69
				c0.08-0.23,0.58-0.32,0.64-0.54c0.07-0.24,0.25-0.46,0.3-0.68c0.06-0.24-0.41-0.58-0.38-0.8c0.03-0.25,0.26-0.4,0.26-0.63
				c-0.34-0.11-0.34-0.23-0.69-0.23c-0.35,0-0.35-0.04-0.71-0.04c-0.35,0-0.35,0.17-0.71,0.17c-0.35,0-0.35-0.06-0.71-0.06
				c-0.35,0-0.35,0.38-0.71,0.38c-0.36,0-0.36-0.11-0.71-0.11c-0.35,0-0.35-0.03-0.71-0.03c-0.35,0-0.35,0.14-0.71,0.14
				c-0.35,0-0.35-0.17-0.71-0.17c-0.35,0-0.35-0.03-0.7-0.03c-0.35,0-0.35,0.12-0.7,0.12c-0.35,0-0.35-0.03-0.71-0.03
				c-0.35,0-0.35-0.38-0.71-0.38c-0.36,0-0.36,0.3-0.71,0.3c-0.35,0-0.35,0.16-0.71,0.16c-0.35,0-0.35-0.54-0.71-0.54
				c-0.35,0-0.35,0.52-0.71,0.52c-0.36,0-0.36,0-0.71,0c-0.36,0-0.36-0.23-0.71-0.23c-0.36,0-0.36-0.23-0.71-0.23
				c-0.36,0-0.36,0.03-0.71,0.03c-0.36,0-0.36,0.17-0.71,0.17c-0.36,0-0.36-0.16-0.71-0.16c-0.36,0-0.36,0.34-0.71,0.34
				c-0.36,0-0.36-0.19-0.71-0.19c-0.36,0-0.36,0.17-0.72,0.17c-0.36,0-0.36-0.33-0.72-0.33s-0.5-0.13-0.75,0.13
				c-0.26,0.26-0.22,0.4-0.22,0.76c0,0.36,0.47,0.36,0.47,0.73c0,0.36-0.2,0.36-0.2,0.73c0,0.36-0.12,0.36-0.12,0.73
				c0,0.36-0.2,0.36-0.2,0.73c0,0.36,0.42,0.36,0.42,0.73c0,0.37,0.14,0.37,0.14,0.73c0,0.37-0.45,0.37-0.45,0.73
				c0,0.36,0.26,0.36,0.26,0.73c0,0.36,0.11,0.36,0.11,0.73c0,0.36,0.05,0.36,0.05,0.73c0,0.36,0.03,0.36,0.03,0.72
				c0,0.36-0.01,0.36-0.01,0.73c0,0.36-0.06,0.36-0.06,0.73c0,0.36-0.47,0.36-0.47,0.73c0,0.37,0.39,0.37,0.39,0.73
				c0,0.36-0.33,0.36-0.33,0.73c0,0.36-0.02,0.36-0.02,0.73c0,0.36,0.39,0.36,0.39,0.73c0,0.37-0.41,0.37-0.41,0.73
				c0,0.37,0.37,0.37,0.37,0.73c0,0.37-0.11,0.37-0.11,0.73c0,0.37,0.03,0.37,0.03,0.73c0,0.37-0.08,0.37-0.08,0.73
				c0,0.37-0.24,0.37-0.24,0.73c0,0.37,0.18,0.37,0.18,0.73c0,0.37-0.01,0.37-0.01,0.73c0,0.37,0.36,0.37,0.36,0.74
				c0,0.37-0.48,0.37-0.48,0.74s0.43,0.37,0.43,0.74c0,0.3-0.14,0.3-0.14,0.61c0,0.36,0,0.36,0,0.73c0,0.36,0.01,0.36,0.01,0.73
				c0,0.36-0.17,0.36-0.17,0.73c0,0.3,0.3,0.3,0.3,0.6c0,0.3-0.34,0.3-0.34,0.61c0,0.3,0.08,0.3,0.08,0.61
				c0,0.36-0.13,0.36-0.13,0.73c0,0.36,0.31,0.36,0.31,0.73c0,0.36,0.09,0.36,0.09,0.73c0,0.37,0.07,0.37,0.07,0.73
				c0,0.37-0.3,0.37-0.3,0.73c0,0.37-0.11,0.37-0.11,0.73c0,0.36,0.11,0.36,0.11,0.73c0,0.37,0.27,0.37,0.27,0.73
				c0,0.36-0.53,0.36-0.53,0.72c0,0.36,0.36,0.36,0.36,0.73c0,0.36,0.2,0.36,0.2,0.73c0,0.37-0.57,0.37-0.57,0.73
				c0,0.37,0.29,0.37,0.29,0.73c0,0.37-0.25,0.37-0.25,0.73c0,0.36,0.39,0.36,0.39,0.73c0,0.37-0.04,0.37-0.04,0.73
				c0,0.37,0.17,0.37,0.17,0.73c0,0.37-0.54,0.37-0.54,0.73c0,0.37,0.56,0.37,0.56,0.73c0,0.37-0.18,0.37-0.18,0.73
				c0,0.37,0.17,0.37,0.17,0.73c0,0.37-0.11,0.37-0.11,0.73c0,0.37-0.42,0.37-0.42,0.73c0,0.37-0.05,0.37-0.05,0.74
				c0,0.37,0.26,0.37,0.26,0.74c0,0.37-0.02,0.37-0.02,0.74c0,0.37-0.41,0.67-0.15,0.93c0.25,0.26,0.56-0.01,0.91-0.01
				c0.35,0,0.35-0.07,0.71-0.07c0.35,0,0.35,0.09,0.71,0.09c0.35,0,0.35-0.49,0.71-0.49c0.35,0,0.35,0.29,0.71,0.29
				c0.35,0,0.35,0.16,0.71,0.16c0.35,0,0.35-0.41,0.71-0.41c0.36,0,0.36,0.17,0.71,0.17c0.35,0,0.35,0.17,0.71,0.17
				c0.35,0,0.35-0.1,0.71-0.1c0.35,0,0.35,0.25,0.71,0.25c0.36,0,0.36-0.27,0.71-0.27c0.36,0,0.36-0.21,0.71-0.21
				c0.36,0,0.36,0.29,0.71,0.29s0.32-0.09,0.66-0.2c0-0.24,0.35-0.32,0.35-0.56c0-0.23-0.23-0.47-0.23-0.7
				c0-0.23-0.17-0.47-0.18-0.7c0-0.23,0.35-0.47,0.34-0.71c0-0.23-0.32-0.46-0.33-0.7c-0.01-0.23,0.14-0.48,0.13-0.71
				c-0.01-0.23,0.14-0.48,0.13-0.72c-0.01-0.23-0.17-0.46-0.19-0.7c-0.02-0.23-0.12-0.46-0.14-0.7c-0.02-0.23,0.09-0.48,0.07-0.72
				c-0.02-0.23-0.24-0.45-0.27-0.68c-0.03-0.23,0.2-0.5,0.17-0.74c-0.03-0.23-0.47-0.41-0.51-0.64c-0.04-0.23,0.2-0.51,0.16-0.75
				c-0.04-0.23-0.14-0.46-0.19-0.69c-0.05-0.23-0.09-0.46-0.15-0.7c-0.05-0.23-0.38-0.39-0.44-0.62c-0.06-0.23,0.05-0.5-0.02-0.73
				c-0.07-0.23-0.11-0.46-0.19-0.68c-0.07-0.22-0.14-0.45-0.22-0.67c-0.08-0.22,0.05-0.53-0.04-0.75c-0.09-0.22-0.31-0.39-0.41-0.6
				c-0.1-0.21-0.5-0.28-0.61-0.49c-0.11-0.21,0.23-0.66,0.11-0.86c-0.12-0.21-0.5-0.26-0.63-0.46c-0.12-0.2-0.3-0.36-0.44-0.56
				c-0.13-0.19-0.25-0.4-0.39-0.59c-0.14-0.19-0.11-0.52-0.27-0.7c-0.13-0.16-0.3-0.28-0.43-0.42
				C21.29,53.4,21.06,53.29,20.92,53.16z"/>
			<path class="st0" d="M20.92,53.16c0.32-0.08,0.34-0.09,0.67-0.09c0.34,0,0.51-0.1,0.7-0.18c0.28-0.12,0.25-0.19,0.31-0.46
				c0.05-0.23,0.51-0.44,0.5-0.74c-0.01-0.25-0.48-0.51-0.48-0.79c0-0.28,0.01-0.56,0.02-0.81c0.01-0.3,0.36-0.58,0.31-0.81
				c-0.06-0.26-0.25-0.54-0.54-0.66c-0.19-0.08-0.48-0.3-0.82-0.3c-0.19,0-0.08,0.18-0.24,0.07c0.18-0.13,0.34,0.06,0.54-0.1
				c0.18-0.14,0.39-0.28,0.57-0.44c0.17-0.15,0.1-0.58,0.28-0.75c0.17-0.16,0.51-0.15,0.69-0.32c0.16-0.17,0.19-0.48,0.36-0.65
				c0.16-0.17,0.62-0.07,0.79-0.25c0.16-0.17,0.22-0.45,0.38-0.63c0.16-0.18,0.32-0.36,0.48-0.54c0.15-0.18,0.17-0.48,0.33-0.67
				c0.15-0.18,0.48-0.22,0.63-0.41c0.15-0.18,0.12-0.51,0.28-0.7c0.15-0.18,0.33-0.34,0.48-0.53c0.15-0.19,0.16-0.48,0.31-0.67
				c0.15-0.19,0.62-0.13,0.77-0.32c0.14-0.19-0.04-0.63,0.1-0.82c0.14-0.19,0.57-0.18,0.71-0.37c0.14-0.19,0.11-0.51,0.25-0.71
				c0.14-0.2,0.06-0.54,0.19-0.74c0.14-0.2,0.65-0.13,0.79-0.33c0.14-0.2,0.3-0.38,0.43-0.58c0.13-0.2,0.29-0.39,0.42-0.59
				c0.13-0.2-0.04-0.6,0.09-0.8c0.13-0.2,0.28-0.39,0.4-0.6c0.13-0.21,0.14-0.48,0.26-0.68c0.12-0.21,0.65-0.18,0.77-0.38
				c0.12-0.21-0.01-0.57,0.1-0.78c0.12-0.21,0.47-0.3,0.59-0.51c0.12-0.22-0.09-0.6,0.02-0.81c0.11-0.22,0.44-0.32,0.54-0.54
				c0.11-0.22-0.1-0.59-0.01-0.8c0.1-0.22,0.24-0.41,0.34-0.63c0.1-0.23,0.22-0.43,0.3-0.65c0.09-0.23,0.1-0.47,0.18-0.69
				c0.08-0.23,0.58-0.32,0.64-0.54c0.07-0.24,0.25-0.46,0.3-0.68c0.06-0.24-0.41-0.58-0.38-0.8c0.03-0.25,0.26-0.4,0.26-0.63
				c-0.34-0.11-0.34-0.23-0.69-0.23c-0.35,0-0.35-0.04-0.71-0.04c-0.35,0-0.35,0.17-0.71,0.17c-0.35,0-0.35-0.06-0.71-0.06
				c-0.35,0-0.35,0.38-0.71,0.38c-0.36,0-0.36-0.11-0.71-0.11c-0.35,0-0.35-0.03-0.71-0.03c-0.35,0-0.35,0.14-0.71,0.14
				c-0.35,0-0.35-0.17-0.71-0.17c-0.35,0-0.35-0.03-0.7-0.03c-0.35,0-0.35,0.12-0.7,0.12c-0.35,0-0.35-0.03-0.71-0.03
				c-0.35,0-0.35-0.38-0.71-0.38c-0.36,0-0.36,0.3-0.71,0.3c-0.35,0-0.35,0.16-0.71,0.16c-0.35,0-0.35-0.54-0.71-0.54
				c-0.35,0-0.35,0.52-0.71,0.52c-0.36,0-0.36,0-0.71,0c-0.36,0-0.36-0.23-0.71-0.23c-0.36,0-0.36-0.23-0.71-0.23
				c-0.36,0-0.36,0.03-0.71,0.03c-0.36,0-0.36,0.17-0.71,0.17c-0.36,0-0.36-0.16-0.71-0.16c-0.36,0-0.36,0.34-0.71,0.34
				c-0.36,0-0.36-0.19-0.71-0.19c-0.36,0-0.36,0.17-0.72,0.17c-0.36,0-0.36-0.33-0.72-0.33s-0.5-0.13-0.75,0.13
				c-0.26,0.26-0.22,0.4-0.22,0.76c0,0.36,0.47,0.36,0.47,0.73c0,0.36-0.2,0.36-0.2,0.73c0,0.36-0.12,0.36-0.12,0.73
				c0,0.36-0.2,0.36-0.2,0.73c0,0.36,0.42,0.36,0.42,0.73c0,0.37,0.14,0.37,0.14,0.73c0,0.37-0.45,0.37-0.45,0.73
				c0,0.36,0.26,0.36,0.26,0.73c0,0.36,0.11,0.36,0.11,0.73c0,0.36,0.05,0.36,0.05,0.73c0,0.36,0.03,0.36,0.03,0.72
				c0,0.36-0.01,0.36-0.01,0.73c0,0.36-0.06,0.36-0.06,0.73c0,0.36-0.47,0.36-0.47,0.73c0,0.37,0.39,0.37,0.39,0.73
				c0,0.36-0.33,0.36-0.33,0.73c0,0.36-0.02,0.36-0.02,0.73c0,0.36,0.39,0.36,0.39,0.73c0,0.37-0.41,0.37-0.41,0.73
				c0,0.37,0.37,0.37,0.37,0.73c0,0.37-0.11,0.37-0.11,0.73c0,0.37,0.03,0.37,0.03,0.73c0,0.37-0.08,0.37-0.08,0.73
				c0,0.37-0.24,0.37-0.24,0.73c0,0.37,0.18,0.37,0.18,0.73c0,0.37-0.01,0.37-0.01,0.73c0,0.37,0.36,0.37,0.36,0.74
				c0,0.37-0.48,0.37-0.48,0.74s0.43,0.37,0.43,0.74c0,0.3-0.14,0.3-0.14,0.61c0,0.36,0,0.36,0,0.73c0,0.36,0.01,0.36,0.01,0.73
				c0,0.36-0.17,0.36-0.17,0.73c0,0.3,0.3,0.3,0.3,0.6c0,0.3-0.34,0.3-0.34,0.61c0,0.3,0.08,0.3,0.08,0.61
				c0,0.36-0.13,0.36-0.13,0.73c0,0.36,0.31,0.36,0.31,0.73c0,0.36,0.09,0.36,0.09,0.73c0,0.37,0.07,0.37,0.07,0.73
				c0,0.37-0.3,0.37-0.3,0.73c0,0.37-0.11,0.37-0.11,0.73c0,0.36,0.11,0.36,0.11,0.73c0,0.37,0.27,0.37,0.27,0.73
				c0,0.36-0.53,0.36-0.53,0.72c0,0.36,0.36,0.36,0.36,0.73c0,0.36,0.2,0.36,0.2,0.73c0,0.37-0.57,0.37-0.57,0.73
				c0,0.37,0.29,0.37,0.29,0.73c0,0.37-0.25,0.37-0.25,0.73c0,0.36,0.39,0.36,0.39,0.73c0,0.37-0.04,0.37-0.04,0.73
				c0,0.37,0.17,0.37,0.17,0.73c0,0.37-0.54,0.37-0.54,0.73c0,0.37,0.56,0.37,0.56,0.73c0,0.37-0.18,0.37-0.18,0.73
				c0,0.37,0.17,0.37,0.17,0.73c0,0.37-0.11,0.37-0.11,0.73c0,0.37-0.42,0.37-0.42,0.73c0,0.37-0.05,0.37-0.05,0.74
				c0,0.37,0.26,0.37,0.26,0.74c0,0.37-0.02,0.37-0.02,0.74c0,0.37-0.41,0.67-0.15,0.93c0.25,0.26,0.56-0.01,0.91-0.01
				c0.35,0,0.35-0.07,0.71-0.07c0.35,0,0.35,0.09,0.71,0.09c0.35,0,0.35-0.49,0.71-0.49c0.35,0,0.35,0.29,0.71,0.29
				c0.35,0,0.35,0.16,0.71,0.16c0.35,0,0.35-0.41,0.71-0.41c0.36,0,0.36,0.17,0.71,0.17c0.35,0,0.35,0.17,0.71,0.17
				c0.35,0,0.35-0.1,0.71-0.1c0.35,0,0.35,0.25,0.71,0.25c0.36,0,0.36-0.27,0.71-0.27c0.36,0,0.36-0.21,0.71-0.21
				c0.36,0,0.36,0.29,0.71,0.29s0.32-0.09,0.66-0.2c0-0.24,0.35-0.32,0.35-0.56c0-0.23-0.23-0.47-0.23-0.7
				c0-0.23-0.17-0.47-0.18-0.7c0-0.23,0.35-0.47,0.34-0.71c0-0.23-0.32-0.46-0.33-0.7c-0.01-0.23,0.14-0.48,0.13-0.71
				c-0.01-0.23,0.14-0.48,0.13-0.72c-0.01-0.23-0.17-0.46-0.19-0.7c-0.02-0.23-0.12-0.46-0.14-0.7c-0.02-0.23,0.09-0.48,0.07-0.72
				c-0.02-0.23-0.24-0.45-0.27-0.68c-0.03-0.23,0.2-0.5,0.17-0.74c-0.03-0.23-0.47-0.41-0.51-0.64c-0.04-0.23,0.2-0.51,0.16-0.75
				c-0.04-0.23-0.14-0.46-0.19-0.69c-0.05-0.23-0.09-0.46-0.15-0.7c-0.05-0.23-0.38-0.39-0.44-0.62c-0.06-0.23,0.05-0.5-0.02-0.73
				c-0.07-0.23-0.11-0.46-0.19-0.68c-0.07-0.22-0.14-0.45-0.22-0.67c-0.08-0.22,0.05-0.53-0.04-0.75c-0.09-0.22-0.31-0.39-0.41-0.6
				c-0.1-0.21-0.5-0.28-0.61-0.49c-0.11-0.21,0.23-0.66,0.11-0.86c-0.12-0.21-0.5-0.26-0.63-0.46c-0.12-0.2-0.3-0.36-0.44-0.56
				c-0.13-0.19-0.25-0.4-0.39-0.59c-0.14-0.19-0.11-0.52-0.27-0.7c-0.13-0.16-0.3-0.28-0.43-0.42
				C21.29,53.4,21.06,53.29,20.92,53.16z"/>
		</g>
		<g>
			<path class="st0" d="M65.04,26.42c0,0.22,0.18,0.7,0.21,0.95c0.03,0.22,0.08,0.45,0.14,0.69c0.05,0.22,0.19,0.43,0.26,0.66
				c0.07,0.22,0.11,0.45,0.19,0.69c0.08,0.22,0.19,0.43,0.28,0.65c0.09,0.22-0.23,0.61-0.13,0.83c0.09,0.22,0.33,0.38,0.44,0.6
				c0.1,0.21,0.09,0.49,0.2,0.71c0.1,0.21,0.63,0.22,0.74,0.43c0.11,0.21,0.15,0.46,0.27,0.67c0.11,0.21,0.14,0.46,0.26,0.67
				c0.12,0.21,0.23,0.41,0.36,0.62c0.12,0.21,0.25,0.41,0.37,0.61c0.12,0.2,0.12,0.49,0.24,0.69c0.12,0.2,0.54,0.23,0.66,0.43
				c0.13,0.2,0.16,0.46,0.29,0.67c0.13,0.2,0.16,0.47,0.29,0.67c0.13,0.2,0.48,0.26,0.61,0.45c0.13,0.2,0.02,0.57,0.15,0.77
				c0.14,0.2,0.24,0.42,0.38,0.62c0.14,0.2,0.23,0.43,0.37,0.62c0.14,0.2,0.34,0.35,0.48,0.55c0.14,0.2,0.53,0.21,0.68,0.4
				c0.15,0.19-0.04,0.64,0.1,0.83c0.15,0.19,0.56,0.18,0.71,0.37c0.15,0.19,0.17,0.48,0.32,0.67c0.15,0.19,0.32,0.37,0.47,0.55
				c0.15,0.19,0.27,0.41,0.42,0.59c0.16,0.19,0.19,0.48,0.34,0.66c0.16,0.18,0.57,0.14,0.73,0.32c0.16,0.18,0.34,0.34,0.5,0.51
				c0.17,0.18,0.34,0.34,0.5,0.51c0.17,0.18,0.25,0.43,0.41,0.6c0.17,0.17,0.2,0.49,0.37,0.65c0.18,0.17,0.45,0.24,0.62,0.39
				c0.19,0.17,0.4,0.29,0.58,0.43c0.2,0.16,0.27,0.14,0.45,0.26c-0.16,0.1-0.07,0.19-0.26,0.19c-0.34,0-0.6,0.02-0.79,0.1
				c-0.28,0.12-0.51,0.31-0.58,0.57c-0.05,0.23-0.25,0.53-0.23,0.83c0.01,0.25,0.46,0.5,0.46,0.78c0,0.28-0.34,0.54-0.35,0.79
				c-0.01,0.3,0.05,0.6,0.11,0.83c0.06,0.26,0.33,0.4,0.61,0.52c0.19,0.08,0.43-0.13,0.76-0.13c0.33,0,0.32,0.28,0.64,0.36
				c-0.14,0.13-0.28,0.17-0.42,0.32c-0.13,0.14-0.4,0.17-0.53,0.32c-0.15,0.18-0.11,0.53-0.25,0.71c-0.14,0.19-0.18,0.45-0.31,0.64
				c-0.13,0.19-0.55,0.2-0.68,0.4c-0.13,0.2-0.07,0.51-0.18,0.72c-0.12,0.21-0.12,0.47-0.23,0.68c-0.11,0.21-0.19,0.42-0.29,0.64
				c-0.1,0.21-0.48,0.3-0.57,0.52c-0.09,0.22-0.07,0.48-0.15,0.7c-0.08,0.22-0.19,0.44-0.26,0.66c-0.07,0.22-0.28,0.41-0.34,0.64
				c-0.07,0.23-0.19,0.44-0.25,0.67c-0.06,0.23-0.08,0.47-0.14,0.7c-0.05,0.23,0.16,0.52,0.11,0.75c-0.05,0.23-0.29,0.43-0.34,0.66
				c-0.04,0.23,0.23,0.52,0.19,0.75c-0.04,0.23-0.48,0.41-0.52,0.64c-0.03,0.23,0.28,0.51,0.25,0.75c-0.03,0.24-0.22,0.45-0.24,0.69
				c-0.02,0.24-0.05,0.47-0.07,0.71c-0.02,0.24-0.23,0.46-0.24,0.7c-0.02,0.24,0.06,0.48,0.05,0.72c-0.01,0.24,0.18,0.48,0.17,0.72
				c-0.01,0.24-0.28,0.47-0.29,0.7c-0.01,0.24,0.3,0.49,0.29,0.72c0,0.24,0.21,0.48,0.2,0.71c0,0.24-0.18,0.47-0.18,0.7
				c0,0.24-0.34,0.47-0.34,0.7c0,0.24,0.33,0.22,0.34,0.46c0.34,0.11,0.26,0.54,0.62,0.54c0.35,0,0.35-0.56,0.71-0.56
				c0.35,0,0.35-0.01,0.71-0.01c0.35,0,0.35,0.24,0.71,0.24c0.35,0,0.35,0.28,0.71,0.28c0.35,0,0.35-0.52,0.71-0.52
				c0.35,0,0.35,0.38,0.71,0.38c0.36,0,0.36-0.2,0.71-0.2c0.35,0,0.35,0.12,0.71,0.12c0.35,0,0.35-0.18,0.71-0.18
				c0.35,0,0.35,0.34,0.71,0.34c0.36,0,0.36-0.04,0.71-0.04c0.36,0,0.36-0.13,0.71-0.13c0.36,0,0.36,0.21,0.71,0.21
				s0.58,0.15,0.83-0.1c0.26-0.26-0.07-0.48-0.07-0.84c0-0.36-0.21-0.36-0.21-0.73c0-0.36,0.12-0.36,0.12-0.73
				c0-0.37,0.09-0.37,0.09-0.73c0-0.37-0.14-0.37-0.14-0.73c0-0.37,0.12-0.37,0.12-0.73c0-0.36-0.09-0.36-0.09-0.73
				c0-0.37-0.08-0.37-0.08-0.73c0-0.36,0.26-0.36,0.26-0.72c0-0.36-0.09-0.36-0.09-0.73c0-0.36,0.28-0.36,0.28-0.73
				c0-0.37-0.47-0.37-0.47-0.73c0-0.37,0.22-0.37,0.22-0.73c0-0.37,0.21-0.37,0.21-0.73c0-0.36-0.04-0.36-0.04-0.73
				c0-0.37-0.02-0.37-0.02-0.73c0-0.37,0.06-0.37,0.06-0.73c0-0.37-0.37-0.37-0.37-0.73c0-0.37,0.11-0.37,0.11-0.73
				c0-0.37,0.28-0.37,0.28-0.73c0-0.37-0.03-0.37-0.03-0.73c0-0.37-0.28-0.37-0.28-0.73c0-0.37,0.04-0.37,0.04-0.73
				c0-0.37-0.25-0.37-0.25-0.74c0-0.37,0.19-0.37,0.19-0.74c0-0.37-0.11-0.37-0.11-0.74s0.36-0.37,0.36-0.74
				c0-0.3-0.14-0.3-0.14-0.6c0-0.3,0.03-0.3,0.03-0.61s-0.05-0.3-0.05-0.61c0-0.36-0.04-0.36-0.04-0.73c0-0.36,0.17-0.36,0.17-0.73
				c0-0.36-0.38-0.36-0.38-0.73c0-0.3,0.07-0.3,0.07-0.61c0-0.37-0.01-0.37-0.01-0.73c0-0.36-0.1-0.36-0.1-0.73
				c0-0.36,0.26-0.36,0.26-0.73c0-0.36,0.17-0.36,0.17-0.73c0-0.36,0.04-0.36,0.04-0.73c0-0.36-0.21-0.36-0.21-0.73
				c0-0.37,0.29-0.37,0.29-0.73c0-0.37-0.2-0.37-0.2-0.73c0-0.36-0.31-0.36-0.31-0.73c0-0.36,0.14-0.36,0.14-0.73
				c0-0.36-0.13-0.36-0.13-0.73c0-0.36,0.11-0.36,0.11-0.72c0-0.36,0.06-0.36,0.06-0.73c0-0.36-0.2-0.36-0.2-0.73
				c0-0.36,0.4-0.36,0.4-0.73c0-0.37-0.22-0.37-0.22-0.73c0-0.36,0.31-0.36,0.31-0.73c0-0.36,0-0.36,0-0.73
				c0-0.36-0.29-0.36-0.29-0.73c0-0.37-0.19-0.37-0.19-0.73c0-0.37,0.16-0.37,0.16-0.73c0-0.37,0.26-0.37,0.26-0.73
				c0-0.37-0.01-0.37-0.01-0.73c0-0.37,0.01-0.37,0.01-0.73c0-0.37-0.16-0.37-0.16-0.73c0-0.37-0.18-0.37-0.18-0.73
				c0-0.37,0.29-0.37,0.29-0.73c0-0.37-0.28-0.37-0.28-0.74c0-0.37,0.38-0.37,0.38-0.74s0.02-0.47-0.23-0.74
				c-0.25-0.26-0.35-0.14-0.71-0.14c-0.35,0-0.35,0-0.71,0c-0.35,0-0.35,0.43-0.71,0.43c-0.35,0-0.35-0.02-0.71-0.02
				c-0.35,0-0.35-0.49-0.71-0.49c-0.36,0-0.36,0.07-0.71,0.07c-0.35,0-0.35,0.18-0.71,0.18c-0.35,0-0.35-0.12-0.71-0.12
				c-0.35,0-0.35,0.39-0.71,0.39c-0.35,0-0.35,0-0.7,0c-0.35,0-0.35-0.47-0.7-0.47c-0.35,0-0.35,0.08-0.71,0.08
				c-0.35,0-0.35,0.24-0.71,0.24c-0.36,0-0.36-0.31-0.71-0.31c-0.35,0-0.35,0.27-0.71,0.27c-0.35,0-0.35,0.08-0.71,0.08
				c-0.35,0-0.35-0.01-0.71-0.01c-0.36,0-0.36-0.03-0.71-0.03c-0.36,0-0.36-0.43-0.71-0.43c-0.36,0-0.36,0.08-0.71,0.08
				c-0.36,0-0.36,0.13-0.71,0.13c-0.36,0-0.36,0.32-0.71,0.32c-0.36,0-0.36-0.32-0.71-0.32c-0.36,0-0.36,0.13-0.71,0.13
				c-0.36,0-0.36-0.04-0.71-0.04c-0.36,0-0.36,0.11-0.72,0.11c-0.36,0-0.36-0.06-0.7-0.16C65.43,26.51,65.38,26.31,65.04,26.42z"/>
			<path class="st0" d="M65.04,26.42c0,0.22,0.18,0.7,0.21,0.95c0.03,0.22,0.08,0.45,0.14,0.69c0.05,0.22,0.19,0.43,0.26,0.66
				c0.07,0.22,0.11,0.45,0.19,0.69c0.08,0.22,0.19,0.43,0.28,0.65c0.09,0.22-0.23,0.61-0.13,0.83c0.09,0.22,0.33,0.38,0.44,0.6
				c0.1,0.21,0.09,0.49,0.2,0.71c0.1,0.21,0.63,0.22,0.74,0.43c0.11,0.21,0.15,0.46,0.27,0.67c0.11,0.21,0.14,0.46,0.26,0.67
				c0.12,0.21,0.23,0.41,0.36,0.62c0.12,0.21,0.25,0.41,0.37,0.61c0.12,0.2,0.12,0.49,0.24,0.69c0.12,0.2,0.54,0.23,0.66,0.43
				c0.13,0.2,0.16,0.46,0.29,0.67c0.13,0.2,0.16,0.47,0.29,0.67c0.13,0.2,0.48,0.26,0.61,0.45c0.13,0.2,0.02,0.57,0.15,0.77
				c0.14,0.2,0.24,0.42,0.38,0.62c0.14,0.2,0.23,0.43,0.37,0.62c0.14,0.2,0.34,0.35,0.48,0.55c0.14,0.2,0.53,0.21,0.68,0.4
				c0.15,0.19-0.04,0.64,0.1,0.83c0.15,0.19,0.56,0.18,0.71,0.37c0.15,0.19,0.17,0.48,0.32,0.67c0.15,0.19,0.32,0.37,0.47,0.55
				c0.15,0.19,0.27,0.41,0.42,0.59c0.16,0.19,0.19,0.48,0.34,0.66c0.16,0.18,0.57,0.14,0.73,0.32c0.16,0.18,0.34,0.34,0.5,0.51
				c0.17,0.18,0.34,0.34,0.5,0.51c0.17,0.18,0.25,0.43,0.41,0.6c0.17,0.17,0.2,0.49,0.37,0.65c0.18,0.17,0.45,0.24,0.62,0.39
				c0.19,0.17,0.4,0.29,0.58,0.43c0.2,0.16,0.27,0.14,0.45,0.26c-0.16,0.1-0.07,0.19-0.26,0.19c-0.34,0-0.6,0.02-0.79,0.1
				c-0.28,0.12-0.51,0.31-0.58,0.57c-0.05,0.23-0.25,0.53-0.23,0.83c0.01,0.25,0.46,0.5,0.46,0.78c0,0.28-0.34,0.54-0.35,0.79
				c-0.01,0.3,0.05,0.6,0.11,0.83c0.06,0.26,0.33,0.4,0.61,0.52c0.19,0.08,0.43-0.13,0.76-0.13c0.33,0,0.32,0.28,0.64,0.36
				c-0.14,0.13-0.28,0.17-0.42,0.32c-0.13,0.14-0.4,0.17-0.53,0.32c-0.15,0.18-0.11,0.53-0.25,0.71c-0.14,0.19-0.18,0.45-0.31,0.64
				c-0.13,0.19-0.55,0.2-0.68,0.4c-0.13,0.2-0.07,0.51-0.18,0.72c-0.12,0.21-0.12,0.47-0.23,0.68c-0.11,0.21-0.19,0.42-0.29,0.64
				c-0.1,0.21-0.48,0.3-0.57,0.52c-0.09,0.22-0.07,0.48-0.15,0.7c-0.08,0.22-0.19,0.44-0.26,0.66c-0.07,0.22-0.28,0.41-0.34,0.64
				c-0.07,0.23-0.19,0.44-0.25,0.67c-0.06,0.23-0.08,0.47-0.14,0.7c-0.05,0.23,0.16,0.52,0.11,0.75c-0.05,0.23-0.29,0.43-0.34,0.66
				c-0.04,0.23,0.23,0.52,0.19,0.75c-0.04,0.23-0.48,0.41-0.52,0.64c-0.03,0.23,0.28,0.51,0.25,0.75c-0.03,0.24-0.22,0.45-0.24,0.69
				c-0.02,0.24-0.05,0.47-0.07,0.71c-0.02,0.24-0.23,0.46-0.24,0.7c-0.02,0.24,0.06,0.48,0.05,0.72c-0.01,0.24,0.18,0.48,0.17,0.72
				c-0.01,0.24-0.28,0.47-0.29,0.7c-0.01,0.24,0.3,0.49,0.29,0.72c0,0.24,0.21,0.48,0.2,0.71c0,0.24-0.18,0.47-0.18,0.7
				c0,0.24-0.34,0.47-0.34,0.7c0,0.24,0.33,0.22,0.34,0.46c0.34,0.11,0.26,0.54,0.62,0.54c0.35,0,0.35-0.56,0.71-0.56
				c0.35,0,0.35-0.01,0.71-0.01c0.35,0,0.35,0.24,0.71,0.24c0.35,0,0.35,0.28,0.71,0.28c0.35,0,0.35-0.52,0.71-0.52
				c0.35,0,0.35,0.38,0.71,0.38c0.36,0,0.36-0.2,0.71-0.2c0.35,0,0.35,0.12,0.71,0.12c0.35,0,0.35-0.18,0.71-0.18
				c0.35,0,0.35,0.34,0.71,0.34c0.36,0,0.36-0.04,0.71-0.04c0.36,0,0.36-0.13,0.71-0.13c0.36,0,0.36,0.21,0.71,0.21
				s0.58,0.15,0.83-0.1c0.26-0.26-0.07-0.48-0.07-0.84c0-0.36-0.21-0.36-0.21-0.73c0-0.36,0.12-0.36,0.12-0.73
				c0-0.37,0.09-0.37,0.09-0.73c0-0.37-0.14-0.37-0.14-0.73c0-0.37,0.12-0.37,0.12-0.73c0-0.36-0.09-0.36-0.09-0.73
				c0-0.37-0.08-0.37-0.08-0.73c0-0.36,0.26-0.36,0.26-0.72c0-0.36-0.09-0.36-0.09-0.73c0-0.36,0.28-0.36,0.28-0.73
				c0-0.37-0.47-0.37-0.47-0.73c0-0.37,0.22-0.37,0.22-0.73c0-0.37,0.21-0.37,0.21-0.73c0-0.36-0.04-0.36-0.04-0.73
				c0-0.37-0.02-0.37-0.02-0.73c0-0.37,0.06-0.37,0.06-0.73c0-0.37-0.37-0.37-0.37-0.73c0-0.37,0.11-0.37,0.11-0.73
				c0-0.37,0.28-0.37,0.28-0.73c0-0.37-0.03-0.37-0.03-0.73c0-0.37-0.28-0.37-0.28-0.73c0-0.37,0.04-0.37,0.04-0.73
				c0-0.37-0.25-0.37-0.25-0.74c0-0.37,0.19-0.37,0.19-0.74c0-0.37-0.11-0.37-0.11-0.74s0.36-0.37,0.36-0.74
				c0-0.3-0.14-0.3-0.14-0.6c0-0.3,0.03-0.3,0.03-0.61s-0.05-0.3-0.05-0.61c0-0.36-0.04-0.36-0.04-0.73c0-0.36,0.17-0.36,0.17-0.73
				c0-0.36-0.38-0.36-0.38-0.73c0-0.3,0.07-0.3,0.07-0.61c0-0.37-0.01-0.37-0.01-0.73c0-0.36-0.1-0.36-0.1-0.73
				c0-0.36,0.26-0.36,0.26-0.73c0-0.36,0.17-0.36,0.17-0.73c0-0.36,0.04-0.36,0.04-0.73c0-0.36-0.21-0.36-0.21-0.73
				c0-0.37,0.29-0.37,0.29-0.73c0-0.37-0.2-0.37-0.2-0.73c0-0.36-0.31-0.36-0.31-0.73c0-0.36,0.14-0.36,0.14-0.73
				c0-0.36-0.13-0.36-0.13-0.73c0-0.36,0.11-0.36,0.11-0.72c0-0.36,0.06-0.36,0.06-0.73c0-0.36-0.2-0.36-0.2-0.73
				c0-0.36,0.4-0.36,0.4-0.73c0-0.37-0.22-0.37-0.22-0.73c0-0.36,0.31-0.36,0.31-0.73c0-0.36,0-0.36,0-0.73
				c0-0.36-0.29-0.36-0.29-0.73c0-0.37-0.19-0.37-0.19-0.73c0-0.37,0.16-0.37,0.16-0.73c0-0.37,0.26-0.37,0.26-0.73
				c0-0.37-0.01-0.37-0.01-0.73c0-0.37,0.01-0.37,0.01-0.73c0-0.37-0.16-0.37-0.16-0.73c0-0.37-0.18-0.37-0.18-0.73
				c0-0.37,0.29-0.37,0.29-0.73c0-0.37-0.28-0.37-0.28-0.74c0-0.37,0.38-0.37,0.38-0.74s0.02-0.47-0.23-0.74
				c-0.25-0.26-0.35-0.14-0.71-0.14c-0.35,0-0.35,0-0.71,0c-0.35,0-0.35,0.43-0.71,0.43c-0.35,0-0.35-0.02-0.71-0.02
				c-0.35,0-0.35-0.49-0.71-0.49c-0.36,0-0.36,0.07-0.71,0.07c-0.35,0-0.35,0.18-0.71,0.18c-0.35,0-0.35-0.12-0.71-0.12
				c-0.35,0-0.35,0.39-0.71,0.39c-0.35,0-0.35,0-0.7,0c-0.35,0-0.35-0.47-0.7-0.47c-0.35,0-0.35,0.08-0.71,0.08
				c-0.35,0-0.35,0.24-0.71,0.24c-0.36,0-0.36-0.31-0.71-0.31c-0.35,0-0.35,0.27-0.71,0.27c-0.35,0-0.35,0.08-0.71,0.08
				c-0.35,0-0.35-0.01-0.71-0.01c-0.36,0-0.36-0.03-0.71-0.03c-0.36,0-0.36-0.43-0.71-0.43c-0.36,0-0.36,0.08-0.71,0.08
				c-0.36,0-0.36,0.13-0.71,0.13c-0.36,0-0.36,0.32-0.71,0.32c-0.36,0-0.36-0.32-0.71-0.32c-0.36,0-0.36,0.13-0.71,0.13
				c-0.36,0-0.36-0.04-0.71-0.04c-0.36,0-0.36,0.11-0.72,0.11c-0.36,0-0.36-0.06-0.7-0.16C65.43,26.51,65.38,26.31,65.04,26.42z"/>
		</g>
		<g>
			<path class="st0" d="M30.13,54.29c0,0.25-0.11,0.49-0.07,0.73c0.03,0.24,0.08,0.49,0.14,0.72c0.07,0.23,0.38,0.37,0.48,0.59
				c0.1,0.22,0.29,0.36,0.42,0.56c0.13,0.2,0.09,0.5,0.25,0.69c0.16,0.18,0.07,0.64,0.25,0.8c0.18,0.16,0.42,0.32,0.62,0.45
				c0.2,0.13,0.56,0.04,0.78,0.14c0.22,0.1,0.5,0.04,0.73,0.11c0.23,0.07,0.43,0.25,0.68,0.28c0.24,0.03,0.48,0.1,0.73,0.1
				c0.25,0,0.46-0.32,0.69-0.35c0.24-0.03,0.52,0.18,0.75,0.11c0.23-0.07,0.48-0.12,0.7-0.22c0.22-0.1,0.3-0.45,0.5-0.58
				c0.2-0.13,0.62,0.02,0.8-0.14c0.18-0.16,0.01-0.67,0.17-0.85c0.16-0.18,0.59-0.15,0.72-0.35c0.13-0.2,0.4-0.36,0.5-0.58
				c0.1-0.22-0.25-0.61-0.19-0.84c0.07-0.23,0.15-0.43,0.18-0.67c0.03-0.24-0.08-0.45-0.08-0.7c0-0.25-0.02-0.44-0.06-0.68
				c-0.03-0.24,0.43-0.58,0.36-0.81c-0.07-0.23-0.65-0.27-0.74-0.48c-0.1-0.22-0.19-0.39-0.32-0.6c-0.13-0.2-0.25-0.36-0.41-0.54
				c-0.16-0.18,0.08-0.75-0.1-0.91c-0.18-0.16-0.53-0.14-0.73-0.27c-0.2-0.13-0.45-0.18-0.67-0.28c-0.22-0.1-0.4-0.32-0.63-0.39
				c-0.23-0.07-0.51,0.09-0.75,0.06c-0.24-0.03-0.46-0.41-0.7-0.41c-0.25,0-0.46,0.44-0.7,0.47c-0.24,0.03-0.58-0.34-0.81-0.27
				c-0.23,0.07-0.35,0.48-0.57,0.58c-0.22,0.1-0.53,0.05-0.73,0.18c-0.2,0.13-0.4,0.29-0.59,0.45c-0.18,0.16-0.35,0.35-0.51,0.53
				c-0.16,0.18-0.29,0.39-0.42,0.6c-0.13,0.2-0.02,0.53-0.12,0.75c-0.1,0.22-0.26,0.39-0.33,0.63c-0.07,0.23-0.03,0.46-0.06,0.71
				C30.28,53.83,30.13,54.04,30.13,54.29z"/>
			<path class="st0" d="M30.13,54.29c0,0.25-0.11,0.49-0.07,0.73c0.03,0.24,0.08,0.49,0.14,0.72c0.07,0.23,0.38,0.37,0.48,0.59
				c0.1,0.22,0.29,0.36,0.42,0.56c0.13,0.2,0.09,0.5,0.25,0.69c0.16,0.18,0.07,0.64,0.25,0.8c0.18,0.16,0.42,0.32,0.62,0.45
				c0.2,0.13,0.56,0.04,0.78,0.14c0.22,0.1,0.5,0.04,0.73,0.11c0.23,0.07,0.43,0.25,0.68,0.28c0.24,0.03,0.48,0.1,0.73,0.1
				c0.25,0,0.46-0.32,0.69-0.35c0.24-0.03,0.52,0.18,0.75,0.11c0.23-0.07,0.48-0.12,0.7-0.22c0.22-0.1,0.3-0.45,0.5-0.58
				c0.2-0.13,0.62,0.02,0.8-0.14c0.18-0.16,0.01-0.67,0.17-0.85c0.16-0.18,0.59-0.15,0.72-0.35c0.13-0.2,0.4-0.36,0.5-0.58
				c0.1-0.22-0.25-0.61-0.19-0.84c0.07-0.23,0.15-0.43,0.18-0.67c0.03-0.24-0.08-0.45-0.08-0.7c0-0.25-0.02-0.44-0.06-0.68
				c-0.03-0.24,0.43-0.58,0.36-0.81c-0.07-0.23-0.65-0.27-0.74-0.48c-0.1-0.22-0.19-0.39-0.32-0.6c-0.13-0.2-0.25-0.36-0.41-0.54
				c-0.16-0.18,0.08-0.75-0.1-0.91c-0.18-0.16-0.53-0.14-0.73-0.27c-0.2-0.13-0.45-0.18-0.67-0.28c-0.22-0.1-0.4-0.32-0.63-0.39
				c-0.23-0.07-0.51,0.09-0.75,0.06c-0.24-0.03-0.46-0.41-0.7-0.41c-0.25,0-0.46,0.44-0.7,0.47c-0.24,0.03-0.58-0.34-0.81-0.27
				c-0.23,0.07-0.35,0.48-0.57,0.58c-0.22,0.1-0.53,0.05-0.73,0.18c-0.2,0.13-0.4,0.29-0.59,0.45c-0.18,0.16-0.35,0.35-0.51,0.53
				c-0.16,0.18-0.29,0.39-0.42,0.6c-0.13,0.2-0.02,0.53-0.12,0.75c-0.1,0.22-0.26,0.39-0.33,0.63c-0.07,0.23-0.03,0.46-0.06,0.71
				C30.28,53.83,30.13,54.04,30.13,54.29z"/>
		</g>
		<g>
			<path class="st0" d="M35.14,60.58c-0.24,0-0.51-0.44-0.74-0.41c-0.23,0.03-0.39,0.48-0.61,0.54c-0.22,0.07-0.46,0.08-0.67,0.18
				c-0.21,0.09-0.4,0.24-0.59,0.36c-0.2,0.12-0.4,0.23-0.59,0.37c-0.18,0.14-0.16,0.51-0.33,0.66c-0.17,0.16-0.49,0.14-0.65,0.31
				c-0.16,0.17-0.13,0.48-0.27,0.66c-0.14,0.18-0.24,0.37-0.36,0.57c-0.13,0.2-0.47,0.25-0.58,0.45c-0.11,0.21-0.47,0.29-0.57,0.5
				c-0.1,0.21-0.29,0.41-0.36,0.63c-0.08,0.22-0.12,0.49-0.18,0.7c-0.06,0.23,0.06,0.52,0.03,0.74c-0.03,0.24-0.13,0.49-0.13,0.71
				c0,0.23,0.3,0.45,0.3,0.68c0,0.23,0.16,0.46,0.16,0.68c0,0.23,0.01,0.46,0.01,0.68c0,0.23-0.19,0.46-0.19,0.68
				c0,0.24-0.08,0.46-0.08,0.68c0,0.24-0.22,0.47-0.22,0.68c0,0.26,0.1,0.48,0.1,0.68c0,0.42-0.1,0.25,0.22,0.36
				c0.33,0.12,0.25,0.58,0.6,0.58c0.35,0,0.35-0.3,0.71-0.3c0.36,0,0.36-0.11,0.71-0.11c0.36,0,0.36,0.09,0.71,0.09
				c0.36,0,0.36,0.13,0.71,0.13c0.36,0,0.36-0.21,0.71-0.21c0.36,0,0.36,0.26,0.71,0.26c0.36,0,0.36-0.06,0.72-0.06
				c0.36,0,0.36-0.17,0.71-0.17c0.36,0,0.36-0.09,0.71-0.09c0.36,0,0.36-0.02,0.72-0.02c0.36,0,0.36-0.01,0.71-0.01
				c0.36,0,0.36,0.14,0.71,0.14c0.36,0,0.36,0.27,0.71,0.27c0.36,0,0.36,0.13,0.72,0.13c0.36,0,0.36,0,0.72,0
				c0.36,0,0.36-0.22,0.72-0.22c0.36,0,0.31-0.19,0.65-0.31c0.32-0.11-0.19-0.05-0.19-0.48c0-0.19,0.46-0.42,0.46-0.68
				c0-0.21-0.52-0.43-0.52-0.67c0-0.21,0.12-0.44,0.12-0.68c0-0.22-0.07-0.44-0.07-0.68c0-0.22,0.53-0.44,0.53-0.67
				c0-0.22-0.4-0.45-0.4-0.68c0-0.23,0.25-0.46,0.25-0.69c0-0.22-0.42-0.41-0.45-0.65c-0.03-0.22,0.4-0.54,0.34-0.77
				c-0.06-0.22-0.19-0.44-0.27-0.66c-0.08-0.21-0.18-0.44-0.27-0.65c-0.09-0.21-0.31-0.36-0.43-0.57c-0.11-0.2,0.04-0.58-0.09-0.78
				c-0.13-0.19-0.48-0.25-0.62-0.43c-0.14-0.18-0.1-0.55-0.25-0.72c-0.16-0.17-0.6-0.08-0.77-0.23c-0.17-0.16-0.49-0.12-0.67-0.26
				c-0.19-0.14-0.3-0.34-0.5-0.46c-0.2-0.12-0.22-0.58-0.44-0.67c-0.21-0.1-0.58,0.25-0.81,0.18c-0.22-0.07-0.42-0.06-0.65-0.09
				C35.56,60.75,35.37,60.58,35.14,60.58z"/>
			<path class="st0" d="M35.14,60.58c-0.24,0-0.51-0.44-0.74-0.41c-0.23,0.03-0.39,0.48-0.61,0.54c-0.22,0.07-0.46,0.08-0.67,0.18
				c-0.21,0.09-0.4,0.24-0.59,0.36c-0.2,0.12-0.4,0.23-0.59,0.37c-0.18,0.14-0.16,0.51-0.33,0.66c-0.17,0.16-0.49,0.14-0.65,0.31
				c-0.16,0.17-0.13,0.48-0.27,0.66c-0.14,0.18-0.24,0.37-0.36,0.57c-0.13,0.2-0.47,0.25-0.58,0.45c-0.11,0.21-0.47,0.29-0.57,0.5
				c-0.1,0.21-0.29,0.41-0.36,0.63c-0.08,0.22-0.12,0.49-0.18,0.7c-0.06,0.23,0.06,0.52,0.03,0.74c-0.03,0.24-0.13,0.49-0.13,0.71
				c0,0.23,0.3,0.45,0.3,0.68c0,0.23,0.16,0.46,0.16,0.68c0,0.23,0.01,0.46,0.01,0.68c0,0.23-0.19,0.46-0.19,0.68
				c0,0.24-0.08,0.46-0.08,0.68c0,0.24-0.22,0.47-0.22,0.68c0,0.26,0.1,0.48,0.1,0.68c0,0.42-0.1,0.25,0.22,0.36
				c0.33,0.12,0.25,0.58,0.6,0.58c0.35,0,0.35-0.3,0.71-0.3c0.36,0,0.36-0.11,0.71-0.11c0.36,0,0.36,0.09,0.71,0.09
				c0.36,0,0.36,0.13,0.71,0.13c0.36,0,0.36-0.21,0.71-0.21c0.36,0,0.36,0.26,0.71,0.26c0.36,0,0.36-0.06,0.72-0.06
				c0.36,0,0.36-0.17,0.71-0.17c0.36,0,0.36-0.09,0.71-0.09c0.36,0,0.36-0.02,0.72-0.02c0.36,0,0.36-0.01,0.71-0.01
				c0.36,0,0.36,0.14,0.71,0.14c0.36,0,0.36,0.27,0.71,0.27c0.36,0,0.36,0.13,0.72,0.13c0.36,0,0.36,0,0.72,0
				c0.36,0,0.36-0.22,0.72-0.22c0.36,0,0.31-0.19,0.65-0.31c0.32-0.11-0.19-0.05-0.19-0.48c0-0.19,0.46-0.42,0.46-0.68
				c0-0.21-0.52-0.43-0.52-0.67c0-0.21,0.12-0.44,0.12-0.68c0-0.22-0.07-0.44-0.07-0.68c0-0.22,0.53-0.44,0.53-0.67
				c0-0.22-0.4-0.45-0.4-0.68c0-0.23,0.25-0.46,0.25-0.69c0-0.22-0.42-0.41-0.45-0.65c-0.03-0.22,0.4-0.54,0.34-0.77
				c-0.06-0.22-0.19-0.44-0.27-0.66c-0.08-0.21-0.18-0.44-0.27-0.65c-0.09-0.21-0.31-0.36-0.43-0.57c-0.11-0.2,0.04-0.58-0.09-0.78
				c-0.13-0.19-0.48-0.25-0.62-0.43c-0.14-0.18-0.1-0.55-0.25-0.72c-0.16-0.17-0.6-0.08-0.77-0.23c-0.17-0.16-0.49-0.12-0.67-0.26
				c-0.19-0.14-0.3-0.34-0.5-0.46c-0.2-0.12-0.22-0.58-0.44-0.67c-0.21-0.1-0.58,0.25-0.81,0.18c-0.22-0.07-0.42-0.06-0.65-0.09
				C35.56,60.75,35.37,60.58,35.14,60.58z"/>
		</g>
		<g>
			<path class="st0" d="M50.32,59.46c0.25,0,0.46-0.3,0.7-0.34c0.24-0.03,0.6,0.42,0.83,0.35c0.23-0.07,0.26-0.71,0.48-0.81
				c0.22-0.1,0.63,0.16,0.83,0.03c0.2-0.13,0.21-0.53,0.39-0.69c0.18-0.16,0.67-0.02,0.83-0.21c0.16-0.18-0.12-0.7,0.01-0.9
				c0.13-0.2,0.35-0.33,0.45-0.55c0.1-0.22,0.11-0.45,0.17-0.68c0.07-0.23,0.39-0.4,0.42-0.64c0.03-0.24,0.03-0.49,0.03-0.73
				c0-0.25,0-0.5-0.03-0.73c-0.03-0.24,0.04-0.53-0.02-0.76c-0.07-0.23-0.17-0.49-0.27-0.71c-0.1-0.22-0.21-0.48-0.34-0.68
				c-0.13-0.2-0.56-0.2-0.71-0.38c-0.16-0.18-0.08-0.62-0.26-0.78c-0.18-0.16-0.59-0.05-0.79-0.18c-0.2-0.13-0.38-0.3-0.6-0.4
				c-0.22-0.1-0.52,0.07-0.75,0c-0.23-0.07-0.4-0.33-0.64-0.36c-0.24-0.03-0.47,0.01-0.72,0.01c-0.25,0-0.5-0.17-0.73-0.13
				c-0.24,0.03-0.39,0.42-0.62,0.48c-0.23,0.07-0.67-0.39-0.88-0.29c-0.22,0.1-0.17,0.71-0.37,0.84c-0.2,0.13-0.41,0.21-0.59,0.37
				c-0.18,0.16-0.68,0.01-0.84,0.19c-0.16,0.18-0.32,0.41-0.45,0.62c-0.13,0.2,0.17,0.65,0.07,0.87c-0.1,0.22-0.13,0.43-0.2,0.66
				c-0.07,0.23-0.4,0.39-0.43,0.63c-0.03,0.24,0.11,0.48,0.11,0.73c0,0.25-0.01,0.47,0.03,0.71c0.03,0.24,0.04,0.48,0.1,0.71
				c0.07,0.23-0.01,0.52,0.09,0.74c0.1,0.22,0.58,0.22,0.71,0.42c0.13,0.2-0.05,0.62,0.11,0.8c0.16,0.18,0.49,0.18,0.67,0.34
				c0.18,0.16,0.15,0.61,0.35,0.74c0.2,0.13,0.61-0.1,0.83,0c0.22,0.1,0.36,0.4,0.59,0.47c0.23,0.07,0.44,0.39,0.68,0.42
				C49.79,59.67,50.08,59.46,50.32,59.46z"/>
			<path class="st0" d="M50.32,59.46c0.25,0,0.46-0.3,0.7-0.34c0.24-0.03,0.6,0.42,0.83,0.35c0.23-0.07,0.26-0.71,0.48-0.81
				c0.22-0.1,0.63,0.16,0.83,0.03c0.2-0.13,0.21-0.53,0.39-0.69c0.18-0.16,0.67-0.02,0.83-0.21c0.16-0.18-0.12-0.7,0.01-0.9
				c0.13-0.2,0.35-0.33,0.45-0.55c0.1-0.22,0.11-0.45,0.17-0.68c0.07-0.23,0.39-0.4,0.42-0.64c0.03-0.24,0.03-0.49,0.03-0.73
				c0-0.25,0-0.5-0.03-0.73c-0.03-0.24,0.04-0.53-0.02-0.76c-0.07-0.23-0.17-0.49-0.27-0.71c-0.1-0.22-0.21-0.48-0.34-0.68
				c-0.13-0.2-0.56-0.2-0.71-0.38c-0.16-0.18-0.08-0.62-0.26-0.78c-0.18-0.16-0.59-0.05-0.79-0.18c-0.2-0.13-0.38-0.3-0.6-0.4
				c-0.22-0.1-0.52,0.07-0.75,0c-0.23-0.07-0.4-0.33-0.64-0.36c-0.24-0.03-0.47,0.01-0.72,0.01c-0.25,0-0.5-0.17-0.73-0.13
				c-0.24,0.03-0.39,0.42-0.62,0.48c-0.23,0.07-0.67-0.39-0.88-0.29c-0.22,0.1-0.17,0.71-0.37,0.84c-0.2,0.13-0.41,0.21-0.59,0.37
				c-0.18,0.16-0.68,0.01-0.84,0.19c-0.16,0.18-0.32,0.41-0.45,0.62c-0.13,0.2,0.17,0.65,0.07,0.87c-0.1,0.22-0.13,0.43-0.2,0.66
				c-0.07,0.23-0.4,0.39-0.43,0.63c-0.03,0.24,0.11,0.48,0.11,0.73c0,0.25-0.01,0.47,0.03,0.71c0.03,0.24,0.04,0.48,0.1,0.71
				c0.07,0.23-0.01,0.52,0.09,0.74c0.1,0.22,0.58,0.22,0.71,0.42c0.13,0.2-0.05,0.62,0.11,0.8c0.16,0.18,0.49,0.18,0.67,0.34
				c0.18,0.16,0.15,0.61,0.35,0.74c0.2,0.13,0.61-0.1,0.83,0c0.22,0.1,0.36,0.4,0.59,0.47c0.23,0.07,0.44,0.39,0.68,0.42
				C49.79,59.67,50.08,59.46,50.32,59.46z"/>
		</g>
		<g>
			<path class="st0" d="M50.32,60.62c-0.24,0-0.48-0.25-0.71-0.21c-0.23,0.03-0.54-0.14-0.76-0.08c-0.22,0.07-0.42,0.3-0.63,0.4
				c-0.21,0.09-0.31,0.42-0.51,0.54c-0.2,0.12-0.3,0.35-0.49,0.49c-0.18,0.14-0.26,0.37-0.43,0.53c-0.17,0.16-0.33,0.28-0.49,0.46
				c-0.16,0.17-0.8-0.07-0.94,0.12c-0.14,0.18,0.01,0.59-0.11,0.79c-0.13,0.2-0.18,0.43-0.29,0.63c-0.11,0.21-0.1,0.46-0.2,0.67
				c-0.1,0.21-0.45,0.32-0.52,0.53c-0.08,0.22-0.12,0.46-0.17,0.68c-0.06,0.23-0.14,0.46-0.17,0.68c-0.03,0.24,0.34,0.48,0.34,0.7
				c0,0.23-0.28,0.45-0.28,0.68c0,0.23,0.17,0.46,0.17,0.68c0,0.23-0.55,0.46-0.55,0.68c0,0.23,0.44,0.46,0.44,0.68
				c0,0.24-0.27,0.46-0.27,0.68c0,0.24,0.41,0.47,0.41,0.68c0,0.26-0.07,0.48-0.07,0.68c0,0.42-0.39,0.24-0.07,0.35
				c0.33,0.12,0.24,0.09,0.6,0.09c0.35,0,0.35-0.02,0.71-0.02c0.36,0,0.36,0.24,0.71,0.24c0.36,0,0.36-0.05,0.71-0.05
				c0.36,0,0.36-0.23,0.71-0.23c0.36,0,0.36,0.18,0.71,0.18c0.36,0,0.36,0.36,0.71,0.36c0.36,0,0.36-0.52,0.72-0.52
				c0.36,0,0.36,0.14,0.71,0.14c0.36,0,0.36,0.36,0.71,0.36c0.36,0,0.36-0.55,0.72-0.55c0.36,0,0.36,0.4,0.71,0.4
				c0.36,0,0.36,0.2,0.71,0.2c0.36,0,0.36-0.6,0.71-0.6c0.36,0,0.36,0.54,0.72,0.54c0.36,0,0.36-0.27,0.72-0.27
				c0.36,0,0.36,0.06,0.72,0.06s0.41,0.2,0.75,0.08c0.32-0.11,0.09-0.35,0.09-0.77c0-0.19,0.19-0.42,0.19-0.68
				c0-0.21-0.04-0.43-0.04-0.67c0-0.21-0.03-0.44-0.03-0.68c0-0.22-0.01-0.44-0.01-0.68c0-0.22-0.03-0.44-0.03-0.67
				c0-0.22-0.25-0.45-0.25-0.68c0-0.23,0.14-0.46,0.14-0.69c0-0.22-0.41-0.41-0.45-0.65c-0.03-0.22,0.44-0.55,0.37-0.78
				c-0.06-0.22-0.17-0.45-0.25-0.67c-0.08-0.21-0.3-0.38-0.4-0.6c-0.09-0.21-0.19-0.43-0.3-0.63c-0.11-0.2-0.34-0.34-0.47-0.53
				c-0.13-0.19-0.1-0.5-0.24-0.68c-0.14-0.18-0.51-0.17-0.67-0.35c-0.16-0.17-0.18-0.47-0.35-0.62c-0.17-0.16-0.35-0.31-0.54-0.45
				c-0.19-0.14-0.43-0.19-0.63-0.31c-0.2-0.12-0.24-0.57-0.45-0.67c-0.21-0.1-0.59,0.24-0.82,0.17c-0.22-0.07-0.45,0.04-0.68,0.01
				C50.74,60.76,50.56,60.62,50.32,60.62z"/>
			<path class="st0" d="M50.32,60.62c-0.24,0-0.48-0.25-0.71-0.21c-0.23,0.03-0.54-0.14-0.76-0.08c-0.22,0.07-0.42,0.3-0.63,0.4
				c-0.21,0.09-0.31,0.42-0.51,0.54c-0.2,0.12-0.3,0.35-0.49,0.49c-0.18,0.14-0.26,0.37-0.43,0.53c-0.17,0.16-0.33,0.28-0.49,0.46
				c-0.16,0.17-0.8-0.07-0.94,0.12c-0.14,0.18,0.01,0.59-0.11,0.79c-0.13,0.2-0.18,0.43-0.29,0.63c-0.11,0.21-0.1,0.46-0.2,0.67
				c-0.1,0.21-0.45,0.32-0.52,0.53c-0.08,0.22-0.12,0.46-0.17,0.68c-0.06,0.23-0.14,0.46-0.17,0.68c-0.03,0.24,0.34,0.48,0.34,0.7
				c0,0.23-0.28,0.45-0.28,0.68c0,0.23,0.17,0.46,0.17,0.68c0,0.23-0.55,0.46-0.55,0.68c0,0.23,0.44,0.46,0.44,0.68
				c0,0.24-0.27,0.46-0.27,0.68c0,0.24,0.41,0.47,0.41,0.68c0,0.26-0.07,0.48-0.07,0.68c0,0.42-0.39,0.24-0.07,0.35
				c0.33,0.12,0.24,0.09,0.6,0.09c0.35,0,0.35-0.02,0.71-0.02c0.36,0,0.36,0.24,0.71,0.24c0.36,0,0.36-0.05,0.71-0.05
				c0.36,0,0.36-0.23,0.71-0.23c0.36,0,0.36,0.18,0.71,0.18c0.36,0,0.36,0.36,0.71,0.36c0.36,0,0.36-0.52,0.72-0.52
				c0.36,0,0.36,0.14,0.71,0.14c0.36,0,0.36,0.36,0.71,0.36c0.36,0,0.36-0.55,0.72-0.55c0.36,0,0.36,0.4,0.71,0.4
				c0.36,0,0.36,0.2,0.71,0.2c0.36,0,0.36-0.6,0.71-0.6c0.36,0,0.36,0.54,0.72,0.54c0.36,0,0.36-0.27,0.72-0.27
				c0.36,0,0.36,0.06,0.72,0.06s0.41,0.2,0.75,0.08c0.32-0.11,0.09-0.35,0.09-0.77c0-0.19,0.19-0.42,0.19-0.68
				c0-0.21-0.04-0.43-0.04-0.67c0-0.21-0.03-0.44-0.03-0.68c0-0.22-0.01-0.44-0.01-0.68c0-0.22-0.03-0.44-0.03-0.67
				c0-0.22-0.25-0.45-0.25-0.68c0-0.23,0.14-0.46,0.14-0.69c0-0.22-0.41-0.41-0.45-0.65c-0.03-0.22,0.44-0.55,0.37-0.78
				c-0.06-0.22-0.17-0.45-0.25-0.67c-0.08-0.21-0.3-0.38-0.4-0.6c-0.09-0.21-0.19-0.43-0.3-0.63c-0.11-0.2-0.34-0.34-0.47-0.53
				c-0.13-0.19-0.1-0.5-0.24-0.68c-0.14-0.18-0.51-0.17-0.67-0.35c-0.16-0.17-0.18-0.47-0.35-0.62c-0.17-0.16-0.35-0.31-0.54-0.45
				c-0.19-0.14-0.43-0.19-0.63-0.31c-0.2-0.12-0.24-0.57-0.45-0.67c-0.21-0.1-0.59,0.24-0.82,0.17c-0.22-0.07-0.45,0.04-0.68,0.01
				C50.74,60.76,50.56,60.62,50.32,60.62z"/>
		</g>
		<g>
			<path class="st0" d="M37.39,36.21c0,0.25,0.14,0.49,0.18,0.72c0.03,0.24,0.19,0.45,0.26,0.68c0.07,0.23-0.09,0.55,0.01,0.77
				c0.1,0.22,0.15,0.5,0.28,0.7c0.13,0.2,0.49,0.26,0.65,0.44c0.16,0.18,0.3,0.39,0.48,0.55c0.18,0.16,0.27,0.47,0.48,0.6
				c0.2,0.13,0.43,0.29,0.65,0.39c0.22,0.1,0.62-0.3,0.86-0.23c0.23,0.07,0.43,0.14,0.67,0.17c0.24,0.03,0.44,0.07,0.69,0.07
				c0.25,0,0.46,0,0.7-0.03c0.24-0.03,0.45-0.07,0.68-0.14c0.23-0.07,0.65,0.32,0.87,0.22c0.22-0.1,0.34-0.45,0.54-0.58
				c0.2-0.13,0.46-0.22,0.64-0.38c0.18-0.16,0.03-0.64,0.19-0.82c0.16-0.18,0.67-0.09,0.8-0.3c0.13-0.2-0.17-0.63-0.07-0.85
				c0.1-0.22,0.38-0.34,0.45-0.58c0.07-0.23-0.14-0.49-0.1-0.73c0.03-0.24,0.51-0.43,0.51-0.68c0-0.25,0.16-0.53,0.13-0.77
				c-0.03-0.24-0.62-0.37-0.69-0.6c-0.07-0.23-0.24-0.38-0.34-0.6c-0.1-0.22,0.35-0.74,0.22-0.94c-0.13-0.2-0.58-0.2-0.73-0.38
				c-0.16-0.18-0.24-0.45-0.42-0.6c-0.18-0.16-0.46-0.19-0.67-0.32c-0.2-0.13-0.36-0.34-0.58-0.44c-0.22-0.1-0.5-0.02-0.73-0.09
				c-0.23-0.07-0.45-0.11-0.69-0.15c-0.24-0.03-0.46-0.13-0.7-0.13c-0.25,0-0.45,0.21-0.69,0.24c-0.24,0.03-0.47,0.01-0.7,0.07
				c-0.23,0.07-0.43,0.17-0.64,0.27c-0.22,0.1-0.49,0.08-0.69,0.21c-0.2,0.13-0.2,0.5-0.38,0.66c-0.18,0.16-0.69-0.02-0.85,0.16
				c-0.16,0.18-0.1,0.53-0.23,0.73c-0.13,0.2-0.4,0.33-0.5,0.55c-0.1,0.22-0.43,0.38-0.5,0.62c-0.07,0.23,0.38,0.58,0.35,0.83
				C37.72,35.75,37.39,35.96,37.39,36.21z"/>
			<path class="st0" d="M37.39,36.21c0,0.25,0.14,0.49,0.18,0.72c0.03,0.24,0.19,0.45,0.26,0.68c0.07,0.23-0.09,0.55,0.01,0.77
				c0.1,0.22,0.15,0.5,0.28,0.7c0.13,0.2,0.49,0.26,0.65,0.44c0.16,0.18,0.3,0.39,0.48,0.55c0.18,0.16,0.27,0.47,0.48,0.6
				c0.2,0.13,0.43,0.29,0.65,0.39c0.22,0.1,0.62-0.3,0.86-0.23c0.23,0.07,0.43,0.14,0.67,0.17c0.24,0.03,0.44,0.07,0.69,0.07
				c0.25,0,0.46,0,0.7-0.03c0.24-0.03,0.45-0.07,0.68-0.14c0.23-0.07,0.65,0.32,0.87,0.22c0.22-0.1,0.34-0.45,0.54-0.58
				c0.2-0.13,0.46-0.22,0.64-0.38c0.18-0.16,0.03-0.64,0.19-0.82c0.16-0.18,0.67-0.09,0.8-0.3c0.13-0.2-0.17-0.63-0.07-0.85
				c0.1-0.22,0.38-0.34,0.45-0.58c0.07-0.23-0.14-0.49-0.1-0.73c0.03-0.24,0.51-0.43,0.51-0.68c0-0.25,0.16-0.53,0.13-0.77
				c-0.03-0.24-0.62-0.37-0.69-0.6c-0.07-0.23-0.24-0.38-0.34-0.6c-0.1-0.22,0.35-0.74,0.22-0.94c-0.13-0.2-0.58-0.2-0.73-0.38
				c-0.16-0.18-0.24-0.45-0.42-0.6c-0.18-0.16-0.46-0.19-0.67-0.32c-0.2-0.13-0.36-0.34-0.58-0.44c-0.22-0.1-0.5-0.02-0.73-0.09
				c-0.23-0.07-0.45-0.11-0.69-0.15c-0.24-0.03-0.46-0.13-0.7-0.13c-0.25,0-0.45,0.21-0.69,0.24c-0.24,0.03-0.47,0.01-0.7,0.07
				c-0.23,0.07-0.43,0.17-0.64,0.27c-0.22,0.1-0.49,0.08-0.69,0.21c-0.2,0.13-0.2,0.5-0.38,0.66c-0.18,0.16-0.69-0.02-0.85,0.16
				c-0.16,0.18-0.1,0.53-0.23,0.73c-0.13,0.2-0.4,0.33-0.5,0.55c-0.1,0.22-0.43,0.38-0.5,0.62c-0.07,0.23,0.38,0.58,0.35,0.83
				C37.72,35.75,37.39,35.96,37.39,36.21z"/>
		</g>
		<g>
			<path class="st0" d="M57.77,41.03c0.25,0,0.49,0.27,0.73,0.23c0.24-0.03,0.53,0.08,0.76,0.01c0.23-0.07,0.45-0.25,0.66-0.35
				c0.22-0.1,0.54-0.08,0.74-0.21c0.2-0.13,0.12-0.66,0.3-0.82c0.18-0.16,0.39-0.26,0.55-0.44c0.16-0.18,0.53-0.21,0.66-0.41
				c0.13-0.2,0.23-0.45,0.33-0.67c0.1-0.22,0.09-0.49,0.16-0.72c0.07-0.23-0.2-0.51-0.17-0.76c0.03-0.24,0.06-0.43,0.06-0.68
				c0-0.25,0.42-0.51,0.38-0.74c-0.03-0.24-0.39-0.41-0.46-0.64c-0.07-0.23-0.18-0.42-0.28-0.64c-0.1-0.22-0.1-0.47-0.23-0.67
				c-0.13-0.2-0.12-0.51-0.28-0.7c-0.16-0.18-0.2-0.52-0.39-0.68c-0.18-0.16-0.56-0.09-0.77-0.22c-0.2-0.13-0.29-0.52-0.51-0.62
				c-0.22-0.1-0.64,0.31-0.87,0.24c-0.23-0.07-0.42-0.21-0.67-0.24c-0.24-0.03-0.46,0.06-0.71,0.06c-0.25,0-0.52-0.41-0.75-0.38
				c-0.24,0.03-0.46,0.26-0.69,0.33c-0.23,0.07-0.47,0.14-0.69,0.24c-0.22,0.1-0.41,0.26-0.61,0.39c-0.2,0.13-0.2,0.5-0.38,0.66
				c-0.18,0.16-0.38,0.25-0.54,0.43c-0.16,0.18-0.69,0.09-0.82,0.29c-0.13,0.2,0.07,0.6-0.03,0.82c-0.1,0.22-0.6,0.31-0.67,0.54
				c-0.07,0.23-0.1,0.52-0.13,0.76c-0.03,0.24,0.53,0.52,0.53,0.77c0,0.25-0.36,0.5-0.32,0.74c0.03,0.24,0,0.52,0.07,0.75
				c0.07,0.23,0.63,0.27,0.73,0.49c0.1,0.22-0.34,0.74-0.21,0.94c0.13,0.2,0.36,0.38,0.52,0.56c0.16,0.18,0.53,0.17,0.71,0.33
				c0.18,0.16,0.37,0.31,0.57,0.44c0.2,0.13,0.49,0.06,0.71,0.16c0.22,0.1,0.25,0.72,0.48,0.79c0.23,0.07,0.58-0.37,0.83-0.34
				C57.31,41.09,57.53,41.03,57.77,41.03z"/>
			<path class="st0" d="M57.77,41.03c0.25,0,0.49,0.27,0.73,0.23c0.24-0.03,0.53,0.08,0.76,0.01c0.23-0.07,0.45-0.25,0.66-0.35
				c0.22-0.1,0.54-0.08,0.74-0.21c0.2-0.13,0.12-0.66,0.3-0.82c0.18-0.16,0.39-0.26,0.55-0.44c0.16-0.18,0.53-0.21,0.66-0.41
				c0.13-0.2,0.23-0.45,0.33-0.67c0.1-0.22,0.09-0.49,0.16-0.72c0.07-0.23-0.2-0.51-0.17-0.76c0.03-0.24,0.06-0.43,0.06-0.68
				c0-0.25,0.42-0.51,0.38-0.74c-0.03-0.24-0.39-0.41-0.46-0.64c-0.07-0.23-0.18-0.42-0.28-0.64c-0.1-0.22-0.1-0.47-0.23-0.67
				c-0.13-0.2-0.12-0.51-0.28-0.7c-0.16-0.18-0.2-0.52-0.39-0.68c-0.18-0.16-0.56-0.09-0.77-0.22c-0.2-0.13-0.29-0.52-0.51-0.62
				c-0.22-0.1-0.64,0.31-0.87,0.24c-0.23-0.07-0.42-0.21-0.67-0.24c-0.24-0.03-0.46,0.06-0.71,0.06c-0.25,0-0.52-0.41-0.75-0.38
				c-0.24,0.03-0.46,0.26-0.69,0.33c-0.23,0.07-0.47,0.14-0.69,0.24c-0.22,0.1-0.41,0.26-0.61,0.39c-0.2,0.13-0.2,0.5-0.38,0.66
				c-0.18,0.16-0.38,0.25-0.54,0.43c-0.16,0.18-0.69,0.09-0.82,0.29c-0.13,0.2,0.07,0.6-0.03,0.82c-0.1,0.22-0.6,0.31-0.67,0.54
				c-0.07,0.23-0.1,0.52-0.13,0.76c-0.03,0.24,0.53,0.52,0.53,0.77c0,0.25-0.36,0.5-0.32,0.74c0.03,0.24,0,0.52,0.07,0.75
				c0.07,0.23,0.63,0.27,0.73,0.49c0.1,0.22-0.34,0.74-0.21,0.94c0.13,0.2,0.36,0.38,0.52,0.56c0.16,0.18,0.53,0.17,0.71,0.33
				c0.18,0.16,0.37,0.31,0.57,0.44c0.2,0.13,0.49,0.06,0.71,0.16c0.22,0.1,0.25,0.72,0.48,0.79c0.23,0.07,0.58-0.37,0.83-0.34
				C57.31,41.09,57.53,41.03,57.77,41.03z"/>
		</g>
		<g>
			<path class="st0" d="M65.51,59.44c0.25,0,0.51,0.03,0.74,0c0.24-0.03,0.49-0.11,0.72-0.18c0.23-0.07,0.48-0.14,0.7-0.24
				c0.22-0.1,0.26-0.52,0.46-0.65c0.2-0.13,0.5-0.1,0.69-0.26c0.18-0.16,0.12-0.53,0.28-0.71c0.16-0.18,0.29-0.33,0.42-0.53
				c0.13-0.2,0.67-0.17,0.77-0.39c0.1-0.22,0.13-0.49,0.19-0.72c0.07-0.23-0.03-0.5,0-0.75c0.03-0.24-0.24-0.47-0.24-0.72
				c0-0.25,0.38-0.5,0.35-0.73c-0.03-0.24-0.36-0.41-0.43-0.64c-0.07-0.23,0.21-0.59,0.11-0.81c-0.1-0.22-0.58-0.23-0.71-0.43
				c-0.13-0.2-0.02-0.57-0.18-0.75c-0.16-0.18-0.54-0.13-0.72-0.29c-0.18-0.16-0.29-0.38-0.49-0.51c-0.2-0.13-0.22-0.62-0.45-0.72
				c-0.22-0.1-0.59,0.16-0.82,0.1c-0.23-0.07-0.48,0.05-0.72,0.02c-0.24-0.03-0.44-0.55-0.69-0.55c-0.25,0-0.49,0.28-0.72,0.31
				c-0.24,0.03-0.53-0.08-0.76-0.02c-0.23,0.07-0.51,0.1-0.73,0.2c-0.22,0.1-0.47,0.23-0.67,0.36c-0.2,0.13-0.24,0.51-0.42,0.67
				c-0.18,0.16-0.2,0.46-0.36,0.64c-0.16,0.18-0.27,0.36-0.4,0.56c-0.13,0.2-0.29,0.35-0.4,0.57c-0.1,0.22-0.62,0.29-0.68,0.52
				c-0.07,0.23,0.4,0.58,0.37,0.82c-0.03,0.24-0.58,0.44-0.58,0.69c0,0.25,0.35,0.48,0.39,0.71c0.03,0.24-0.04,0.5,0.03,0.73
				c0.07,0.23,0.5,0.31,0.6,0.53c0.1,0.22,0.06,0.48,0.19,0.68c0.13,0.2,0.01,0.6,0.17,0.78c0.16,0.18,0.56,0.12,0.74,0.28
				c0.18,0.16,0.36,0.29,0.56,0.42c0.2,0.13,0.43,0.17,0.65,0.27c0.22,0.1,0.4,0.23,0.63,0.3c0.23,0.07,0.4,0.43,0.64,0.46
				C65,59.49,65.26,59.44,65.51,59.44z"/>
			<path class="st0" d="M65.51,59.44c0.25,0,0.51,0.03,0.74,0c0.24-0.03,0.49-0.11,0.72-0.18c0.23-0.07,0.48-0.14,0.7-0.24
				c0.22-0.1,0.26-0.52,0.46-0.65c0.2-0.13,0.5-0.1,0.69-0.26c0.18-0.16,0.12-0.53,0.28-0.71c0.16-0.18,0.29-0.33,0.42-0.53
				c0.13-0.2,0.67-0.17,0.77-0.39c0.1-0.22,0.13-0.49,0.19-0.72c0.07-0.23-0.03-0.5,0-0.75c0.03-0.24-0.24-0.47-0.24-0.72
				c0-0.25,0.38-0.5,0.35-0.73c-0.03-0.24-0.36-0.41-0.43-0.64c-0.07-0.23,0.21-0.59,0.11-0.81c-0.1-0.22-0.58-0.23-0.71-0.43
				c-0.13-0.2-0.02-0.57-0.18-0.75c-0.16-0.18-0.54-0.13-0.72-0.29c-0.18-0.16-0.29-0.38-0.49-0.51c-0.2-0.13-0.22-0.62-0.45-0.72
				c-0.22-0.1-0.59,0.16-0.82,0.1c-0.23-0.07-0.48,0.05-0.72,0.02c-0.24-0.03-0.44-0.55-0.69-0.55c-0.25,0-0.49,0.28-0.72,0.31
				c-0.24,0.03-0.53-0.08-0.76-0.02c-0.23,0.07-0.51,0.1-0.73,0.2c-0.22,0.1-0.47,0.23-0.67,0.36c-0.2,0.13-0.24,0.51-0.42,0.67
				c-0.18,0.16-0.2,0.46-0.36,0.64c-0.16,0.18-0.27,0.36-0.4,0.56c-0.13,0.2-0.29,0.35-0.4,0.57c-0.1,0.22-0.62,0.29-0.68,0.52
				c-0.07,0.23,0.4,0.58,0.37,0.82c-0.03,0.24-0.58,0.44-0.58,0.69c0,0.25,0.35,0.48,0.39,0.71c0.03,0.24-0.04,0.5,0.03,0.73
				c0.07,0.23,0.5,0.31,0.6,0.53c0.1,0.22,0.06,0.48,0.19,0.68c0.13,0.2,0.01,0.6,0.17,0.78c0.16,0.18,0.56,0.12,0.74,0.28
				c0.18,0.16,0.36,0.29,0.56,0.42c0.2,0.13,0.43,0.17,0.65,0.27c0.22,0.1,0.4,0.23,0.63,0.3c0.23,0.07,0.4,0.43,0.64,0.46
				C65,59.49,65.26,59.44,65.51,59.44z"/>
		</g>
		<g>
			<path class="st0" d="M42.49,65.65c0.11-0.25,0.16-0.57,0.23-0.74c0.12-0.33,0.33-0.48,0.35-0.62c0.03-0.2-0.22-0.37-0.1-0.7
				c0.06-0.15,0.2-0.33,0.34-0.6c0.11-0.21-0.02-0.56,0.1-0.76c0.12-0.21,0.52-0.24,0.65-0.43c0.14-0.2,0.08-0.55,0.23-0.73
				c0.15-0.18,0.34-0.36,0.51-0.52c0.17-0.17,0.69,0.07,0.87-0.06c0.19-0.14,0.24-0.47,0.44-0.58c0.21-0.11,0.56-0.23,0.77-0.29
				c-0.25-0.07-0.55-0.28-0.76-0.37c-0.24-0.1-0.56,0.01-0.77-0.11c-0.22-0.13-0.58-0.12-0.76-0.28c-0.19-0.17-0.32-0.45-0.46-0.65
				c-0.15-0.2,0.14-0.65,0.03-0.87c-0.11-0.22-0.61-0.27-0.68-0.52c-0.07-0.23,0.03-0.51-0.01-0.77c-0.04-0.23-0.13-0.48-0.14-0.73
				c-0.02-0.24,0.36-0.49,0.36-0.75c0-0.25,0.03-0.46,0.06-0.7c0.03-0.24-0.1-0.49-0.05-0.73c0.05-0.24-0.36-0.62-0.29-0.85
				c0.07-0.23,0.25-0.46,0.35-0.69c0.09-0.23,0.2-0.47,0.31-0.69c0.11-0.22,0.64-0.21,0.76-0.42c0.13-0.21-0.05-0.63,0.09-0.83
				c0.15-0.2,0.51-0.24,0.66-0.43c0.16-0.19,0.25-0.45,0.42-0.62c0.18-0.18,0.21-0.52,0.4-0.68c0.19-0.17,0.51-0.18,0.71-0.32
				c0.21-0.15,0.39-0.34,0.6-0.45c0.23-0.12,0.26-0.23,0.48-0.31c-0.09-0.22-0.06-0.26-0.17-0.47c-0.11-0.21-0.1-0.48-0.23-0.68
				c-0.12-0.2-0.32-0.35-0.46-0.55c-0.14-0.19-0.27-0.39-0.42-0.57c-0.16-0.18-0.23-0.45-0.4-0.61c-0.17-0.16-0.22-0.5-0.41-0.65
				c-0.19-0.15-0.44-0.26-0.64-0.39c-0.2-0.12-0.45-0.23-0.67-0.32c-0.22-0.1-0.55,0.09-0.78,0.02c-0.23-0.07-0.48,0.07-0.72,0.04
				c-0.23-0.03-0.43-0.09-0.68-0.09c-0.24,0-0.48-0.17-0.72-0.13c-0.24,0.04-0.46,0.14-0.69,0.21c-0.23,0.07-0.45,0.15-0.67,0.25
				c-0.22,0.1-0.3,0.42-0.51,0.54c-0.21,0.12-0.47,0.12-0.67,0.26c-0.19,0.14-0.53,0.11-0.71,0.27c-0.18,0.16-0.55,0.16-0.71,0.34
				c-0.16,0.18-0.3,0.42-0.44,0.61c-0.15,0.19,0.06,0.65-0.07,0.85c-0.13,0.2-0.17,0.45-0.28,0.66c-0.12,0.22-0.4,0.3-0.5,0.52
				c0.23,0.07,0.54-0.08,0.77,0.03c0.22,0.1,0.38,0.38,0.59,0.51c0.2,0.13,0.49,0.19,0.69,0.35c0.19,0.15,0.06,0.68,0.24,0.85
				c0.18,0.17,0.58,0.12,0.74,0.31c0.16,0.19,0.27,0.43,0.42,0.62c0.15,0.2,0.55,0.24,0.68,0.45c0.13,0.21,0.16,0.51,0.28,0.72
				c0.12,0.22,0.21,0.47,0.31,0.7c0.1,0.23,0.33,0.44,0.4,0.68c0.07,0.24,0.03,0.54,0.07,0.78c0.04,0.25,0.03,0.53,0.03,0.77
				c0,0.24-0.24,0.47-0.25,0.7c0,0.24,0.18,0.48,0.17,0.71c-0.01,0.24-0.44,0.44-0.46,0.67c-0.02,0.24,0.27,0.5,0.24,0.72
				c-0.04,0.24-0.04,0.48-0.1,0.7c-0.06,0.23-0.44,0.33-0.53,0.54c-0.09,0.22,0.14,0.6,0.01,0.79c-0.13,0.19-0.31,0.39-0.48,0.54
				c-0.17,0.15-0.48,0.1-0.7,0.22c-0.2,0.1-0.29,0.26-0.53,0.32c0.27,0.08,0.51,0.02,0.7,0.13c0.22,0.13,0.07,0.66,0.23,0.84
				c0.15,0.17,0.34,0.28,0.49,0.5c0.13,0.19,0.33,0.34,0.48,0.56c0.13,0.19,0.4,0.3,0.56,0.51c0.17,0.22,0.32,0.41,0.44,0.59
				c0.16,0.24,0.17,0.49,0.24,0.68c0.09,0.25,0.55,0.43,0.55,0.67c0,0.22-0.49,0.44-0.51,0.72C42.38,65.03,42.49,65.37,42.49,65.65z
				"/>
			<path class="st0" d="M42.49,65.65c0.11-0.25,0.16-0.57,0.23-0.74c0.12-0.33,0.33-0.48,0.35-0.62c0.03-0.2-0.22-0.37-0.1-0.7
				c0.06-0.15,0.2-0.33,0.34-0.6c0.11-0.21-0.02-0.56,0.1-0.76c0.12-0.21,0.52-0.24,0.65-0.43c0.14-0.2,0.08-0.55,0.23-0.73
				c0.15-0.18,0.34-0.36,0.51-0.52c0.17-0.17,0.69,0.07,0.87-0.06c0.19-0.14,0.24-0.47,0.44-0.58c0.21-0.11,0.56-0.23,0.77-0.29
				c-0.25-0.07-0.55-0.28-0.76-0.37c-0.24-0.1-0.56,0.01-0.77-0.11c-0.22-0.13-0.58-0.12-0.76-0.28c-0.19-0.17-0.32-0.45-0.46-0.65
				c-0.15-0.2,0.14-0.65,0.03-0.87c-0.11-0.22-0.61-0.27-0.68-0.52c-0.07-0.23,0.03-0.51-0.01-0.77c-0.04-0.23-0.13-0.48-0.14-0.73
				c-0.02-0.24,0.36-0.49,0.36-0.75c0-0.25,0.03-0.46,0.06-0.7c0.03-0.24-0.1-0.49-0.05-0.73c0.05-0.24-0.36-0.62-0.29-0.85
				c0.07-0.23,0.25-0.46,0.35-0.69c0.09-0.23,0.2-0.47,0.31-0.69c0.11-0.22,0.64-0.21,0.76-0.42c0.13-0.21-0.05-0.63,0.09-0.83
				c0.15-0.2,0.51-0.24,0.66-0.43c0.16-0.19,0.25-0.45,0.42-0.62c0.18-0.18,0.21-0.52,0.4-0.68c0.19-0.17,0.51-0.18,0.71-0.32
				c0.21-0.15,0.39-0.34,0.6-0.45c0.23-0.12,0.26-0.23,0.48-0.31c-0.09-0.22-0.06-0.26-0.17-0.47c-0.11-0.21-0.1-0.48-0.23-0.68
				c-0.12-0.2-0.32-0.35-0.46-0.55c-0.14-0.19-0.27-0.39-0.42-0.57c-0.16-0.18-0.23-0.45-0.4-0.61c-0.17-0.16-0.22-0.5-0.41-0.65
				c-0.19-0.15-0.44-0.26-0.64-0.39c-0.2-0.12-0.45-0.23-0.67-0.32c-0.22-0.1-0.55,0.09-0.78,0.02c-0.23-0.07-0.48,0.07-0.72,0.04
				c-0.23-0.03-0.43-0.09-0.68-0.09c-0.24,0-0.48-0.17-0.72-0.13c-0.24,0.04-0.46,0.14-0.69,0.21c-0.23,0.07-0.45,0.15-0.67,0.25
				c-0.22,0.1-0.3,0.42-0.51,0.54c-0.21,0.12-0.47,0.12-0.67,0.26c-0.19,0.14-0.53,0.11-0.71,0.27c-0.18,0.16-0.55,0.16-0.71,0.34
				c-0.16,0.18-0.3,0.42-0.44,0.61c-0.15,0.19,0.06,0.65-0.07,0.85c-0.13,0.2-0.17,0.45-0.28,0.66c-0.12,0.22-0.4,0.3-0.5,0.52
				c0.23,0.07,0.54-0.08,0.77,0.03c0.22,0.1,0.38,0.38,0.59,0.51c0.2,0.13,0.49,0.19,0.69,0.35c0.19,0.15,0.06,0.68,0.24,0.85
				c0.18,0.17,0.58,0.12,0.74,0.31c0.16,0.19,0.27,0.43,0.42,0.62c0.15,0.2,0.55,0.24,0.68,0.45c0.13,0.21,0.16,0.51,0.28,0.72
				c0.12,0.22,0.21,0.47,0.31,0.7c0.1,0.23,0.33,0.44,0.4,0.68c0.07,0.24,0.03,0.54,0.07,0.78c0.04,0.25,0.03,0.53,0.03,0.77
				c0,0.24-0.24,0.47-0.25,0.7c0,0.24,0.18,0.48,0.17,0.71c-0.01,0.24-0.44,0.44-0.46,0.67c-0.02,0.24,0.27,0.5,0.24,0.72
				c-0.04,0.24-0.04,0.48-0.1,0.7c-0.06,0.23-0.44,0.33-0.53,0.54c-0.09,0.22,0.14,0.6,0.01,0.79c-0.13,0.19-0.31,0.39-0.48,0.54
				c-0.17,0.15-0.48,0.1-0.7,0.22c-0.2,0.1-0.29,0.26-0.53,0.32c0.27,0.08,0.51,0.02,0.7,0.13c0.22,0.13,0.07,0.66,0.23,0.84
				c0.15,0.17,0.34,0.28,0.49,0.5c0.13,0.19,0.33,0.34,0.48,0.56c0.13,0.19,0.4,0.3,0.56,0.51c0.17,0.22,0.32,0.41,0.44,0.59
				c0.16,0.24,0.17,0.49,0.24,0.68c0.09,0.25,0.55,0.43,0.55,0.67c0,0.22-0.49,0.44-0.51,0.72C42.38,65.03,42.49,65.37,42.49,65.65z
				"/>
		</g>
		<g>
			<path class="st0" d="M57.7,65.65c0.11-0.25,0.16-0.57,0.23-0.74c0.12-0.33,0.33-0.48,0.35-0.62c0.03-0.2-0.22-0.37-0.1-0.7
				c0.06-0.15,0.2-0.33,0.34-0.6c0.11-0.21-0.02-0.56,0.1-0.76c0.12-0.21,0.52-0.24,0.65-0.43c0.14-0.2,0.08-0.55,0.23-0.73
				c0.15-0.18,0.34-0.36,0.51-0.52c0.17-0.17,0.69,0.07,0.87-0.06c0.19-0.14,0.24-0.47,0.44-0.58c0.21-0.11,0.56-0.23,0.77-0.29
				c-0.25-0.07-0.55-0.28-0.76-0.37c-0.24-0.1-0.56,0.01-0.77-0.11c-0.22-0.13-0.58-0.12-0.76-0.28c-0.19-0.17-0.32-0.45-0.46-0.65
				c-0.15-0.2,0.14-0.65,0.03-0.87c-0.11-0.22-0.61-0.27-0.68-0.52c-0.07-0.23,0.03-0.51-0.01-0.77c-0.04-0.23-0.13-0.48-0.14-0.73
				c-0.02-0.24,0.36-0.49,0.36-0.75c0-0.25,0.03-0.46,0.06-0.7c0.03-0.24-0.1-0.49-0.05-0.73c0.05-0.24-0.36-0.62-0.29-0.85
				c0.07-0.23,0.25-0.46,0.35-0.69c0.09-0.23,0.2-0.47,0.31-0.69c0.11-0.22,0.64-0.21,0.76-0.42c0.13-0.21-0.05-0.63,0.09-0.83
				c0.15-0.2,0.51-0.24,0.66-0.43c0.16-0.19,0.25-0.45,0.42-0.62c0.18-0.18,0.21-0.52,0.4-0.68c0.19-0.17,0.51-0.18,0.71-0.32
				c0.21-0.15,0.39-0.34,0.6-0.45c0.23-0.12,0.26-0.23,0.48-0.31c-0.09-0.22-0.06-0.26-0.17-0.47c-0.11-0.21-0.1-0.48-0.23-0.68
				c-0.12-0.2-0.32-0.35-0.46-0.55c-0.14-0.19-0.27-0.39-0.42-0.57c-0.16-0.18-0.23-0.45-0.4-0.61c-0.17-0.16-0.22-0.5-0.41-0.65
				c-0.19-0.15-0.44-0.26-0.64-0.39c-0.2-0.12-0.45-0.23-0.67-0.32c-0.22-0.1-0.55,0.09-0.78,0.02c-0.23-0.07-0.48,0.07-0.72,0.04
				c-0.23-0.03-0.43-0.09-0.68-0.09c-0.24,0-0.48-0.17-0.72-0.13c-0.24,0.04-0.46,0.14-0.69,0.21c-0.23,0.07-0.45,0.15-0.67,0.25
				c-0.22,0.1-0.3,0.42-0.51,0.54c-0.21,0.12-0.47,0.12-0.67,0.26c-0.19,0.14-0.53,0.11-0.71,0.27c-0.18,0.16-0.55,0.16-0.71,0.34
				c-0.16,0.18-0.3,0.42-0.44,0.61c-0.15,0.19,0.06,0.65-0.07,0.85c-0.13,0.2-0.17,0.45-0.28,0.66c-0.12,0.22-0.4,0.3-0.5,0.52
				c0.23,0.07,0.52-0.1,0.75-0.02c0.23,0.08,0.41,0.32,0.64,0.42c0.22,0.1,0.51,0.1,0.73,0.22c0.21,0.12,0.16,0.65,0.36,0.79
				c0.2,0.14,0.58,0.04,0.77,0.2c0.18,0.16,0.3,0.39,0.46,0.58c0.15,0.18,0.56,0.22,0.69,0.43c0.13,0.2,0.15,0.5,0.26,0.73
				c0.1,0.21,0.18,0.47,0.26,0.71c0.08,0.22,0.29,0.44,0.35,0.69c0.05,0.23-0.01,0.51,0.03,0.76c0.03,0.23,0.02,0.5,0.04,0.75
				c0.02,0.24-0.22,0.49-0.22,0.75c0,0.26,0.19,0.52,0.18,0.77c-0.01,0.26-0.43,0.49-0.45,0.74c-0.02,0.26,0.28,0.53,0.24,0.78
				c-0.03,0.26-0.04,0.52-0.1,0.76c-0.06,0.25-0.45,0.38-0.54,0.61c-0.1,0.24,0.13,0.63-0.01,0.84c-0.14,0.21-0.33,0.42-0.52,0.59
				c-0.18,0.16-0.51,0.13-0.75,0.25c-0.21,0.11-0.33,0.28-0.59,0.35c0.27,0.08,0.51,0.01,0.7,0.12c0.22,0.13,0.07,0.66,0.23,0.84
				c0.15,0.17,0.34,0.28,0.49,0.5c0.13,0.19,0.33,0.34,0.48,0.56c0.13,0.19,0.4,0.3,0.56,0.51c0.17,0.22,0.32,0.41,0.44,0.59
				c0.16,0.24,0.17,0.49,0.24,0.68c0.09,0.25,0.55,0.43,0.55,0.67c0,0.22-0.49,0.44-0.51,0.72C57.59,65.03,57.7,65.37,57.7,65.65z"
				/>
			<path class="st0" d="M57.7,65.65c0.11-0.25,0.16-0.57,0.23-0.74c0.12-0.33,0.33-0.48,0.35-0.62c0.03-0.2-0.22-0.37-0.1-0.7
				c0.06-0.15,0.2-0.33,0.34-0.6c0.11-0.21-0.02-0.56,0.1-0.76c0.12-0.21,0.52-0.24,0.65-0.43c0.14-0.2,0.08-0.55,0.23-0.73
				c0.15-0.18,0.34-0.36,0.51-0.52c0.17-0.17,0.69,0.07,0.87-0.06c0.19-0.14,0.24-0.47,0.44-0.58c0.21-0.11,0.56-0.23,0.77-0.29
				c-0.25-0.07-0.55-0.28-0.76-0.37c-0.24-0.1-0.56,0.01-0.77-0.11c-0.22-0.13-0.58-0.12-0.76-0.28c-0.19-0.17-0.32-0.45-0.46-0.65
				c-0.15-0.2,0.14-0.65,0.03-0.87c-0.11-0.22-0.61-0.27-0.68-0.52c-0.07-0.23,0.03-0.51-0.01-0.77c-0.04-0.23-0.13-0.48-0.14-0.73
				c-0.02-0.24,0.36-0.49,0.36-0.75c0-0.25,0.03-0.46,0.06-0.7c0.03-0.24-0.1-0.49-0.05-0.73c0.05-0.24-0.36-0.62-0.29-0.85
				c0.07-0.23,0.25-0.46,0.35-0.69c0.09-0.23,0.2-0.47,0.31-0.69c0.11-0.22,0.64-0.21,0.76-0.42c0.13-0.21-0.05-0.63,0.09-0.83
				c0.15-0.2,0.51-0.24,0.66-0.43c0.16-0.19,0.25-0.45,0.42-0.62c0.18-0.18,0.21-0.52,0.4-0.68c0.19-0.17,0.51-0.18,0.71-0.32
				c0.21-0.15,0.39-0.34,0.6-0.45c0.23-0.12,0.26-0.23,0.48-0.31c-0.09-0.22-0.06-0.26-0.17-0.47c-0.11-0.21-0.1-0.48-0.23-0.68
				c-0.12-0.2-0.32-0.35-0.46-0.55c-0.14-0.19-0.27-0.39-0.42-0.57c-0.16-0.18-0.23-0.45-0.4-0.61c-0.17-0.16-0.22-0.5-0.41-0.65
				c-0.19-0.15-0.44-0.26-0.64-0.39c-0.2-0.12-0.45-0.23-0.67-0.32c-0.22-0.1-0.55,0.09-0.78,0.02c-0.23-0.07-0.48,0.07-0.72,0.04
				c-0.23-0.03-0.43-0.09-0.68-0.09c-0.24,0-0.48-0.17-0.72-0.13c-0.24,0.04-0.46,0.14-0.69,0.21c-0.23,0.07-0.45,0.15-0.67,0.25
				c-0.22,0.1-0.3,0.42-0.51,0.54c-0.21,0.12-0.47,0.12-0.67,0.26c-0.19,0.14-0.53,0.11-0.71,0.27c-0.18,0.16-0.55,0.16-0.71,0.34
				c-0.16,0.18-0.3,0.42-0.44,0.61c-0.15,0.19,0.06,0.65-0.07,0.85c-0.13,0.2-0.17,0.45-0.28,0.66c-0.12,0.22-0.4,0.3-0.5,0.52
				c0.23,0.07,0.52-0.1,0.75-0.02c0.23,0.08,0.41,0.32,0.64,0.42c0.22,0.1,0.51,0.1,0.73,0.22c0.21,0.12,0.16,0.65,0.36,0.79
				c0.2,0.14,0.58,0.04,0.77,0.2c0.18,0.16,0.3,0.39,0.46,0.58c0.15,0.18,0.56,0.22,0.69,0.43c0.13,0.2,0.15,0.5,0.26,0.73
				c0.1,0.21,0.18,0.47,0.26,0.71c0.08,0.22,0.29,0.44,0.35,0.69c0.05,0.23-0.01,0.51,0.03,0.76c0.03,0.23,0.02,0.5,0.04,0.75
				c0.02,0.24-0.22,0.49-0.22,0.75c0,0.26,0.19,0.52,0.18,0.77c-0.01,0.26-0.43,0.49-0.45,0.74c-0.02,0.26,0.28,0.53,0.24,0.78
				c-0.03,0.26-0.04,0.52-0.1,0.76c-0.06,0.25-0.45,0.38-0.54,0.61c-0.1,0.24,0.13,0.63-0.01,0.84c-0.14,0.21-0.33,0.42-0.52,0.59
				c-0.18,0.16-0.51,0.13-0.75,0.25c-0.21,0.11-0.33,0.28-0.59,0.35c0.27,0.08,0.51,0.01,0.7,0.12c0.22,0.13,0.07,0.66,0.23,0.84
				c0.15,0.17,0.34,0.28,0.49,0.5c0.13,0.19,0.33,0.34,0.48,0.56c0.13,0.19,0.4,0.3,0.56,0.51c0.17,0.22,0.32,0.41,0.44,0.59
				c0.16,0.24,0.17,0.49,0.24,0.68c0.09,0.25,0.55,0.43,0.55,0.67c0,0.22-0.49,0.44-0.51,0.72C57.59,65.03,57.7,65.37,57.7,65.65z"
				/>
		</g>
		<g>
			<path class="st0" d="M65.51,60.45c-0.24,0-0.49-0.18-0.72-0.14c-0.23,0.03-0.45,0.21-0.67,0.28c-0.22,0.07-0.28,0.52-0.49,0.61
				c-0.21,0.09-0.42,0.12-0.62,0.24c-0.2,0.12-0.62-0.1-0.8,0.05c-0.18,0.14-0.14,0.55-0.32,0.7c-0.17,0.16-0.27,0.36-0.42,0.53
				c-0.16,0.17-0.68,0.04-0.82,0.22c-0.14,0.18,0.09,0.63-0.04,0.83c-0.13,0.2-0.41,0.29-0.52,0.49c-0.11,0.21-0.21,0.41-0.31,0.62
				c-0.1,0.21-0.36,0.37-0.43,0.58c-0.08,0.22-0.19,0.45-0.25,0.67c-0.06,0.23-0.21,0.47-0.24,0.69c-0.03,0.24,0.09,0.51,0.09,0.73
				c0,0.23,0.45,0.45,0.45,0.68c0,0.23-0.26,0.46-0.26,0.68c0,0.23,0.02,0.46,0.02,0.68c0,0.23,0.14,0.46,0.14,0.68
				c0,0.24,0.07,0.46,0.07,0.68c0,0.24-0.09,0.47-0.09,0.68c0,0.26-0.4,0.48-0.4,0.68c0,0.42-0.03,0.33,0.28,0.44
				c0.33,0.12,0.27,0.1,0.63,0.1c0.35,0,0.35,0.42,0.71,0.42c0.36,0,0.36-0.57,0.71-0.57c0.36,0,0.36,0.04,0.71,0.04
				c0.36,0,0.36,0.51,0.71,0.51c0.36,0,0.36-0.06,0.71-0.06c0.36,0,0.36-0.41,0.71-0.41c0.36,0,0.36,0.32,0.72,0.32
				c0.36,0,0.36,0.2,0.71,0.2c0.36,0,0.36-0.24,0.71-0.24c0.36,0,0.36,0.23,0.72,0.23c0.36,0,0.36-0.53,0.71-0.53
				c0.36,0,0.36,0.4,0.71,0.4c0.36,0,0.36-0.01,0.71-0.01c0.36,0,0.36,0.13,0.72,0.13c0.36,0,0.36-0.35,0.72-0.35
				c0.36,0,0.36,0.35,0.72,0.35c0.36,0,0.33-0.3,0.67-0.42c0.32-0.11-0.07-0.12-0.07-0.54c0-0.19,0.08-0.42,0.08-0.68
				c0-0.21-0.22-0.43-0.22-0.67c0-0.21,0.47-0.44,0.47-0.68c0-0.22-0.15-0.44-0.15-0.68c0-0.22-0.32-0.44-0.32-0.67
				c0-0.22,0.05-0.45,0.05-0.68c0-0.23,0.32-0.46,0.32-0.69c0-0.22,0.17-0.5,0.13-0.74c-0.03-0.22-0.47-0.38-0.53-0.61
				c-0.06-0.22-0.25-0.38-0.34-0.61c-0.08-0.21,0.32-0.63,0.22-0.84c-0.09-0.21-0.29-0.39-0.4-0.6c-0.11-0.2-0.6-0.18-0.73-0.37
				c-0.13-0.19-0.29-0.33-0.44-0.52c-0.14-0.18-0.11-0.49-0.27-0.67c-0.16-0.17-0.11-0.56-0.28-0.72c-0.17-0.16-0.46-0.2-0.64-0.34
				c-0.19-0.14-0.47-0.13-0.67-0.25c-0.2-0.12-0.22-0.61-0.43-0.71c-0.21-0.1-0.64,0.37-0.86,0.31c-0.22-0.07-0.34-0.59-0.57-0.62
				C66.01,60.23,65.74,60.45,65.51,60.45z"/>
			<path class="st0" d="M65.51,60.45c-0.24,0-0.49-0.18-0.72-0.14c-0.23,0.03-0.45,0.21-0.67,0.28c-0.22,0.07-0.28,0.52-0.49,0.61
				c-0.21,0.09-0.42,0.12-0.62,0.24c-0.2,0.12-0.62-0.1-0.8,0.05c-0.18,0.14-0.14,0.55-0.32,0.7c-0.17,0.16-0.27,0.36-0.42,0.53
				c-0.16,0.17-0.68,0.04-0.82,0.22c-0.14,0.18,0.09,0.63-0.04,0.83c-0.13,0.2-0.41,0.29-0.52,0.49c-0.11,0.21-0.21,0.41-0.31,0.62
				c-0.1,0.21-0.36,0.37-0.43,0.58c-0.08,0.22-0.19,0.45-0.25,0.67c-0.06,0.23-0.21,0.47-0.24,0.69c-0.03,0.24,0.09,0.51,0.09,0.73
				c0,0.23,0.45,0.45,0.45,0.68c0,0.23-0.26,0.46-0.26,0.68c0,0.23,0.02,0.46,0.02,0.68c0,0.23,0.14,0.46,0.14,0.68
				c0,0.24,0.07,0.46,0.07,0.68c0,0.24-0.09,0.47-0.09,0.68c0,0.26-0.4,0.48-0.4,0.68c0,0.42-0.03,0.33,0.28,0.44
				c0.33,0.12,0.27,0.1,0.63,0.1c0.35,0,0.35,0.42,0.71,0.42c0.36,0,0.36-0.57,0.71-0.57c0.36,0,0.36,0.04,0.71,0.04
				c0.36,0,0.36,0.51,0.71,0.51c0.36,0,0.36-0.06,0.71-0.06c0.36,0,0.36-0.41,0.71-0.41c0.36,0,0.36,0.32,0.72,0.32
				c0.36,0,0.36,0.2,0.71,0.2c0.36,0,0.36-0.24,0.71-0.24c0.36,0,0.36,0.23,0.72,0.23c0.36,0,0.36-0.53,0.71-0.53
				c0.36,0,0.36,0.4,0.71,0.4c0.36,0,0.36-0.01,0.71-0.01c0.36,0,0.36,0.13,0.72,0.13c0.36,0,0.36-0.35,0.72-0.35
				c0.36,0,0.36,0.35,0.72,0.35c0.36,0,0.33-0.3,0.67-0.42c0.32-0.11-0.07-0.12-0.07-0.54c0-0.19,0.08-0.42,0.08-0.68
				c0-0.21-0.22-0.43-0.22-0.67c0-0.21,0.47-0.44,0.47-0.68c0-0.22-0.15-0.44-0.15-0.68c0-0.22-0.32-0.44-0.32-0.67
				c0-0.22,0.05-0.45,0.05-0.68c0-0.23,0.32-0.46,0.32-0.69c0-0.22,0.17-0.5,0.13-0.74c-0.03-0.22-0.47-0.38-0.53-0.61
				c-0.06-0.22-0.25-0.38-0.34-0.61c-0.08-0.21,0.32-0.63,0.22-0.84c-0.09-0.21-0.29-0.39-0.4-0.6c-0.11-0.2-0.6-0.18-0.73-0.37
				c-0.13-0.19-0.29-0.33-0.44-0.52c-0.14-0.18-0.11-0.49-0.27-0.67c-0.16-0.17-0.11-0.56-0.28-0.72c-0.17-0.16-0.46-0.2-0.64-0.34
				c-0.19-0.14-0.47-0.13-0.67-0.25c-0.2-0.12-0.22-0.61-0.43-0.71c-0.21-0.1-0.64,0.37-0.86,0.31c-0.22-0.07-0.34-0.59-0.57-0.62
				C66.01,60.23,65.74,60.45,65.51,60.45z"/>
		</g>
	</g>
</g>
</svg>
