<?xml version="1.0" encoding="utf-8"?>
<!-- Generator: Adobe Illustrator 22.1.0, SVG Export Plug-In . SVG Version: 6.00 Build 0)  -->
<!DOCTYPE svg PUBLIC "-//W3C//DTD SVG 1.1//EN" "http://www.w3.org/Graphics/SVG/1.1/DTD/svg11.dtd">
<svg version="1.1" id="レイヤー_1" xmlns="http://www.w3.org/2000/svg" xmlns:xlink="http://www.w3.org/1999/xlink" x="0px"
	 y="0px" viewBox="0 0 150 140" style="enable-background:new 0 0 150 140;" xml:space="preserve">
<style type="text/css">
	.st0{fill:#3B8182;}
</style>
<g>
	<g>
		<g>
			<g>
				<path class="st0" d="M58.5,35.5c-0.3,0-0.6-0.1-0.9-0.2c-0.5-0.2-0.8-0.7-1-1.3c-0.3-0.9-0.2-2,1.5-2.8l1.3-0.6
					c-0.2-0.6-0.5-0.6-0.7-0.6c-0.1,0-0.2,0-0.3,0c-0.6,0.2-1,0.5-1.4,1.1c-0.1,0.1-0.2,0.2-0.4,0.2c-0.1,0-0.3-0.1-0.3-0.3
					l-0.3-0.9c0-0.1,0-0.3,0.1-0.4c0.5-0.6,1.1-1,1.9-1.2c0.3-0.1,0.6-0.1,0.9-0.1c0.7,0,1.7,0.3,2.1,1.9l1.1,3.6
					c0.1,0.2-0.1,0.4-0.3,0.5L61,34.8c-0.1,0-0.2,0-0.3,0c-0.1,0-0.1-0.1-0.2-0.2c-0.3,0.4-0.7,0.7-1.2,0.8
					C59.1,35.5,58.8,35.5,58.5,35.5z M59.9,32.1L59,32.5c-0.3,0.2-0.6,0.3-0.7,0.5c-0.1,0.1-0.1,0.3,0,0.5c0,0.2,0.1,0.3,0.3,0.3
					c0.1,0,0.2,0.1,0.3,0.1c0,0,0,0,0,0c0.1,0,0.2,0,0.3,0c0.3-0.1,0.6-0.3,0.7-0.6c0.2-0.3,0.2-0.6,0.1-1L59.9,32.1z"/>
			</g>
			<g>
				<path class="st0" d="M65,34c-0.7,0-1.5-0.3-1.8-1.8l-0.5-3l-0.6,0.1c-0.1,0-0.2,0-0.3-0.1c-0.1-0.1-0.1-0.1-0.2-0.2l-0.1-0.8
					c0-0.1,0-0.2,0.1-0.3c0.1-0.1,0.1-0.1,0.2-0.2l0.6-0.1l-0.2-1c0-0.2,0.1-0.3,0.2-0.4l0.9-0.5c0.1-0.1,0.2-0.1,0.3,0
					c0.1,0.1,0.2,0.2,0.2,0.3l0.2,1.3l1.1-0.2c0.2,0,0.4,0.1,0.4,0.3l0.1,0.8c0,0.1,0,0.2-0.1,0.3c-0.1,0.1-0.1,0.1-0.2,0.2L64.3,29
					l0.5,2.8c0.1,0.4,0.2,0.5,0.2,0.6c0,0,0.1,0.1,0.4,0c0.1,0,0.3-0.1,0.4-0.2c0.1-0.1,0.3-0.1,0.4-0.1c0.1,0,0.2,0.2,0.3,0.3
					l0.1,0.8c0,0.1,0,0.3-0.1,0.4c-0.2,0.2-0.6,0.3-1,0.4C65.2,34,65.1,34,65,34z"/>
			</g>
			<g>
				<path class="st0" d="M67.5,33.6c-0.1,0-0.2,0-0.2-0.1c-0.1-0.1-0.1-0.2-0.1-0.3l-0.5-5.8c0-0.2,0.1-0.4,0.3-0.4l0.9-0.1
					c0.1,0,0.2,0,0.3,0.1c0.1,0.1,0.1,0.2,0.1,0.3l0.5,5.8c0,0.2-0.1,0.4-0.3,0.4L67.5,33.6C67.5,33.6,67.5,33.6,67.5,33.6z
					 M67.3,26.4c-0.2,0-0.4-0.1-0.6-0.2c-0.2-0.2-0.3-0.4-0.3-0.7c0-0.3,0.1-0.5,0.2-0.7c0.2-0.2,0.4-0.3,0.7-0.3c0,0,0,0,0,0
					c0.3,0,0.5,0.1,0.7,0.2c0.2,0.2,0.3,0.4,0.3,0.7c0,0.3-0.1,0.5-0.2,0.7C67.9,26.2,67.6,26.4,67.3,26.4
					C67.4,26.4,67.3,26.4,67.3,26.4z"/>
			</g>
			<g>
				<path class="st0" d="M72.8,33.6l-0.2,0c-1,0-1.7-0.4-2.3-1c-0.6-0.6-0.8-1.5-0.8-2.4c0-1.1,0.4-1.9,1-2.5
					c0.6-0.6,1.4-0.8,2.3-0.8l0.2,0c1,0,1.7,0.4,2.3,1c0.5,0.6,0.8,1.5,0.7,2.5c0,1-0.4,1.8-1,2.4C74.5,33.3,73.7,33.6,72.8,33.6z
					 M72.8,28.4c-0.4,0-0.8,0.1-1.1,0.4c-0.3,0.3-0.5,0.8-0.5,1.4c0,0.6,0.1,1,0.4,1.4c0.3,0.3,0.6,0.5,1.1,0.5c0,0,0,0,0,0
					c0.5,0,0.9-0.1,1.1-0.4c0.3-0.3,0.4-0.8,0.4-1.4c0-0.6-0.1-1.1-0.3-1.4C73.7,28.5,73.4,28.4,72.8,28.4L72.8,28.4z"/>
			</g>
			<g>
				<path class="st0" d="M81.6,34.8C81.5,34.8,81.5,34.8,81.6,34.8l-1-0.2c-0.1,0-0.2-0.1-0.2-0.2c-0.1-0.1-0.1-0.2-0.1-0.3l0.7-3.2
					c0.3-1.4-0.4-1.6-0.6-1.6c-0.3-0.1-0.6,0-0.9,0.2c-0.3,0.2-0.5,0.5-0.6,1l-0.7,3.2c0,0.2-0.2,0.3-0.5,0.3l-0.9-0.2
					c-0.1,0-0.2-0.1-0.2-0.2c-0.1-0.1-0.1-0.2-0.1-0.3l1.2-5.7c0-0.2,0.2-0.3,0.5-0.3l0.9,0.2c0.1,0,0.2,0.1,0.2,0.2
					c0.1,0.1,0.1,0.2,0.1,0.3c0.5-0.2,1-0.3,1.6-0.2c0.7,0.2,1.3,0.5,1.6,1.1c0.3,0.5,0.3,1.2,0.2,2.1l-0.7,3.5
					C81.9,34.7,81.7,34.8,81.6,34.8z"/>
			</g>
			<g>
				<path class="st0" d="M87,36.7c0,0-0.1,0-0.1,0L86,36.4c-0.1,0-0.2-0.1-0.2-0.2c0-0.1,0-0.1,0-0.2c-0.5,0.1-1,0.1-1.5-0.1
					c-0.6-0.2-1.1-0.6-1.3-1.1c-0.2-0.5-0.3-1,0-1.6c0.5-1.2,1.5-1.6,2.9-1.3l1.4,0.3c0.2-0.6-0.1-0.9-0.5-1c-0.6-0.2-1.1-0.2-1.7,0
					c-0.1,0.1-0.3,0-0.4-0.1c-0.1-0.1-0.1-0.3-0.1-0.4l0.3-0.9c0-0.1,0.2-0.2,0.3-0.2c0.7-0.2,1.5-0.1,2.2,0.2
					c1.5,0.5,1.9,1.7,1.4,3.2l-1.3,3.5C87.3,36.6,87.2,36.7,87,36.7z M85.2,33.3c-0.1,0-0.2,0-0.3,0c-0.1,0-0.2,0.2-0.3,0.4
					c-0.1,0.2-0.1,0.3,0,0.4c0.1,0.2,0.2,0.3,0.5,0.4c0.1,0.1,0.3,0.1,0.4,0.1l0,0c0.2,0,0.3,0,0.5-0.1c0.3-0.2,0.5-0.4,0.7-0.8
					l0-0.1l-0.9-0.2C85.5,33.3,85.3,33.3,85.2,33.3z"/>
			</g>
			<g>
				<path class="st0" d="M89.4,38c-0.1,0-0.1,0-0.2,0l-0.8-0.4c-0.1,0-0.2-0.1-0.2-0.2c0-0.1,0-0.2,0-0.3l3.9-7.6
					c0.1-0.2,0.3-0.3,0.5-0.2l0.8,0.4c0.1,0,0.2,0.1,0.2,0.2c0,0.1,0,0.2,0,0.3l-3.9,7.6C89.7,37.9,89.5,38,89.4,38z"/>
			</g>
			<g>
				<g>
					<path class="st0" d="M48.7,40.2c0,0-0.1,0-0.1,0c-0.1,0-0.2-0.1-0.2-0.2l-4.3-7.9c-0.1-0.2,0-0.4,0.2-0.5l0.2-0.1
						c0.1,0,0.2-0.1,0.3,0l8.5,2.5l-2.9-5.3c-0.1-0.2,0-0.4,0.2-0.5l0.9-0.5c0.1,0,0.2-0.1,0.3,0c0.1,0,0.2,0.1,0.2,0.2l4.3,7.9
						c0,0.1,0.1,0.2,0,0.3c0,0.1-0.1,0.2-0.2,0.2l-0.2,0.1c-0.1,0-0.2,0.1-0.3,0l-8.4-2.5l2.8,5.2c0.1,0.2,0,0.4-0.2,0.5l-0.9,0.5
						C48.8,40.2,48.8,40.2,48.7,40.2z"/>
				</g>
			</g>
		</g>
		<g>
			<g>
				<path class="st0" d="M31.7,67.2C31.6,67.2,31.6,67.2,31.7,67.2l-8.6-1.9c-0.1,0-0.2-0.1-0.2-0.2c-0.1-0.1-0.1-0.2-0.1-0.3
					l0.2-0.9c0-0.2,0.2-0.3,0.5-0.3l2.8,0.6c-0.2-0.5-0.3-1-0.2-1.6c0.3-1.5,1.4-2.1,3.2-1.7l3.5,0.8c0.2,0,0.3,0.2,0.3,0.5L32.9,63
					c0,0.1-0.1,0.2-0.2,0.2c-0.1,0.1-0.2,0.1-0.3,0.1l-3.3-0.7c-1-0.2-1.5,0-1.6,0.7c-0.1,0.3,0,0.6,0.2,0.9c0.2,0.3,0.6,0.5,1,0.6
					l3.3,0.7c0.1,0,0.2,0.1,0.2,0.2c0.1,0.1,0.1,0.2,0.1,0.3L32,66.9c0,0.1-0.1,0.2-0.2,0.2C31.8,67.1,31.7,67.2,31.7,67.2z"/>
			</g>
			<g>
				<path class="st0" d="M31.7,60.4c-0.5,0-1-0.1-1.5-0.3c-1-0.4-1.7-1-2.1-1.8c-0.4-0.8-0.3-1.7,0-2.6c0.4-0.9,1-1.5,1.7-1.8
					c0.8-0.3,1.7-0.2,2.6,0.2c1,0.4,1.6,1,2,1.8c0.4,0.8,0.4,1.7,0,2.6c-0.4,0.9-1,1.5-1.8,1.8C32.5,60.3,32.1,60.4,31.7,60.4z
					 M30.9,55.3c-0.2,0-0.3,0-0.5,0.1c-0.4,0.1-0.7,0.4-0.8,0.9c-0.2,0.5-0.2,0.9,0,1.2c0.2,0.4,0.6,0.7,1.2,1
					c0.6,0.2,1,0.3,1.5,0.1c0.4-0.1,0.7-0.4,0.9-0.9c0.2-0.5,0.2-0.9,0-1.2c-0.2-0.4-0.6-0.7-1.2-0.9C31.6,55.4,31.2,55.3,30.9,55.3
					z"/>
			</g>
			<g>
				<path class="st0" d="M36,54.5c-0.1,0-0.1,0-0.2-0.1l-5.1-2.9c-0.2-0.1-0.2-0.3-0.1-0.5l0.5-0.8c0.1-0.2,0.3-0.2,0.5-0.2
					c0,0,0,0,0,0c-0.1-0.4,0-0.8,0.2-1.2c0.1-0.3,0.3-0.4,0.4-0.6c0.1-0.1,0.3-0.1,0.4,0l0.8,0.5c0.1,0.1,0.2,0.2,0.2,0.4
					c0,0.1-0.1,0.3-0.2,0.3c-0.1,0-0.2,0.2-0.3,0.4c-0.1,0.2-0.1,0.5,0,0.8c0.2,0.3,0.5,0.7,1,1l2.6,1.5c0.1,0.1,0.2,0.1,0.2,0.2
					c0,0.1,0,0.2,0,0.3l-0.5,0.8C36.2,54.4,36.2,54.5,36,54.5C36,54.5,36,54.5,36,54.5z"/>
			</g>
			<g>
				<path class="st0" d="M37.8,50.4c-0.6,0-1.3-0.3-2-0.8L33,47.5c-0.2-0.1-0.2-0.4-0.1-0.5l0.6-0.7c0.1-0.1,0.2-0.1,0.3-0.1
					c0.1,0,0.2,0,0.3,0.1l2.7,2c0.8,0.6,1.3,0.7,1.8,0.1c0.2-0.3,0.3-0.6,0.2-0.9c-0.1-0.3-0.3-0.7-0.6-0.9l-2.7-2.1
					c-0.2-0.1-0.2-0.4-0.1-0.5l0.6-0.8c0.1-0.1,0.2-0.1,0.3-0.1c0.1,0,0.2,0,0.3,0.1l4.7,3.6c0.2,0.1,0.2,0.4,0.1,0.5l-0.6,0.8
					c-0.1,0.1-0.2,0.1-0.3,0.1c-0.1,0-0.2,0-0.2,0c0,0.5-0.2,1-0.5,1.4C39.1,50.1,38.5,50.4,37.8,50.4z"/>
			</g>
			<g>
				<path class="st0" d="M41.8,46c-0.1,0-0.2,0-0.3-0.1l-0.7-0.7c-0.1-0.1-0.1-0.3-0.1-0.4c0-0.1,0.2-0.2,0.3-0.3
					c0.6-0.1,1-0.3,1.4-0.7c0.4-0.4,0.4-0.6,0.4-0.7c0-0.1,0-0.1-0.1-0.2c-0.1-0.1-0.1-0.1-0.2-0.1c-0.1,0-0.2,0-0.3,0
					c-0.1,0-0.2,0.1-0.4,0.1l-0.5,0.2c-0.3,0.1-0.5,0.2-0.7,0.3c-0.2,0.1-0.5,0.1-0.7,0.1c-0.2,0-0.5-0.1-0.7-0.1
					c-0.2-0.1-0.4-0.2-0.6-0.4c-0.2-0.3-0.4-0.5-0.5-0.8c-0.1-0.3-0.1-0.6,0-0.9c0.1-0.3,0.2-0.6,0.3-0.9c0.2-0.3,0.4-0.5,0.6-0.7
					c0.4-0.4,0.8-0.7,1.3-0.9c0.1-0.1,0.3,0,0.4,0.1l0.7,0.7c0.1,0.1,0.1,0.2,0.1,0.4c0,0.1-0.2,0.2-0.3,0.3
					c-0.4,0.1-0.8,0.3-1.2,0.6c-0.1,0.1-0.2,0.2-0.2,0.3c0,0.1-0.1,0.2-0.1,0.2c0,0.1,0,0.1,0,0.2c0,0,0,0.1,0.1,0.1
					c0.1,0.1,0.1,0.1,0.2,0.1c0,0,0.1,0,0.1,0c0.2,0,0.3-0.1,0.4-0.1c0.2-0.1,0.3-0.1,0.5-0.2c0.3-0.1,0.5-0.2,0.8-0.3
					c0.2-0.1,0.5-0.1,0.7-0.1c0.3,0,0.5,0,0.7,0.1c0.2,0.1,0.5,0.2,0.7,0.4c0.3,0.3,0.4,0.5,0.5,0.9c0.1,0.3,0.1,0.6,0,0.9
					c-0.1,0.3-0.2,0.6-0.4,0.9c-0.2,0.3-0.4,0.5-0.6,0.8c-0.5,0.5-1,0.8-1.5,0.9C41.8,46,41.8,46,41.8,46z"/>
			</g>
			<g>
				<g>
					<path class="st0" d="M30.7,68.8 M30.1,69.5"/>
					<path class="st0" d="M27.2,77.5c-1.2,0-2.2-0.4-3.2-1.2c-1.1-0.9-1.7-2.1-1.8-3.6c-0.1-0.9,0-1.7,0.3-2.5
						c0.2-0.5,0.4-0.9,0.8-1.4c0.1-0.1,0.3-0.2,0.5-0.1l0.8,0.5c0.1,0.1,0.2,0.2,0.2,0.3c0,0.1,0,0.2-0.1,0.3
						c-0.3,0.3-0.5,0.7-0.6,1.1c-0.2,0.5-0.2,1.1-0.2,1.7c0.1,0.6,0.3,1.2,0.7,1.8c0.4,0.5,0.8,0.9,1.4,1.1c0.6,0.2,1.2,0.3,1.8,0.3
						c1-0.1,1.8-0.5,2.4-1.3c0.6-0.8,0.8-1.6,0.7-2.7c-0.1-0.8-0.4-1.5-0.9-2.1c-0.1-0.2-0.1-0.4,0-0.5l0.7-0.6
						c0.1-0.1,0.2-0.1,0.3-0.1c0.1,0,0.2,0.1,0.3,0.1c0.2,0.2,0.4,0.5,0.6,0.8c0.4,0.7,0.7,1.5,0.8,2.4c0.2,1.7-0.3,3.1-1.3,4.2
						c-0.9,0.9-2,1.5-3.3,1.6C27.6,77.5,27.4,77.5,27.2,77.5z"/>
				</g>
			</g>
		</g>
		<g>
			<g>
				<path class="st0" d="M56,119.2c0,0-0.1,0-0.1,0l-0.9-0.3c-0.1,0-0.2-0.1-0.2-0.2c0-0.1,0-0.2,0-0.3l1-2.6
					c-0.5,0.2-1.1,0.1-1.7-0.1c-1-0.4-2.1-1.3-1.3-3.4l1.3-3.4c0.1-0.2,0.3-0.3,0.5-0.2l0.9,0.3c0.1,0,0.2,0.1,0.2,0.2
					c0,0.1,0,0.2,0,0.3l-1.2,3.2c-0.5,1.4,0.1,1.6,0.4,1.7c0.3,0.1,0.6,0.1,1-0.1c0.3-0.2,0.6-0.5,0.7-0.9l1.2-3.1
					c0-0.1,0.1-0.2,0.2-0.2c0.1,0,0.2,0,0.3,0l0.9,0.3c0.2,0.1,0.3,0.3,0.2,0.5l-3,8.2C56.3,119.1,56.2,119.2,56,119.2z"/>
			</g>
			<g>
				<path class="st0" d="M48.8,116c-0.2,0-0.3,0-0.5-0.1c-0.2-0.1-0.4-0.3-0.5-0.6c-0.1-0.3-0.1-0.5,0.1-0.8
					c0.1-0.2,0.3-0.4,0.6-0.5c0.3-0.1,0.5-0.1,0.8,0.1c0.2,0.1,0.4,0.3,0.5,0.6c0.1,0.3,0.1,0.5-0.1,0.8c-0.1,0.3-0.3,0.4-0.6,0.5
					C49,116,48.9,116,48.8,116z M50.2,113.7c-0.1,0-0.1,0-0.2,0l-0.8-0.4c-0.2-0.1-0.3-0.3-0.2-0.5l2.7-5.2c0.1-0.2,0.3-0.3,0.5-0.2
					l0.8,0.4c0.1,0,0.2,0.1,0.2,0.2c0,0.1,0,0.2,0,0.3l-2.7,5.2c0,0.1-0.1,0.2-0.2,0.2C50.3,113.7,50.2,113.7,50.2,113.7z"/>
			</g>
			<g>
				<path class="st0" d="M45.7,114.5c-0.1,0-0.1,0-0.2-0.1l-0.8-0.5c-0.1-0.1-0.1-0.1-0.2-0.2c0-0.1,0-0.2,0-0.3l4.6-7.4
					c0.1-0.2,0.3-0.2,0.5-0.1l0.8,0.5c0.1,0.1,0.1,0.1,0.2,0.2c0,0.1,0,0.2,0,0.3l-4.6,7.4C46,114.4,45.8,114.5,45.7,114.5z"/>
			</g>
			<g>
				<path class="st0" d="M39.2,109.8c-0.1,0-0.2,0-0.2-0.1l-0.7-0.6c-0.1-0.1-0.1-0.2-0.1-0.3c0-0.1,0-0.2,0.1-0.3l5.5-6.8
					c0.1-0.1,0.2-0.1,0.3-0.1c0.1,0,0.2,0,0.3,0.1l0.7,0.6c0.1,0.1,0.1,0.2,0.1,0.3c0,0.1,0,0.2-0.1,0.3l0,0c0.6,0,1.1,0.2,1.6,0.6
					c0.7,0.5,1,1.2,1,2c0,0.8-0.3,1.6-0.9,2.3c-0.7,0.8-1.4,1.3-2.3,1.5c-0.9,0.2-1.7,0-2.4-0.6c-0.4-0.3-0.7-0.7-0.8-1.2l-1.7,2.1
					C39.5,109.8,39.3,109.8,39.2,109.8z M44.6,104.3c-0.1,0-0.2,0-0.2,0c-0.4,0.1-0.7,0.3-1.1,0.7l-0.5,0.7c-0.2,0.3-0.3,0.6-0.3,1
					c0,0.3,0.2,0.6,0.5,0.9c0.4,0.3,0.7,0.4,1.1,0.3c0.4-0.1,0.9-0.4,1.3-0.9c0.4-0.5,0.5-0.9,0.5-1.3c0-0.4-0.2-0.7-0.5-1
					C45.2,104.4,44.9,104.3,44.6,104.3z"/>
			</g>
			<g>
				<path class="st0" d="M38.4,105.2C38.4,105.2,38.4,105.2,38.4,105.2c-0.1,0-0.2,0-0.3-0.1l-0.6-0.7c-0.1-0.1-0.1-0.4,0-0.5
					c0,0,0,0,0,0c-0.4,0-0.8-0.2-1.1-0.6c-0.2-0.2-0.3-0.4-0.4-0.6c-0.1-0.1,0-0.3,0.1-0.4l0.7-0.7c0.1-0.1,0.3-0.1,0.4-0.1
					c0.1,0.1,0.2,0.2,0.2,0.3c0,0.1,0.1,0.3,0.2,0.4c0.2,0.2,0.4,0.3,0.8,0.2c0.4-0.1,0.8-0.3,1.2-0.7l2.2-2.1
					c0.1-0.1,0.2-0.1,0.3-0.1c0.1,0,0.2,0,0.3,0.1l0.6,0.7c0.1,0.2,0.1,0.4,0,0.5l-4.3,4C38.6,105.1,38.5,105.2,38.4,105.2z"/>
			</g>
			<g>
				<path class="st0" d="M35.8,100.9c-0.1,0-0.2,0-0.4,0c-0.9-0.1-1.6-0.5-2.1-1.2c-0.5-0.7-0.7-1.5-0.5-2.2
					c0.2-0.7,0.7-1.4,1.5-1.9l0.4-0.3c0.2-0.1,0.4-0.1,0.5,0.1l2.2,3c0.3-0.3,0.4-0.5,0.5-0.8c0.1-0.4,0-0.8-0.3-1.1
					c-0.3-0.5-0.8-0.8-1.4-1c-0.1,0-0.2-0.2-0.3-0.3c0-0.1,0-0.3,0.2-0.4l0.7-0.5c0.1-0.1,0.2-0.1,0.3-0.1c0.7,0.2,1.3,0.7,1.9,1.5
					c0.5,0.8,0.7,1.6,0.6,2.4c-0.2,0.8-0.7,1.5-1.6,2.1C37.3,100.6,36.6,100.9,35.8,100.9z M34.8,97.3c-0.2,0.2-0.3,0.4-0.4,0.6
					c-0.1,0.3,0,0.5,0.2,0.8c0.2,0.3,0.5,0.4,0.8,0.5c0.2,0,0.5,0,0.7-0.1L34.8,97.3z"/>
			</g>
			<g>
				<path class="st0" d="M31.2,95.8c0,0-0.1,0-0.1,0c-0.1,0-0.2-0.1-0.2-0.2l-0.4-0.8c0-0.1-0.1-0.2,0-0.3c0-0.1,0.1-0.2,0.2-0.2
					c-0.5-0.2-0.9-0.6-1.2-1.2c-0.3-0.7-0.4-1.3-0.1-1.9c0.3-0.6,0.8-1.1,1.6-1.5l3.2-1.6c0.2-0.1,0.4,0,0.5,0.2l0.4,0.8
					c0,0.1,0.1,0.2,0,0.3c0,0.1-0.1,0.2-0.2,0.2l-3,1.5c-0.5,0.2-0.8,0.5-0.9,0.8c-0.1,0.1-0.2,0.4,0,0.8c0.2,0.3,0.4,0.5,0.7,0.6
					c0.4,0.1,0.7,0,1.1-0.2l3-1.5c0.1,0,0.2-0.1,0.3,0c0.1,0,0.2,0.1,0.2,0.2l0.4,0.8c0.1,0.2,0,0.4-0.2,0.5l-5.3,2.6
					C31.3,95.8,31.3,95.8,31.2,95.8z"/>
			</g>
			<g>
				<path class="st0" d="M26,90c-0.1,0-0.1,0-0.2,0c-0.1,0-0.2-0.1-0.2-0.2l-0.3-0.9c0-0.1,0-0.2,0-0.3c0-0.1,0.1-0.2,0.2-0.2
					l2.5-0.7c0.2-0.1,0.4,0,0.5,0.2l0.2,0.6c0.1,0.2,0,0.4-0.2,0.5l-2.4,1C26.1,90,26,90,26,90z"/>
			</g>
			<g>
				<path class="st0" d="M28.3,84.2c0.1,0,0.2-0.1,0.2-0.1c0,0,0.1-0.1,0.1-0.2c0-0.1,0.1-0.2,0.1-0.3c0-0.2,0-0.3,0.1-0.5
					c0-0.3,0.1-0.6,0.1-0.8c0.1-0.3,0.1-0.5,0.3-0.7c0.1-0.2,0.3-0.4,0.5-0.6c0.2-0.1,0.4-0.3,0.7-0.3c0.4-0.1,0.7-0.1,1,0
					c0.3,0.1,0.6,0.2,0.8,0.5c0.2,0.2,0.4,0.5,0.6,0.7c0.1,0.3,0.3,0.6,0.3,0.9c0.2,0.6,0.2,1.2,0,1.8c0,0.1-0.1,0.2-0.3,0.3l-1,0.2
					c-0.1,0-0.3,0-0.4-0.1c-0.1-0.1-0.1-0.3-0.1-0.4c0.2-0.5,0.3-1,0.1-1.5c-0.1-0.4-0.3-0.8-0.6-0.7c-0.1,0-0.1,0-0.2,0.1
					c-0.1,0.1-0.1,0.1-0.1,0.2c0,0.1-0.1,0.2-0.1,0.4c0,0.2,0,0.4-0.1,0.6c0,0.3-0.1,0.6-0.1,0.8c-0.1,0.2-0.1,0.5-0.3,0.7
					c-0.1,0.2-0.3,0.4-0.5,0.5c-0.2,0.1-0.4,0.2-0.7,0.3c-0.2,0-0.3,0.1-0.5,0.1c-0.2,0-0.3,0-0.5-0.1c-0.3-0.1-0.6-0.2-0.8-0.4
					c-0.2-0.2-0.4-0.4-0.6-0.7c-0.1-0.3-0.3-0.6-0.3-0.9c-0.1-0.5-0.2-1.1-0.1-1.5c0-0.1,0.1-0.3,0.3-0.3l0.9-0.2
					c0.1,0,0.3,0,0.4,0.1c0.1,0.1,0.1,0.3,0.1,0.4c-0.1,0.4-0.2,0.9,0,1.3c0,0.1,0.1,0.3,0.1,0.3c0.1,0.1,0.1,0.2,0.2,0.2
					c0,0,0.1,0.1,0.2,0.1C28.1,84.2,28.2,84.2,28.3,84.2z"/>
			</g>
			<g>
				<g>
					<path class="st0" d="M60.7,111.7 M61.1,112.4"/>
					<path class="st0" d="M63,121.1c-0.4,0-0.8,0-1.2-0.1c-0.8-0.2-1.6-0.5-2.2-1c-0.4-0.3-0.7-0.7-1-1.1c-0.1-0.2-0.1-0.4,0.1-0.5
						l0.6-0.6c0.1-0.1,0.2-0.1,0.3-0.1c0.1,0,0.2,0.1,0.3,0.2c0.2,0.4,0.5,0.7,0.8,0.9c0.4,0.3,0.9,0.6,1.5,0.7
						c0.6,0.1,1.2,0.1,1.8-0.1c0.6-0.2,1.1-0.5,1.4-0.9c0.4-0.4,0.6-1,0.8-1.6c0.2-1,0.1-1.8-0.5-2.6c-0.5-0.8-1.2-1.3-2.2-1.5
						c-0.8-0.2-1.5-0.1-2.2,0.2c-0.1,0-0.2,0.1-0.3,0c-0.1,0-0.2-0.1-0.2-0.2l-0.4-0.8c0-0.1,0-0.2,0-0.3c0-0.1,0.1-0.2,0.2-0.2
						c0.2-0.1,0.5-0.2,0.9-0.3c0.7-0.2,1.5-0.2,2.4,0c1.6,0.4,2.7,1.2,3.4,2.5c0.6,1.1,0.7,2.3,0.5,3.6c-0.3,1.4-1,2.5-2.1,3.2
						C64.8,120.8,64,121.1,63,121.1z"/>
				</g>
			</g>
		</g>
		<g>
			<g>
				<path class="st0" d="M94.1,112.5c-0.8,0-1.5-0.4-2-1.3l-2-3.2c-0.1-0.1-0.1-0.2-0.1-0.3c0-0.1,0.1-0.2,0.2-0.2l0.8-0.5
					c0.2-0.1,0.4-0.1,0.5,0.1c0.2-0.5,0.5-0.9,1-1.2c0.6-0.4,1.1-0.5,1.7-0.4c0.6,0.1,1,0.4,1.3,0.9c0.5,0.8,0.8,1.9-0.7,3.2
					l-1.1,0.9c0.4,0.4,0.7,0.5,1.1,0.2c0.5-0.3,0.9-0.8,1.1-1.4c0-0.1,0.2-0.2,0.3-0.3c0.2,0,0.3,0,0.4,0.2l0.5,0.8
					c0.1,0.1,0.1,0.2,0,0.4c-0.3,0.7-0.8,1.3-1.5,1.7C95,112.4,94.6,112.5,94.1,112.5z M93.6,107.1c-0.1,0-0.3,0.1-0.5,0.2
					c-0.3,0.2-0.5,0.4-0.5,0.8c-0.1,0.3,0,0.7,0.2,1l0.1,0.1l0.8-0.6c0.3-0.2,0.5-0.5,0.6-0.7c0.1-0.1,0-0.3-0.1-0.5
					C93.9,107.2,93.8,107.2,93.6,107.1C93.6,107.1,93.6,107.1,93.6,107.1z"/>
			</g>
			<g>
				<path class="st0" d="M88.2,115.5c-0.1,0-0.3-0.1-0.3-0.2l-0.4-0.9c-0.1-0.1,0-0.3,0-0.4c0.1-0.1,0.2-0.2,0.4-0.1
					c0.4,0.1,0.9,0,1.3-0.2c0.1-0.1,0.2-0.1,0.3-0.2c0.1-0.1,0.1-0.1,0.2-0.2c0-0.1,0.1-0.1,0.1-0.2c0-0.1,0-0.1,0-0.2
					c-0.1-0.1-0.1-0.2-0.1-0.2c-0.1,0-0.1-0.1-0.2-0.1c-0.1,0-0.2,0-0.3,0c-0.2,0-0.4,0-0.6,0c-0.3,0-0.6,0-0.8,0
					c-0.3,0-0.5-0.1-0.7-0.1c-0.2-0.1-0.4-0.2-0.6-0.3c-0.2-0.2-0.3-0.4-0.5-0.6c-0.1-0.3-0.2-0.6-0.2-1c0-0.3,0.1-0.6,0.3-0.9
					c0.2-0.3,0.4-0.5,0.6-0.7c0.2-0.2,0.5-0.4,0.8-0.5c0.6-0.3,1.2-0.4,1.8-0.4c0.1,0,0.3,0.1,0.3,0.2l0.4,0.9c0.1,0.1,0,0.3,0,0.4
					c-0.1,0.1-0.2,0.2-0.4,0.1c-0.5-0.1-1.1-0.1-1.5,0.2c-0.5,0.2-0.6,0.4-0.6,0.5c0,0,0,0.1,0,0.3c0,0.1,0.1,0.1,0.1,0.2
					c0.1,0,0.2,0.1,0.2,0.1c0.1,0,0.2,0,0.3,0l0.2,0c0.1,0,0.3,0,0.4,0c0.3,0,0.6,0,0.8,0c0.2,0,0.5,0.1,0.7,0.1
					c0.2,0.1,0.4,0.2,0.6,0.4c0.2,0.2,0.3,0.4,0.4,0.6c0.1,0.3,0.2,0.6,0.2,0.9c0,0.3-0.1,0.6-0.3,0.9c-0.2,0.3-0.4,0.5-0.6,0.7
					c-0.2,0.2-0.5,0.4-0.8,0.5C89.2,115.4,88.7,115.5,88.2,115.5C88.2,115.5,88.2,115.5,88.2,115.5z"/>
			</g>
			<g>
				<path class="st0" d="M85.4,118.5c0,0-0.1,0-0.1,0c-0.1,0-0.2-0.1-0.2-0.2l-0.4-1.3l-1.1,0.3c-0.1,0-0.2,0-0.3,0
					c-0.1,0-0.2-0.1-0.2-0.2l-0.2-0.8c-0.1-0.2,0-0.4,0.2-0.5l1.1-0.3l-0.9-2.8c-0.1-0.4-0.3-0.5-0.3-0.5c0,0-0.2,0-0.4,0
					c-0.1,0-0.3,0.1-0.3,0.2c-0.1,0.1-0.2,0.2-0.4,0.2c-0.1,0-0.3-0.1-0.3-0.3l-0.3-0.8c0-0.1,0-0.3,0.1-0.4
					c0.2-0.2,0.5-0.4,0.9-0.5c0.3-0.1,0.5-0.1,0.7-0.1c0.6,0,1.3,0.3,1.8,1.5l1,2.9l0.6-0.2c0.2-0.1,0.4,0,0.5,0.2l0.3,0.8
					c0.1,0.2,0,0.4-0.2,0.5l-0.6,0.2l0.3,1c0.1,0.2,0,0.3-0.1,0.4l-0.8,0.6C85.5,118.5,85.5,118.5,85.4,118.5z"/>
			</g>
			<g>
				<path class="st0" d="M81.4,120.7c-0.1,0-0.1,0-0.2-0.1c-0.1-0.1-0.1-0.1-0.2-0.2l-2-8.5c0-0.2,0.1-0.4,0.3-0.5l0.9-0.2
					c0.1,0,0.2,0,0.3,0c0.1,0.1,0.1,0.1,0.2,0.2l2,8.5c0,0.2-0.1,0.4-0.3,0.5L81.4,120.7C81.4,120.7,81.4,120.7,81.4,120.7z"/>
			</g>
			<g>
				<path class="st0" d="M75.5,118.9c-0.7,0-1.3-0.2-1.8-0.7c-0.5-0.5-0.9-1.3-1-2.2l-0.1-0.5c0-0.1,0-0.2,0.1-0.3
					c0.1-0.1,0.2-0.1,0.3-0.1l3.7-0.4c-0.1-0.4-0.3-0.6-0.5-0.8c-0.3-0.2-0.7-0.3-1.2-0.3c-0.6,0.1-1.1,0.3-1.5,0.7
					c-0.1,0.1-0.3,0.1-0.4,0.1c-0.1,0-0.2-0.2-0.3-0.3l-0.1-0.9c0-0.1,0-0.2,0.1-0.3c0.5-0.5,1.3-0.8,2.2-0.9c1-0.1,1.7,0.1,2.3,0.7
					c0.6,0.5,1,1.3,1.1,2.4c0.1,1-0.1,1.9-0.6,2.6c-0.5,0.7-1.2,1.1-2.1,1.2C75.8,118.9,75.7,118.9,75.5,118.9z M74.6,116.5
					c0.1,0.3,0.2,0.5,0.3,0.6c0.2,0.2,0.5,0.3,0.8,0.2c0.3,0,0.6-0.2,0.8-0.5c0.1-0.2,0.2-0.4,0.3-0.6L74.6,116.5z"/>
			</g>
			<g>
				<g>
					<path class="st0" d="M94.6,105.2 M95.5,105.2"/>
					<path class="st0" d="M99.5,110.9l-0.2,0c-0.2,0-0.3-0.1-0.4-0.3l-0.2-0.9c0-0.1,0-0.2,0.1-0.3c0.1-0.1,0.2-0.1,0.3-0.1
						c0.4,0,0.8,0,1.2-0.1c0.5-0.2,1-0.4,1.4-0.8c0.4-0.4,0.8-0.9,0.9-1.5c0.2-0.6,0.2-1.1,0-1.7c-0.2-0.6-0.5-1.1-0.9-1.6
						c-0.7-0.7-1.5-1.1-2.5-1.1l-0.1,0c-0.9,0-1.7,0.3-2.4,1c-0.6,0.6-0.9,1.2-1,1.9c0,0.1-0.1,0.2-0.2,0.3
						c-0.1,0.1-0.2,0.1-0.3,0.1l-0.9-0.1c-0.1,0-0.2-0.1-0.3-0.2c-0.1-0.1-0.1-0.2-0.1-0.3c0.1-0.3,0.1-0.6,0.2-0.9
						c0.3-0.7,0.7-1.4,1.3-2c1.2-1.1,2.5-1.6,4-1.4c1.2,0.1,2.3,0.7,3.3,1.6c1,1,1.5,2.2,1.5,3.6c0,1.3-0.6,2.5-1.6,3.5
						c-0.6,0.6-1.3,1-2.1,1.2C100.4,110.8,100,110.9,99.5,110.9z"/>
				</g>
			</g>
		</g>
		<g>
			<g>
				<g>
					<path class="st0" d="M109.3,58.3c-0.1,0-0.2,0-0.2-0.1c-0.1-0.1-0.1-0.2-0.1-0.3l-0.1-0.9c0-0.2,0.1-0.4,0.3-0.4l3.4-0.5
						c1.4-0.2,1.3-0.9,1.3-1.2c0-0.3-0.2-0.6-0.5-0.8c-0.3-0.2-0.7-0.3-1.2-0.2l-3.3,0.5c-0.2,0-0.4-0.1-0.4-0.3l-0.1-0.9
						c0-0.1,0-0.2,0.1-0.3c0.1-0.1,0.2-0.1,0.3-0.1l8.6-1.2c0.2,0,0.4,0.1,0.4,0.3l0.1,0.9c0,0.2-0.1,0.4-0.3,0.4l-2.8,0.4
						c0.4,0.4,0.6,0.9,0.7,1.5c0.2,1.1-0.1,2.4-2.4,2.7L109.3,58.3C109.4,58.3,109.4,58.3,109.3,58.3z"/>
				</g>
				<g>
					<path class="st0" d="M109.8,61.6c-0.2,0-0.3-0.1-0.4-0.3l-0.1-0.9c0-0.1,0-0.2,0.1-0.3c0.1-0.1,0.2-0.1,0.3-0.2l5.8-0.9
						c0.1,0,0.2,0,0.3,0.1c0.1,0.1,0.1,0.2,0.1,0.3l0.1,0.9c0,0.2-0.1,0.4-0.3,0.4L109.8,61.6C109.9,61.6,109.8,61.6,109.8,61.6z
						 M117.7,60.6c-0.2,0-0.4-0.1-0.6-0.2c-0.2-0.2-0.3-0.4-0.4-0.7c0-0.3,0-0.5,0.2-0.7c0.2-0.2,0.4-0.4,0.7-0.4
						c0.3,0,0.5,0,0.7,0.2c0.2,0.2,0.3,0.4,0.4,0.6c0,0.3,0,0.5-0.2,0.7c-0.2,0.2-0.4,0.4-0.7,0.4C117.8,60.6,117.7,60.6,117.7,60.6
						z"/>
				</g>
				<g>
					<path class="st0" d="M110.3,65c-0.1,0-0.2,0-0.2-0.1c-0.1-0.1-0.1-0.2-0.1-0.3l-0.1-0.9c0-0.1,0-0.2,0.1-0.3
						c0.1-0.1,0.2-0.1,0.3-0.1l8.6-1.3c0.2,0,0.4,0.1,0.4,0.3l0.1,0.9c0,0.1,0,0.2-0.1,0.3c-0.1,0.1-0.2,0.1-0.3,0.1L110.3,65
						C110.4,65,110.3,65,110.3,65z"/>
				</g>
				<g>
					<path class="st0" d="M111.2,72.4c-0.2,0-0.4-0.1-0.4-0.3l-0.1-0.9c0-0.1,0-0.2,0.1-0.3c0.1-0.1,0.2-0.1,0.3-0.1h0
						c-0.4-0.4-0.6-1-0.7-1.6c-0.1-0.9,0.2-1.6,0.7-2.1c0.5-0.6,1.3-0.9,2.3-1c1.1-0.1,1.9,0.1,2.6,0.6c0.7,0.5,1.1,1.2,1.2,2.1
						c0.1,0.5,0,1-0.3,1.4l2.7-0.3c0.1,0,0.2,0,0.3,0.1c0.1,0.1,0.1,0.2,0.1,0.3l0.1,0.9c0,0.2-0.1,0.4-0.3,0.4L111.2,72.4
						C111.2,72.4,111.2,72.4,111.2,72.4z M114,67.6c-0.1,0-0.3,0-0.4,0c-0.6,0.1-1,0.2-1.3,0.5c-0.3,0.3-0.4,0.6-0.4,1
						c0,0.4,0.2,0.7,0.5,0.9c0.3,0.2,0.7,0.3,1.2,0.3l0.9-0.1c0.4,0,0.7-0.2,0.9-0.5c0.2-0.3,0.3-0.6,0.3-1c0-0.5-0.2-0.8-0.6-1
						C114.9,67.7,114.5,67.6,114,67.6z"/>
				</g>
				<g>
					<path class="st0" d="M116.6,78.1C116.6,78.1,116.6,78.1,116.6,78.1l-1-0.1c-0.1,0-0.3-0.1-0.3-0.2c-0.1-0.1,0-0.3,0.1-0.4
						c0.1-0.1,0.1-0.2,0.2-0.5c0-0.3-0.1-0.5-0.3-0.7c-0.3-0.2-0.7-0.4-1.3-0.5l-3-0.3c-0.2,0-0.4-0.2-0.3-0.4l0.1-0.9
						c0-0.1,0.1-0.2,0.1-0.3c0.1-0.1,0.2-0.1,0.3-0.1l5.9,0.6c0.1,0,0.2,0.1,0.3,0.1c0.1,0.1,0.1,0.2,0.1,0.3l-0.1,0.9
						c0,0.2-0.2,0.3-0.4,0.3c0,0,0,0,0,0c0.3,0.4,0.4,0.8,0.3,1.2c0,0.3-0.1,0.5-0.2,0.7C116.9,78,116.8,78.1,116.6,78.1z"/>
				</g>
				<g>
					<path class="st0" d="M113.6,84.3c-0.3,0-0.6,0-0.9-0.1l-0.5-0.1c-0.2,0-0.3-0.2-0.3-0.4l0.7-3.7c-0.4,0-0.7,0.1-0.9,0.2
						c-0.3,0.2-0.5,0.5-0.6,1c-0.1,0.6,0,1.1,0.3,1.7c0.1,0.1,0.1,0.3,0,0.4c-0.1,0.1-0.2,0.2-0.4,0.1l-0.9-0.2
						c-0.1,0-0.2-0.1-0.3-0.2c-0.3-0.6-0.4-1.4-0.2-2.4c0.2-0.9,0.6-1.6,1.3-2c0.7-0.4,1.6-0.5,2.6-0.3c1,0.2,1.8,0.6,2.3,1.3
						c0.5,0.7,0.7,1.5,0.6,2.4c-0.2,0.9-0.6,1.5-1.3,1.9C114.7,84.2,114.2,84.3,113.6,84.3z M113.7,82.6c0.3,0,0.5,0,0.7-0.1
						c0.2-0.1,0.4-0.4,0.5-0.7c0.1-0.3,0-0.6-0.2-0.9c-0.1-0.2-0.3-0.3-0.5-0.5L113.7,82.6z"/>
				</g>
				<g>
					<path class="st0" d="M112.2,91.3c-0.4,0-0.8-0.1-1.3-0.2l-3.4-1.2c-0.1,0-0.2-0.1-0.2-0.2c0-0.1-0.1-0.2,0-0.3l0.3-0.9
						c0.1-0.2,0.3-0.3,0.5-0.2l3.2,1.1c1,0.3,1.5,0.2,1.7-0.4c0.1-0.3,0.1-0.7-0.1-1c-0.2-0.3-0.5-0.6-0.9-0.7l-3.2-1.1
						c-0.1,0-0.2-0.1-0.2-0.2c0-0.1-0.1-0.2,0-0.3l0.3-0.9c0-0.1,0.1-0.2,0.2-0.2c0.1,0,0.2-0.1,0.3,0l5.6,1.9
						c0.1,0,0.2,0.1,0.2,0.2c0,0.1,0.1,0.2,0,0.3l-0.3,0.9c-0.1,0.2-0.3,0.3-0.5,0.2c0.2,0.5,0.2,1.1,0,1.7
						c-0.2,0.7-0.7,1.2-1.3,1.4C112.8,91.2,112.5,91.3,112.2,91.3z"/>
				</g>
				<g>
					<path class="st0" d="M113.7,96.3c-0.1,0-0.1,0-0.2-0.1l-2.2-1.3c-0.2-0.1-0.2-0.3-0.1-0.5l0.3-0.6c0.1-0.2,0.3-0.3,0.5-0.2
						l2.4,1c0.1,0,0.2,0.1,0.2,0.2c0,0.1,0,0.2,0,0.3l-0.4,0.9c0,0.1-0.1,0.2-0.2,0.2C113.8,96.3,113.7,96.3,113.7,96.3z"/>
				</g>
				<g>
					<path class="st0" d="M108.4,100.4c-0.1,0-0.1,0-0.2-0.1l-0.8-0.5c-0.1-0.1-0.2-0.2-0.2-0.4c0-0.1,0.1-0.3,0.2-0.3
						c0.4-0.2,0.7-0.5,1-0.9c0.1-0.1,0.1-0.2,0.2-0.3c0-0.1,0-0.2,0-0.3c0-0.1,0-0.1,0-0.2c0,0-0.1-0.1-0.1-0.1
						c-0.1-0.1-0.2-0.1-0.2-0.1c-0.1,0-0.1,0-0.2,0c-0.1,0-0.2,0.1-0.3,0.2c-0.1,0.1-0.3,0.2-0.5,0.3c-0.2,0.2-0.5,0.3-0.7,0.4
						c-0.2,0.1-0.5,0.2-0.7,0.3c-0.2,0.1-0.5,0.1-0.7,0c-0.2,0-0.5-0.1-0.7-0.3c-0.3-0.2-0.5-0.4-0.7-0.7c-0.1-0.3-0.2-0.6-0.2-0.9
						c0-0.3,0-0.6,0.2-0.9c0.1-0.3,0.2-0.6,0.4-0.9c0.4-0.6,0.8-1,1.3-1.3c0.1-0.1,0.3-0.1,0.4,0l0.9,0.5c0.1,0.1,0.2,0.2,0.2,0.4
						c0,0.1-0.1,0.3-0.2,0.3c-0.5,0.2-0.9,0.5-1.2,1c-0.5,0.7-0.2,0.9-0.1,1c0.1,0.1,0.2,0.1,0.2,0.1c0.1,0,0.2,0,0.2-0.1
						c0.1-0.1,0.2-0.1,0.4-0.2c0.1-0.1,0.3-0.2,0.4-0.3c0.3-0.2,0.5-0.3,0.7-0.4c0.2-0.1,0.4-0.2,0.7-0.3c0.2-0.1,0.5-0.1,0.7,0
						c0.2,0,0.4,0.1,0.7,0.3c0.3,0.2,0.5,0.4,0.7,0.7c0.1,0.3,0.2,0.6,0.2,0.9c0,0.3,0,0.6-0.1,0.9c-0.1,0.3-0.2,0.6-0.4,0.9
						c-0.3,0.5-0.7,0.9-1.1,1.1C108.5,100.4,108.4,100.4,108.4,100.4z"/>
				</g>
			</g>
			<g>
				<g>
					<path class="st0" d="M109,51.5 M109.4,50.8"/>
					<path class="st0" d="M108.9,51.9c-0.1,0-0.2,0-0.3-0.1c-0.2-0.2-0.5-0.4-0.6-0.7c-0.5-0.6-0.8-1.3-1-2.2c-0.3-1.6,0-3,0.9-4.2
						c0.8-1,1.8-1.6,3.1-1.9c1.4-0.3,2.7-0.1,3.8,0.6c1.1,0.7,1.9,1.8,2.2,3.2c0.2,0.8,0.2,1.7,0,2.4c-0.1,0.5-0.3,1-0.6,1.4
						c-0.1,0.2-0.3,0.2-0.5,0.1l-0.8-0.3c-0.1,0-0.2-0.1-0.2-0.2c0-0.1,0-0.2,0.1-0.3c0.2-0.3,0.4-0.7,0.5-1.1
						c0.1-0.5,0.1-1.1,0-1.6c-0.1-0.6-0.4-1.1-0.8-1.6c-0.4-0.4-0.9-0.8-1.5-0.9c-0.6-0.2-1.2-0.2-1.8,0c-1,0.2-1.7,0.7-2.2,1.5
						c-0.5,0.8-0.7,1.7-0.5,2.6c0.2,0.8,0.5,1.4,1.1,1.9c0.1,0.1,0.1,0.2,0.1,0.3c0,0.1,0,0.2-0.1,0.3l-0.6,0.7
						C109.1,51.8,109,51.8,108.9,51.9C108.9,51.9,108.9,51.9,108.9,51.9z"/>
				</g>
			</g>
		</g>
	</g>
	<g>
		<path class="st0" d="M133.3,33.6c0.2-4.3-1.4-8.1-4.8-11.4c-3.5-3.4-6.7-4.5-14.1-5.9c0,0,0,0,0,0c-8.9-1.4-12.8-5.4-12.8-5.4
			c-0.1-0.1-0.2-0.2-0.4-0.2c-0.4-0.1-0.8-0.2-1.2-0.2c-1.4,0-2.2,0.8-2.5,1.2c0,0-0.1,0.1-0.1,0.2L97.2,12c0,0.1-0.3,0.2-0.3,0.3
			v13.4c-7.6-4.4-16.8-6.7-25.9-6.7c-14.4,0-27.9,5.6-38.1,15.7C22.7,44.8,17.1,58.3,17.1,72.5c0,14.3,5.6,27.7,15.8,37.8
			C43.2,120.4,56.7,126,71.2,126c14.4,0,28-5.6,38.2-15.7c10.2-10.1,15.8-23.5,15.8-37.8c0-6.6-1.2-12.9-3.5-19
			C123.9,51.6,132.9,43,133.3,33.6z M123.4,72.5c0,28.5-23.4,51.7-52.3,51.7c-28.8,0-52.3-23.2-52.3-51.7C18.9,44,42.2,20.8,71,20.8
			c9.2,0,18.3,2.4,25.9,6.9v19.9c-0.6-0.6-1.1-1.2-1.7-1.8l-0.1-0.2c-0.1-0.1-0.2-0.2-0.3-0.3c-0.2-0.2-0.3-0.3-0.5-0.5
			c-1.5-1.3-3.2-2.4-4.9-3.4l-0.1-0.1c-0.2-0.1-0.3-0.2-0.5-0.3c-0.2-0.1-0.3-0.2-0.5-0.3l-0.1-0.1c-2.7-1.4-5.5-2.5-8.4-3.2
			l-0.1-0.1c0,0,0-0.1,0-0.1c0,0,0,0,0,0c-2.7-0.6-5.5-0.9-8.3-0.9c-5,0-9.9,1.1-14.5,3.1c0,0,0,0,0,0c0,0,0,0,0,0l-1.5,0.7
			c-5.4,2.7-10.1,6.7-13.6,11.7l-1.8,0c-0.3,0-0.6,0.4-0.8,0.7c-0.1,0.3-0.1,0.8,0.1,1l0.8,0.9c-1.5,2.6-2.7,5.4-3.5,8.4
			c-0.1,0.2-0.1,0.5-0.2,0.7l0,0.1c-0.5,1.9-0.8,3.9-1,5.9c0,0,0,0,0,0.1c0,0-0.1,0-0.1,0.1c0,0.3-0.1,0.5-0.1,0.8v0
			c0,0.3,0.1,0.6,0.1,0.8l0,0.2c0,0.2,0,0.3,0,0.5c0,0.1,0,0.2,0,0.4c0,0.1,0,0.2,0,0.3c0,0.1,0,0.2,0,0.3
			c0.2,10,4.5,19.6,11.8,26.2c0,0,0,0,0,0l0.1,0.1c0.1,0.1,0.2,0.1,0.2,0.2c5.8,5.1,13.3,8.2,21,8.9c1,0.1,1.9,0.1,2.8,0.1
			c7.7,0,15.1-2.4,21.3-7c6.1-4.5,10.6-10.6,12.9-17.7c0.4-1.1,0.7-2.1,0.9-3.2l0,0c0.2-0.8,0.4-1.7,0.5-2.6l0-0.2
			c0-0.2,0.1-0.4,0.1-0.6l0-0.2c0-0.2,0.1-0.5,0.1-0.7l0-0.2c0-0.3,0.1-0.6,0.1-0.8l0-0.2c0-0.2,0-0.4,0-0.6c0-0.1,0-0.2,0-0.3
			c0-0.2,0-0.4,0-0.6l0-0.3c0-0.3,0-0.6,0-0.8c0-0.3,0-0.7,0-1c0,0,0-0.2,0-0.2c0-0.3,0-0.6,0-0.9l0-0.2c-0.3-4.9-1.6-9.6-3.9-14.1
			l2.1-2.5c0.2-0.3,0.3-0.7,0.1-1c-0.1-0.1-0.4-0.7-0.8-0.7h-0.5V37.3c0,0,0-0.1,0-0.1c0,0,0-0.8,0.4-1.3c0.3-0.3,0.7-0.5,1.3-0.5
			l12.2,0.6c0,0,0.1,0,0.1,0c1,0,1.3,1,1.3,1.3v15.5c0,0,0,0.1,0,0.1c-0.1,0.2-0.1,0.5,0,0.7C122.2,59.6,123.4,66,123.4,72.5z
			 M105.8,72.4c0,0.1,0,0.2,0,0.3c0,0.1,0,0.2,0,0.3c0,0.2,0,0.3,0,0.5c0,0,0,0.1,0,0.1c0,0,0,0.1,0,0.1l0,0.2c0,0.2,0,0.3,0,0.5
			c0,0,0,0.2,0,0.2c0,0.6-0.1,1.1-0.1,1.6l0,0.1c-0.2,2.2-0.7,4.4-1.3,6.5c-0.4-0.5-0.6-1.7-0.8-2.3l0-0.1c0-0.2-0.1-0.3-0.1-0.4
			c0-0.1,0-0.3-0.1-0.4l0-0.1c-0.1-0.6-0.1-1.3-0.6-1.8c-0.4-0.4-0.9-0.5-1.1-0.5c-0.9,0-1.7,0.8-2.3,2.4c-0.4-0.1-1-0.7-1.3-1.1
			c-0.6-0.9-1-1.6-1.3-2.4c-0.3-0.9-0.3-1.7,0.1-2.7l0.3-0.8c0.1-0.3,0.2-0.6,0.3-0.9c0.1-0.2,0.2-0.5,0.4-0.7l0,0
			c0.2-0.4,0.5-0.9,0.6-1.4c0.2-0.8,0.5-2.4-0.3-3.7c-0.3-0.5-0.7-0.9-1.3-1.2l5.6-6.7c1.8,3.7,2.9,7.7,3.3,11.8
			c0,0.4,0.1,0.7,0.1,1l0,0.1c0,0.3,0,0.6,0,0.8c0,0,0,0,0,0.1c0,0,0,0.1,0,0.1C105.8,72,105.8,72.2,105.8,72.4z M67.7,103.3
			c-1.1-0.7-1.7-1.3-1.5-2.1c0.1-0.3,0.1-0.5,0.2-0.6c0.1-0.1,0.1-0.2,0.2-0.4c0.4,0.1,0.7,0.1,1.2,0.1c1,0,2.1-0.3,3.2-0.7
			c1.4,1.5,2.8,2.3,4.1,2.3c0.4,0,0.8-0.2,1.3-0.4c0.1-0.1,0.2-0.2,0.3-0.2c1.7-0.7,1.9-2.5,1.8-4.3h2.3c0.3,0,0.7,0,0.8-0.4
			l0.7-2.6l2.6,0c0.4,0,0.7-0.3,0.8-0.7l0.5-3l2.4,0.1c0,0,0,0,0.1,0c0.4,0,0.8-0.4,0.8-0.8l0.3-3.8c0-0.2,0-0.4-0.2-0.6L88.9,84
			l0-5.8l3.8-0.5c0.3,0,0.6-0.2,0.7-0.5c0.1-0.3,0.1-0.6-0.1-0.8l-2.9-4.1l5.1-6.1l0.1-0.1c0.5,0.1,0.8,0.3,1,0.7
			c0.3,0.6,0.4,1.4,0.1,2.4c-0.1,0.3-0.3,0.6-0.4,1l0,0c-0.2,0.3-0.3,0.6-0.5,1c-0.1,0.3-0.3,0.7-0.4,1l-0.3,0.7
			c-0.5,1.4-0.6,2.5-0.1,3.8c0.3,1,0.8,1.8,1.5,2.8c0.4,0.7,1.8,1.9,2.9,1.9c0.6,0,1.2-0.4,1.4-1c0.4-0.9,0.6-1.3,0.8-1.4
			c0.1,0.2,0.1,0.5,0.1,0.7c0,0.3,0.1,0.5,0.1,0.8c0,0.1,0.1,0.2,0.1,0.4l0,0.1c0.3,1.3,0.6,2.5,1.3,3.2c0.2,0.2,0.4,0.3,0.6,0.5
			c-5,13.5-17.9,22.6-32.3,22.6c-0.9,0-1.8,0-2.6-0.1C68.9,105.7,68.7,103.9,67.7,103.3z M78.9,41.8c-0.2,0.4-0.5,0.8-1.2,1.1
			c-1.4,0.6-1.9,1.5-2.1,2.1c-0.4,1,0.3,2.3,0.7,3c0.3,0.5,0.7,0.9,1,1.3l0,0c0.4,0.4,0.7,0.8,0.9,1.2c0.1,0.2,0,0.5-0.1,0.9
			c-0.1,0.3-0.1,0.8-0.1,1.1c0,1.3,1,1.9,2.8,2.4h0.2c0.3,0,0.6-0.3,0.9-0.3l0-0.1c0.2,0,0.4-0.2,0.6-0.2h0c0.8,0,0.9,0.1,0.9,0.3
			c0.3,0.7,0.2,1.9,0.2,2.9c0,0.4,0,0.8,0,1.1l-4.6,7.5H68.8c0.3-0.6,0.3-1.8,0.2-2.7c-0.1-0.5-0.3-1-0.5-1.3c0-0.1-0.1-0.2-0.1-0.2
			l-0.1-0.2c-0.2-0.3-0.3-0.5-0.3-0.7c0-0.7,0.3-1.6,0.8-1.8c0,0,0.2,0,0.3,0c0,0,0.1,0,0.1,0c0.4,0,1.4-0.1,1.6-1.3
			c0-0.2,0-0.4,0.1-0.6c0-0.5,0-0.5,0.2-0.6c0.1-0.1,0.2-0.1,0.4-0.2c0.5-0.1,1.3-0.4,1.5-1.6c0.1-0.5,0-1.4-0.5-1.9
			c-0.3-0.3-0.7-0.5-1.1-0.5c0,0-0.3,0-0.3,0c-0.4,0.1-0.8,0.4-1.2,0.7c-0.1,0.1-0.1,0.1-0.2,0.2c-0.1-1-0.8-1.2-1.2-1.2
			c-0.2,0-0.4,0-0.6,0.1c-1.3,0.4-2,1.3-2.4,2c-0.2,0.3-0.3,0.3-0.9,0.4c-0.6,0.1-1.9,0.2-2.1,1.9c-0.1,0.5,0.1,1.2,0.3,2.4
			c0.1,0.6,0.2,1.4,0.2,1.6c0,0-0.1,0.1-0.4,0.4c0,0-0.1,0-0.1,0.1l-1.6-2.8l-0.1-0.4c-0.2-0.5-0.1-1.3-0.1-1.9l0-0.2
			c0-1,0.3-2.3,0.8-2.8c0.1,0,0.2-0.1,0.4-0.1c0.3-0.1,0.7-0.1,1.1-0.4c0.8-0.6,0.9-1.5,1-2c0.1-0.4,0.1-0.5,0.2-0.7l0.2-0.2
			c0.3-0.5,0.4-0.6,0.5-0.7C64.8,49,65,49,65.2,49c0.6,0,1.1,0.4,1.7,0.8c0.3,0.2,0.5,0.4,0.7,0.5c0.6,0.4,1.4,0.6,2.2,0.6
			c0.5,0,0.9-0.1,1.2-0.2c1.4-0.6,1.7-1.5,1.6-2.7c-0.1-1.1-0.5-1.8-1.1-2.6c-0.2-0.3-0.4-0.5-0.5-0.8l-0.1-0.2
			c-0.1-0.3-0.3-0.8-0.9-1c-0.3-0.1-0.7-0.2-1-0.2c-0.6,0-1.1,0.2-1.4,0.6c-0.3,0.3-0.4,0.6-0.4,0.9l0,0c0,0.1,0,0.1,0,0.1
			C67,45,67,45,66.8,45l-0.1,0c0,0-0.1-0.1-0.2-0.3l-0.1-0.2c-0.2-0.3-0.4-0.8-1.2-1c-0.2,0-0.4-0.1-0.6-0.1c-0.6,0-1.3,0.3-2,0.8
			c-0.5,0.4-0.8,0.9-1,1.3c-0.2,0.4-0.4,0.7-0.6,0.8c-0.1,0.1-0.3,0.1-0.4,0.1c-0.2,0-0.2,0-0.2-0.1c0-0.2,0-0.3,0.1-0.5
			c0.1-0.2,0.2-0.4,0.3-0.8c0.2-0.9-0.1-1.5-0.3-1.9c-0.4-0.5-1-0.8-1.8-0.8c-0.5,0-0.9,0.2-1.2,0.3l0,0c-0.1,0.1-0.2,0-0.3,0h0
			c-0.2,0-0.5-0.3-0.5-0.6c0-0.1,0-0.2,0-0.3c0,0,0-0.1,0-0.1c4.6-2.2,9.7-3.4,14.8-3.4c2.8,0,5.6,0.3,8.3,1
			C79.6,39.9,79.4,40.7,78.9,41.8z M66.2,61.1c0,0.8,0.4,1.4,0.7,1.9c0.2,0.3,0.4,0.6,0.4,0.8c0.2,1.3-0.1,1.7-0.2,1.8
			c0,0-0.1,0.1-0.4,0.1c-0.2,0-0.4,0-0.6-0.1l0,0c-0.2,0-0.5-0.1-0.7-0.1c0,0-0.1,0-0.1,0l-1.8-3c0,0,0.1-0.1,0.1-0.1
			c0.4-0.3,0.9-0.8,1-1.6c0-0.4-0.1-1-0.3-2c-0.1-0.6-0.3-1.6-0.3-1.9c0-0.3,0-0.3,0.6-0.4c0.7-0.1,1.7-0.2,2.3-1.3
			c0.3-0.6,0.6-0.9,1.1-1.1c0,0.3,0.1,0.6,0.4,0.9c0.3,0.3,0.6,0.4,0.9,0.4c0.6,0,1.2-0.4,1.7-0.8c0,0,0.2-0.1,0.2-0.2
			c0,0.1,0,0.2,0,0.4c-0.1,0-0.2,0.1-0.3,0.1c-0.3,0.1-0.6,0.2-0.9,0.4c-0.8,0.6-0.8,1.4-0.9,1.9l0,0c0,0.1,0,0.1,0,0.2
			c0,0,0,0-0.1,0c-0.3,0-0.7,0-1.1,0.3C66.8,58.4,66.3,59.9,66.2,61.1z M58.2,44.3c0.2-0.1,0.4-0.1,0.5-0.1c0.2,0,0.3,0.1,0.3,0.1
			c0,0,0.1,0.2,0,0.4c0,0.2-0.1,0.3-0.2,0.4c-0.1,0.3-0.3,0.7-0.3,1.3c0.1,1,0.8,1.7,1.9,1.7c0.3,0,0.7-0.1,1-0.2
			c0.8-0.3,1.2-1,1.5-1.6c0.2-0.3,0.4-0.6,0.5-0.8c0.4-0.3,0.7-0.4,1-0.4c0,0,0.1,0,0.2,0c0,0,0.1,0.1,0.1,0.1
			c0,0.1,0.1,0.2,0.2,0.3c0.4,0.6,0.8,1.1,1.8,1.2c0.9,0,1.5-0.4,1.8-1.2c0.1-0.1,0.1-0.3,0.1-0.4c0-0.1,0-0.1,0-0.2
			c0,0,0.1,0,0.1,0c0.1,0,0.2,0,0.2,0c0,0,0.1,0.1,0.1,0.2l0.1,0.2c0.2,0.5,0.5,0.8,0.7,1.1c0.5,0.6,0.7,1,0.7,1.7
			c0,0.7,0,0.7-0.6,1c-0.1,0-0.3,0.1-0.6,0.1c-0.5,0-0.9-0.1-1.2-0.3c-0.2-0.1-0.4-0.3-0.6-0.4l-0.1,0c-0.7-0.6-1.6-1.2-2.7-1.2
			c-0.4,0-0.8,0.1-1.2,0.2c-0.5,0.2-0.8,0.7-1.3,1.3L62.6,49c-0.4,0.6-0.5,1-0.5,1.6c0,0.4-0.1,0.6-0.3,0.7c-0.1,0-0.2,0.1-0.4,0.1
			c-0.4,0.1-0.9,0.2-1.3,0.6c-0.8,0.8-1.1,2.1-1.3,3.1l-1.1-1.9c-0.2-0.3-0.4-0.7-0.7-0.7l-13.2-0.3c3-4,6.7-7.2,11-9.6
			c0.2,1.1,1,1.9,2,2l0.2,0C57.6,44.6,58,44.4,58.2,44.3z M64,67.4c0.2,0.3,0.4,0.6,0.8,0.6h20.4l3.5,4.6c0,0,2,2.9,2.5,3.5
			l-2.5,0.2c-0.1-0.4-0.4-0.7-0.8-0.7h-0.4l-2.5-4.2l-0.1,0c-0.2-0.2-0.4-0.5-0.6-0.5h-3.5c-0.3,0-0.5,0.3-0.7,0.6
			c0,0.1-0.1,0-0.1,0.1c-0.1,0.3-0.1,0.8,0,1l1.8,2.9h-2.4c-0.2,0-0.3,0-0.5,0.2c0,0.1-0.1,0-0.1,0l-3.5,2.8c-0.3,0.3-0.3,0.9,0,1.3
			l3.1,3c0.1,0.1,0.2,0.1,0.4,0.1c0.1,0,0.2,0.1,0.3,0.1c0.1,0,0.1,0.1,0.2,0.1h7.1v0.9c0,0.1,0.3,0.3,0.4,0.4
			c0.1,0,0.2,0.1,0.3,0.1l1,1.1l-0.1,2.7L86,88.5l-3.5-4c-0.2-0.2-0.4-0.3-0.6-0.3c-0.2,0-0.4,0.1-0.6,0.2C81.1,84.5,81,84.7,81,85
			c0,0.2,0.1,0.5,0.2,0.6l3.4,3.9l-0.4,2.8l-2.1,0.1l-4.1-4.6c-0.2-0.2-0.4-0.3-0.6-0.3c-0.2,0-0.4,0.1-0.6,0.2
			c-0.4,0.3-0.4,0.9-0.1,1.2l4,4.6l-0.6,2.3h-2.2l-3.5-4.4c-0.1-0.2-0.3-0.4-0.6-0.4c-0.2,0-0.4,0-0.6,0.2c-0.2,0.1-0.3,0.3-0.3,0.6
			c0,0.2,0,0.5,0.2,0.7l3.7,4.7c0.1,1.1,0,2.6-0.8,2.9c-0.3,0.1-0.6,0.2-0.9,0.2c-0.9,0-1.9-0.6-2.9-1.8c0.9-2.5,0.5-5.3,0.5-5.4
			c-0.1-0.4-0.4-0.7-0.8-0.7h-2.2l0-2.4c0-0.5-0.4-0.9-0.8-0.9l-2-0.1l-0.1-2.1c0-0.4-0.3-0.7-0.7-0.8l-2.4-0.4l-0.2-2.1
			c0-0.4-0.3-0.7-0.7-0.8l-1.5-0.3c0,0,0-0.1,0.1-0.1c0.8-3.9-2.3-7.5-2.4-7.7l-8.7-10.2L41.4,54l15.2,0.4l2.2,3.9L64,67.4z
			 M61.9,85.9L59,89.2L57.1,89l-0.2-1.8l3.1-3.5l1.8,0.4L61.9,85.9z M58.4,90.9l0,0.8c-0.4-0.4-0.9-0.8-1.5-1L58.4,90.9z M62.1,92.5
			l-2,0l0-2l3-3.4l1.9,0.3l0.1,1.8L62.1,92.5z M59.8,94.3c0,0,0.1,0,0.2-0.1l1.6,0l-0.1,2.1c0,0.5,0.3,0.8,0.8,0.9l1.2,0.1
			c-0.5,0.6-0.9,1.2-1.2,1.6c-0.1,0.2-0.2,0.3-0.3,0.4c-0.2-0.1-0.5-0.2-0.8-0.4c-0.6-0.4-1.4-1.1-1.5-1.3c0-0.1-0.1-0.4-0.2-1.2
			c0-0.5-0.1-1.3-0.1-2C59.6,94.4,59.7,94.3,59.8,94.3z M63.3,95.6l0-1.8l3-3.3l1.6,0l0,2.1l-2.4,3.1L63.3,95.6z M66.8,96.9l2.4-3
			H71c0,0.6,0,2.6-0.5,4c-0.9,0.5-1.8,0.7-2.7,0.7c-0.1,0-0.3,0-0.4-0.1c-0.1,0-0.2-0.1-0.3-0.1L66.8,96.9z M82.2,72.8h1.5l1.6,2.9
			h-1.5L82.2,72.8z M77,79.7l2.8-2.8h6.6v4.7h-7.5L77,79.7z M41.3,56.2L50,66.5c0,0.9,0,1.9,0,2.7c0,0.4,0,0.7,0,1
			c-0.1,1.7-0.5,1.8-0.6,1.9L49,72.1c-1.2,0.4-1.6,0.5-2.5,1.8c-0.3,0.4-0.6,0.6-1,0.6c-0.2,0-0.4-0.1-0.6-0.2
			c-0.1-0.1-0.3-0.1-0.4-0.2c-0.4-0.2-0.7-0.4-1.4-0.4c-0.6,0-1,0.4-1.3,0.6c-0.1,0.1-0.1,0.1-0.1,0.1c-0.1,0.1-0.1,0.1-0.2,0.2
			c0,0-0.1,0.1-0.1,0.1c-0.2,0-0.4,0.1-0.6,0.1c-0.7,0-1.1-0.3-1.8-1.1c-0.5-0.5-1.1-1.2-2-1.3c0,0,0-0.2,0-0.2c0-0.2,0-0.4,0-0.6
			c0-0.2,0-0.3,0-0.5c0-0.1,0-0.3,0-0.4C37.4,65.6,38.8,60.7,41.3,56.2z M37.8,75c0.7,0.7,1.5,1.6,3.1,1.6c0.3,0,0.6,0,0.9-0.1
			c0.5-0.1,0.8-0.4,1-0.5c0.2-0.1,0.2-0.1,0.4-0.1c0.4,0,0.5,0,0.9,0.2c0.3,0.1,0.7,0.2,1.1,0.2c0.6,0,1.8-0.2,2.7-1.5
			c0.5-0.8,0.6-0.8,1.5-1.1l0.3-0.1c1.8-0.5,1.8-2.7,1.9-3.5c0-0.2,0-0.5,0-0.8l0-0.2c0-0.2,0-0.5,0-0.7l5.9,7c0,0,2.5,3,2,6
			l-4.2,4.8c-0.2,0.2-0.2,0.4-0.2,0.7l0.3,2.9c0,0.2,0.1,0.4,0.2,0.5c-0.2,0-0.4,0-0.6,0c-0.7,0-1.4,0.2-1.9,0.6
			c-1,0.8-1.1,1.6-1.2,2.2c-0.1,0.4-0.1,0.7-0.3,1c-0.4,0.6-0.7,0.6-1.3,0.7c-0.4,0.1-1,0.2-1.7,0.6c-0.6,0.3-1,1-1.2,2
			c-6.3-6.1-10-14.4-10.4-23.2C37.3,74.5,37.5,74.7,37.8,75z M49.6,96.9c0.4-0.2,0.7-0.3,1.1-0.4c0.7-0.1,1.6-0.3,2.4-1.5
			c0.4-0.6,0.5-1.2,0.6-1.6c0.1-0.5,0.1-0.8,0.6-1.1c0.3-0.2,0.6-0.2,0.9-0.2c0.9,0,2,0.5,2.3,1.2c0.1,0.1,0.1,0.3,0.2,0.5l0,0
			c0.1,0.9,0.2,2.2,0.3,2.7c0,0.8,0.1,1.3,0.3,1.7c0.3,0.8,2,1.9,2.2,2.1c0.4,0.3,1.2,0.8,1.9,0.8c0.1,0,0.2,0,0.3,0l0.2-0.1
			c0.6-0.4,0.9-1,1.3-1.6l0.1-0.2c0.2-0.3,0.4-0.7,0.7-1c0,0.2,0,0.4,0.1,0.7c0.1,0.5,0,0.6-0.1,0.8c-0.1,0.2-0.3,0.6-0.4,1.2
			c-0.4,2.2,1.4,3.3,2.3,3.9c0.2,0.2,0.3,1,0.3,2.2c-6.8-0.8-12.9-3.6-18.1-8.1C49.1,97.9,49.4,97.1,49.6,96.9z M87.5,52.8l-1.9,3.1
			c0-0.7-0.1-1.3-0.3-1.7c-0.5-1.2-1.7-1.3-2.4-1.3c0,0-0.2,0-0.2,0c-0.3,0-0.6,0.1-0.9,0.1c0,0-0.1,0-0.1,0c-0.1,0-0.3,0.1-0.4,0.1
			c0,0-0.1,0-0.1,0c-0.7,0-1.3-0.3-1.2-0.5c0-0.2,0.1-0.4,0.1-0.6l0-0.1c0.1-0.6,0.3-1.4-0.1-2.1c-0.3-0.6-0.8-1.1-1.2-1.5
			c-0.3-0.4-0.6-0.7-0.9-1.1c-0.5-0.8-0.6-1.3-0.5-1.5c0.1-0.4,0.4-0.8,1.2-1.2c1.2-0.5,1.7-1.2,2-2c0.5-1,0.8-1.9,0.9-2.7
			c3.7,1.1,7.2,2.9,10.3,5.1l0.1,0.1c0.1,0.1,0.3,0.2,0.4,0.3l0.1,0.1c0.2,0.1,0.3,0.3,0.5,0.4l0.1,0c2.2,1.8,4.3,3.9,6,6.2H88.2
			C87.9,52.2,87.6,52.6,87.5,52.8z M102.5,54.7l-1.1,1.2l-6.8,8.2c0,0,0,0,0,0l-1,1.3c0,0-4.2,5.1-4.2,5.1L86,66.2
			c0,0,0,0.1-0.1,0.1h-4.7l3.4-5.8c0,0,0-0.1,0-0.1l0.9-1.4l3.1-5.1h14.5L102.5,54.7z M121.6,51.3v-14c0,0,0-0.1,0-0.1
			c-0.1-1-0.9-2.9-2.9-2.9l-12.3-0.6c0,0,0,0-0.1,0c-1.1,0-2,0.4-2.6,1.1c-0.9,1-0.9,2.3-0.9,2.6v14.9H101h0
			c-0.6-1.2-1.1-1.8-2.3-2.6V27.2c0,0,0-0.1,0-0.1c0,0,0-0.1,0-0.1V12.5c0.6-0.1,0.6-0.4,1.2-0.4c0.2,0,0.4,0,0.6,0.1
			c0.9,0.8,5.2,4.4,13.6,5.8c7.6,1.4,10.2,2.5,13.2,5.4c3,2.9,4.5,6.3,4.3,10.1C131.3,41.1,124.6,48.3,121.6,51.3z"/>
		<path class="st0" d="M48.5,85.5L48.5,85.5c0-0.1,0.1-0.1,0.1-0.2c0,0,0,0,0,0c0.1,0,0.2,0,0.3,0c0.1,0,0.2,0,0.3,0l0,0
			c0.2,0,0.4,0.1,0.6,0.1c0.4,0,0.7-0.1,1-0.2c1.1-0.6,1.7-1.9,1.4-3.2c-0.1-0.5-0.3-0.9-0.5-1.2c-0.1-0.1-0.2-0.3-0.3-0.5
			c-0.6-1.4-1.5-3.2-2.8-3.6c-0.4-0.1-0.7-0.1-1.1-0.1c-0.2,0-0.4,0-0.6,0.1c-0.6,0.1-1,0.5-1.3,0.8c-0.3,0.3-0.3,0.3-0.5,0.3
			c-0.2,0-0.4-0.1-0.6-0.2c-0.2-0.1-0.4-0.2-0.6-0.3c-0.4-0.1-0.8-0.2-1.4-0.2c-0.6,0-1.2,0.1-1.5,0.2c-0.8,0.2-2.3,1.3-2.5,2.8
			c0,0.3-0.1,0.9,0,1.5c0.2,1,1,2.6,2.6,3.7c1.1,0.8,1.9,1.1,2.6,1.4c0.7,0.3,1.4,0.4,2.1,0.4h0c0.8,0,1.5-0.2,2.1-0.7
			C48.3,86,48.4,85.7,48.5,85.5z M46.9,84.8c0,0.1-0.1,0.2-0.1,0.2c-0.3,0.2-0.5,0.3-1,0.3c-0.5,0-1.1-0.1-1.6-0.3
			c-0.6-0.2-1.2-0.5-2.1-1.2c-1.3-1-1.8-2.2-1.9-2.7c0-0.2-0.1-0.6,0-1c0.1-0.6,1-1.3,1.2-1.3c0.1,0,0.5-0.1,1-0.1
			c0.3,0,0.6,0,0.9,0.1c0.2,0.1,0.3,0.1,0.4,0.2c0.4,0.2,0.8,0.4,1.5,0.4c0.8,0,1.2-0.4,1.6-0.8c0.2-0.2,0.3-0.3,0.4-0.3
			c0.1,0,0.2,0,0.3,0c0.2,0,0.4,0,0.6,0.1c0.1,0,0.7,0.3,1.7,2.6l0.1,0.2c0.1,0.2,0.2,0.4,0.3,0.5c0.1,0.3,0.3,0.5,0.3,0.7
			c0.1,0.5,0,1.1-0.5,1.4c0,0-0.1,0-0.2,0c-0.1,0-0.2,0-0.4,0l-0.1,0c-0.2,0-0.4,0-0.6,0c-0.4,0-0.8,0.1-1.1,0.3
			C47.2,84.1,47,84.5,46.9,84.8z"/>
	</g>
</g>
</svg>
