<?xml version="1.0" encoding="utf-8"?>
<!-- Generator: Adobe Illustrator 22.1.0, SVG Export Plug-In . SVG Version: 6.00 Build 0)  -->
<!DOCTYPE svg PUBLIC "-//W3C//DTD SVG 1.1//EN" "http://www.w3.org/Graphics/SVG/1.1/DTD/svg11.dtd">
<svg version="1.1" id="レイヤー_1" xmlns="http://www.w3.org/2000/svg" xmlns:xlink="http://www.w3.org/1999/xlink" x="0px"
	 y="0px" viewBox="0 0 200 150" style="enable-background:new 0 0 200 150;" xml:space="preserve">
<style type="text/css">
	.st0{fill:#3B8586;}
	.st1{fill:#FFFFFF;}
</style>
<g>
	<g>
		<polygon class="st0" points="62.8,60.3 66.1,61.6 68.7,56.8 67.8,52.5 54.7,53.6 54.7,58.7 64.5,57.2 		"/>
		<path class="st0" d="M77.9,59.7l-0.8-5.8c0,0-1.3-0.2-3.2,0.4l0.9,6.2L77.9,59.7z"/>
		<path class="st0" d="M82.1,58.9L82,53c0,0-1.4,0.2-3.3,0.6l0.3,5.7L82.1,58.9z"/>
		<path class="st0" d="M106.1,57.3c-2,0-8.4,0.9-8.8,9c0,0.7,0,1.4,0.1,2c-0.4,0.6-1.2,1.4-2.1,2.1c-1.8,1.3-3.8,1.3-4.9,0.1
			c-1.6-1.7-0.9-4.6-0.3-6.5l5,0.8l0.4-3.7l-4.1-0.8l1-3.2c0,0,2.6,0.4,4.6,0.7l1.3-4.4l-4.7-0.7l1.7-3.6l-3.2-0.9l-2,3.8l-3.7-0.8
			c0,0-1.9,3.9-1.4,4.1c0.5,0.2,3.5,1,3.5,1l-1.1,3l-4-1.4l-1.2,3.7L82.1,60l-8.5,3.8l-1.1-5.5l-4,0.9l1.7,7.9c0,0-0.8,1-1.3,2.8
			c-0.2,0.1-5.1,2.1-9.9,1.3c-2-0.3-3.7-1.5-3.7-1.5L54,73.5c0,0,4.5,2.9,10.1,2.2c2.3-0.3,3.7-0.6,4.6-0.9c0.1,0.7,0.3,1.5,0.5,2.3
			c0.8,2.8,4.6,4.2,8.8,4.2c3.8-0.1,8.1-1.5,8.1-1.5l-0.4-4c0,0-2.3,0.9-5.1,1.4c-2.2,0.4-4.4,0.8-6.2-0.8c-2.3-2-2.1-4.6,0-7.1
			c1.9-2.2,8.1-4.3,8.1-4.3l-0.3-2.7l3.6,1.2c0,0-1.6,4.4-0.6,7.8c0.8,2.6,4.2,4.6,6.8,4.7c2.3,0.1,5-1,7.3-4.2
			c2.4,1.7,5.9,1.1,5.9,1.1l1.5-12c0,0,0.8-0.4,2.2,1.6c1,1.6-0.6,9.7-0.6,9.7l3.8-0.4c0.9-6.8,0.5-9.3-0.4-11.4
			C111,58.2,108,57.3,106.1,57.3z M102.7,69.1c0,0-3.2,0-2.4-4.4c0.6-3.2,3.6-3.7,3.6-3.7L102.7,69.1z"/>
		<path class="st0" d="M155,60.1l-1.2-0.3c-0.2-0.1-0.4-0.1-0.5-0.2c-0.2-0.1-0.4-0.1-0.6-0.2c-0.2-0.1-0.4-0.1-0.6-0.2
			c-0.2-0.1-0.4-0.2-0.6-0.2l-0.6-0.3c-0.2-0.1-0.4-0.2-0.6-0.3l-3.2-1.5c-0.2-0.1-0.4-0.2-0.6-0.3c-0.2-0.1-0.4-0.2-0.6-0.4
			c-0.2-0.2-0.4-0.3-0.6-0.5c-0.2-0.2-0.5-0.4-0.7-0.6c-0.2-0.2-0.5-0.4-0.7-0.6l-1.5-1.4c-0.3-0.2-0.5-0.5-0.8-0.7
			c-0.3-0.2-0.5-0.5-0.8-0.7c-0.3-0.2-0.5-0.4-0.8-0.6c-0.3-0.2-0.6-0.4-0.8-0.6c-0.3-0.2-0.6-0.4-0.8-0.5c-0.3-0.2-0.6-0.3-0.8-0.4
			c-0.3-0.1-0.6-0.3-0.9-0.4c-0.3-0.1-0.6-0.2-0.9-0.3c-0.3-0.1-0.6-0.1-0.9-0.2c-0.3,0-0.6-0.1-0.8-0.1c-0.5,0-1.1,0-1.6,0
			c-0.3,0-0.5,0-0.8,0.1c-0.3,0-0.5,0.1-0.8,0.1s-0.5,0.1-0.7,0.1c-0.2,0.1-0.5,0.1-0.7,0.2l-2.1,0.5c-0.2,0.1-0.4,0.1-0.7,0.2
			c-0.2,0.1-0.4,0.1-0.7,0.1c-0.2,0-0.4,0.1-0.6,0.1c-0.2,0-0.4,0.1-0.7,0.1c-0.2,0-0.4,0.1-0.6,0.1c-0.2,0-0.4,0-0.6,0
			c-0.2,0-0.5,0-0.7,0l-1.4,0c-0.2,0-0.5,0-0.7,0c-0.2,0-0.5,0-0.7,0c-0.2,0-0.5,0-0.7-0.1c-0.2,0-0.5-0.1-0.7-0.1
			c-0.2,0-0.5-0.1-0.7-0.1c-0.2-0.1-0.5-0.1-0.7-0.2l-3.9-1.1l-3.1-0.9c-0.2-0.1-0.5-0.2-0.7-0.2c-0.3-0.1-0.5-0.2-0.8-0.3
			c-0.3-0.1-0.5-0.2-0.8-0.3c-0.3-0.1-0.5-0.2-0.8-0.3l-1.6-0.7c-0.3-0.1-0.5-0.2-0.8-0.4c-0.3-0.1-0.5-0.3-0.8-0.4l-0.8-0.4
			c-0.3-0.1-0.5-0.3-0.8-0.4c-0.3-0.2-0.5-0.3-0.8-0.5c-0.3-0.2-0.6-0.3-0.9-0.5l-1.8-1.1c-0.3-0.2-0.6-0.4-0.9-0.5
			c-0.3-0.2-0.6-0.3-0.9-0.5l-0.9-0.5c-0.3-0.2-0.6-0.3-0.9-0.5c-0.3-0.2-0.6-0.3-0.9-0.5l-1.7-0.9c-0.3-0.2-0.6-0.3-0.9-0.4
			c-0.3-0.1-0.6-0.3-0.9-0.4c-0.3-0.1-0.6-0.3-0.9-0.4c-0.3-0.1-0.6-0.2-0.9-0.3c-0.3-0.1-0.6-0.2-0.8-0.2C88.2,37.1,88,37,87.7,37
			c-0.3,0-0.5-0.1-0.8-0.1c-0.3,0-0.5,0-0.8-0.1c-0.5,0-1,0-1.4,0c-0.2,0-0.5,0-0.7,0.1c-0.2,0-0.4,0-0.7,0.1l-6.8,0.8
			c-0.2,0-0.4,0-0.5,0c-0.3,0-0.7,0-1,0c-0.2,0-0.3,0-0.5,0c-0.2,0-0.3,0-0.5,0c-0.2,0-0.4,0-0.5-0.1c-0.2,0-0.4-0.1-0.5-0.1
			c-0.2,0-0.4-0.1-0.5-0.1c-0.2,0-0.4-0.1-0.5-0.1c-0.2,0-0.4-0.1-0.5-0.1l-18.5-5v-2.3l4.4-5.5l-7.6-11.7l-8.3,11.1l4.5,6.7v88.5
			h6.6l0.3-0.3v-20l38-9.8c0.3-0.1,0.5-0.1,0.8-0.2c0.3-0.1,0.5-0.1,0.8-0.2c0.3-0.1,0.5-0.2,0.8-0.3c0.3-0.1,0.5-0.2,0.8-0.3
			c0.2-0.1,0.5-0.2,0.7-0.3c0.2-0.1,0.5-0.2,0.7-0.4c0.2-0.1,0.4-0.3,0.7-0.4c0.2-0.1,0.5-0.3,0.7-0.4c0.2-0.2,0.4-0.3,0.7-0.5
			c0.2-0.2,0.4-0.4,0.6-0.5c0.2-0.2,0.4-0.4,0.6-0.5c0.2-0.2,0.4-0.4,0.5-0.6l0.5-0.6c0.2-0.2,0.4-0.4,0.5-0.6
			c0.2-0.2,0.3-0.4,0.5-0.6c0.2-0.2,0.3-0.4,0.5-0.6c0.2-0.2,0.3-0.4,0.5-0.5c0.2-0.2,0.3-0.3,0.5-0.5c0.2-0.2,0.3-0.3,0.5-0.4
			c0.2-0.1,0.3-0.2,0.5-0.4c0.2-0.1,0.3-0.2,0.5-0.3c0.2-0.1,0.4-0.1,0.6-0.2c0.2-0.1,0.4-0.1,0.6-0.1c0.2,0,0.5,0,0.7,0
			c0.3,0,0.5,0,0.8,0c0.3,0,0.6,0.1,0.9,0.1c0.3,0,0.6,0.1,1,0.2c0.3,0.1,0.7,0.1,1,0.2l3.2,0.7c0.4,0.1,0.7,0.1,1.1,0.2
			c0.4,0.1,0.7,0.1,1.1,0.2c0.4,0.1,0.7,0.1,1.1,0.1c0.4,0,0.7,0.1,1,0.1c0.3,0,0.7,0,1,0.1c0.3,0,0.7,0,1,0c0.3,0,0.6,0,0.9,0
			c0.3,0,0.6,0,0.9-0.1c0.3,0,0.6-0.1,0.9-0.1c0.3,0,0.6-0.1,0.9-0.1c0.3-0.1,0.6-0.1,0.9-0.2c0.3-0.1,0.6-0.2,0.9-0.2
			c0.3-0.1,0.6-0.2,0.9-0.3l1.1-0.5l4.7-2.4c0.2-0.1,0.4-0.2,0.5-0.3c0.2-0.1,0.4-0.2,0.5-0.3c0.2-0.1,0.4-0.2,0.5-0.4l0.5-0.4
			c0.2-0.1,0.3-0.3,0.5-0.4l1-0.8c0.2-0.2,0.5-0.4,0.7-0.5c0.2-0.2,0.5-0.3,0.7-0.5c0.2-0.2,0.4-0.3,0.7-0.5
			c0.2-0.1,0.5-0.3,0.7-0.4l0.7-0.4c0.2-0.1,0.4-0.3,0.7-0.4c0.2-0.1,0.4-0.2,0.6-0.3c0.2-0.1,0.4-0.1,0.6-0.2
			c0.2-0.1,0.4-0.1,0.6-0.1c0.2,0,0.4-0.1,0.6-0.1c0.2,0,0.4,0,0.6,0c0.2,0,0.4,0,0.6,0.1c0.2,0,0.5,0.1,0.7,0.1
			c0.2,0,0.5,0.1,0.7,0.1l1.5,0.3c0.3,0.1,0.5,0.1,0.8,0.2c0.3,0.1,0.5,0.1,0.8,0.2c0.3,0,0.5,0.1,0.8,0.1l0.7,0.1
			c0.2,0,0.5,0.1,0.7,0.1c0.2,0,0.5,0.1,0.7,0.1c0.2,0,0.5,0,0.7,0.1c0.2,0,0.5,0,0.7,0c0.2,0,0.5,0,0.7,0c0.2,0,0.5,0,0.7,0
			c0.2,0,0.5,0,0.7-0.1c0.2,0,0.5-0.1,0.7-0.1l0.6-0.1l24.1-6L155,60.1z M136.4,69.8l-0.7,0.4c-0.3,0.2-0.5,0.3-0.8,0.5
			c-0.3,0.2-0.5,0.3-0.8,0.5c-0.3,0.2-0.5,0.4-0.8,0.6c-0.2,0.2-0.5,0.4-0.7,0.6l-0.9,0.7c-0.2,0.1-0.3,0.2-0.5,0.3l-0.5,0.3
			c-0.2,0.1-0.3,0.2-0.5,0.3c-0.1,0.1-0.3,0.2-0.4,0.3l-2,1.1l-4,1.9c-0.2,0.1-0.4,0.2-0.7,0.2c-0.2,0.1-0.4,0.1-0.7,0.2
			c-0.2,0.1-0.5,0.1-0.7,0.1c-0.2,0-0.5,0.1-0.8,0.1c-0.3,0-0.5,0.1-0.8,0.1c-0.3,0-0.5,0-0.8,0.1c-0.3,0-0.6,0-0.8,0
			c-0.3,0-0.6,0-0.8,0c-0.3,0-0.6,0-0.9,0c-0.3,0-0.6-0.1-0.9-0.1c-0.3,0-0.6-0.1-1-0.1c-0.3,0-0.7-0.1-1-0.2
			c-0.3-0.1-0.7-0.1-1-0.2l-3.2-0.7c-0.4-0.1-0.7-0.1-1.1-0.2c-0.4-0.1-0.7-0.1-1.1-0.2c-0.4-0.1-0.7-0.1-1.1-0.1
			c-0.4,0-0.7,0-1.1,0c-0.4,0-0.7,0-1.1,0.1c-0.4,0-0.7,0.1-1,0.2c-0.3,0.1-0.7,0.2-1,0.3c-0.3,0.1-0.6,0.3-0.9,0.5
			c-0.3,0.2-0.5,0.4-0.8,0.6c-0.2,0.2-0.5,0.4-0.7,0.6c-0.2,0.2-0.4,0.4-0.6,0.6c-0.2,0.2-0.4,0.4-0.6,0.7c-0.2,0.2-0.3,0.4-0.6,0.7
			c-0.1,0.2-0.3,0.4-0.4,0.6c-0.1,0.2-0.3,0.4-0.5,0.5l-0.5,0.5c-0.2,0.2-0.3,0.3-0.5,0.5c-0.2,0.2-0.3,0.3-0.5,0.5
			c-0.2,0.1-0.3,0.3-0.5,0.4c-0.2,0.1-0.3,0.3-0.5,0.4c-0.2,0.1-0.3,0.2-0.5,0.3c-0.2,0.1-0.4,0.2-0.5,0.3c-0.2,0.1-0.4,0.2-0.6,0.3
			c-0.2,0.1-0.4,0.2-0.6,0.3c-0.2,0.1-0.4,0.2-0.6,0.2c-0.2,0.1-0.4,0.1-0.6,0.2c-0.2,0.1-0.4,0.1-0.7,0.2c-0.2,0.1-0.5,0.1-0.7,0.2
			L53,95.7V35.3l14.8,4.1l2.8,0.8c0.2,0.1,0.4,0.1,0.6,0.2c0.2,0,0.4,0.1,0.6,0.1c0.2,0,0.4,0.1,0.6,0.1c0.2,0,0.4,0.1,0.6,0.1
			c0.2,0,0.4,0.1,0.6,0.1c0.2,0,0.4,0,0.6,0.1c0.2,0,0.4,0,0.6,0c0.4,0,0.8,0,1.2,0c0.2,0,0.4,0,0.6,0l7-0.8c0.2,0,0.4,0,0.6-0.1
			c0.2,0,0.4,0,0.5,0c0.4,0,0.7,0,1.1,0c0.2,0,0.4,0,0.6,0c0.2,0,0.4,0,0.6,0.1c0.2,0,0.4,0.1,0.6,0.1c0.2,0.1,0.4,0.1,0.6,0.2
			c0.2,0.1,0.5,0.2,0.7,0.2c0.2,0.1,0.5,0.2,0.7,0.3c0.3,0.1,0.5,0.2,0.8,0.4c0.3,0.1,0.5,0.3,0.8,0.4l1.7,0.9
			c0.3,0.1,0.5,0.3,0.8,0.4c0.3,0.2,0.5,0.3,0.8,0.5l0.8,0.5c0.3,0.2,0.6,0.3,0.8,0.5c0.3,0.2,0.6,0.3,0.8,0.5l1.8,1.1
			c0.3,0.2,0.6,0.4,0.9,0.5c0.3,0.2,0.6,0.4,0.9,0.5c0.3,0.2,0.6,0.3,0.9,0.5l0.8,0.4c0.3,0.1,0.6,0.3,0.9,0.4
			c0.3,0.1,0.6,0.3,0.9,0.4l1.7,0.7c0.3,0.1,0.6,0.2,0.8,0.3c0.3,0.1,0.6,0.2,0.8,0.3c0.3,0.1,0.6,0.2,0.8,0.3
			c0.3,0.1,0.6,0.2,0.8,0.3l7,2c0.3,0.1,0.5,0.1,0.8,0.2c0.3,0.1,0.6,0.1,0.9,0.2c0.3,0.1,0.6,0.1,0.8,0.1c0.3,0,0.5,0.1,0.8,0.1
			c0.3,0,0.5,0,0.8,0.1c0.3,0,0.5,0,0.8,0l1.5,0c0.3,0,0.5,0,0.8,0c0.3,0,0.5,0,0.8,0c0.3,0,0.5,0,0.8-0.1c0.3,0,0.5-0.1,0.8-0.1
			c0.3,0,0.5-0.1,0.8-0.1c0.2,0,0.5-0.1,0.7-0.2c0.2-0.1,0.5-0.1,0.7-0.2l1-0.2c0.1,1,0.4,2.3,0.8,3.8l-7.6,0.4l0,6.3l-2.3,0.1
			l-0.1-4.7l-4.7,0.2l0.5,4.8l-2.1,0.1l0.1,3.6l2.4-0.3l0.5,4.8l-3.6,1.4l1.4,3.5l7.9-4.1l0,3.7l3.2-0.1l0.6-10.5l1.6-0.2l-0.1,8.1
			l3.1-0.4l0.1-10.6l-4.6,0.3l0.2-3.1l4.4-0.3c0.5,1.4,1,2.8,1.6,4c0.3,0.6,0.6,1.2,1,1.7l-2.3,2.2l2.1,3.1l2.3-2.3
			c0.5,0.6,0.9,1.1,1.3,1.5C136.6,69.7,136.5,69.8,136.4,69.8z M122.3,69.2l-2.3,0.9l0-3.9l2.3-0.3L122.3,69.2z M138.2,53.5
			C138.2,53.5,138.2,53.5,138.2,53.5c0.3,0.2,0.5,0.4,0.7,0.6c0.2,0.2,0.5,0.4,0.7,0.6c0.2,0.2,0.5,0.4,0.8,0.7l1.5,1.4
			c0.3,0.2,0.5,0.5,0.8,0.7c0.3,0.2,0.5,0.4,0.8,0.6c0.3,0.2,0.5,0.4,0.8,0.6c0.3,0.2,0.5,0.4,0.8,0.5c0.3,0.2,0.5,0.3,0.8,0.4
			l3.3,1.6c0.2,0.1,0.4,0.2,0.7,0.3c0.2,0.1,0.4,0.2,0.7,0.3c0.2,0.1,0.4,0.2,0.6,0.3c0.2,0.1,0.4,0.2,0.6,0.2
			c0.2,0.1,0.4,0.2,0.6,0.2c0.2,0.1,0.4,0.1,0.6,0.2l13.9,3.8l-8.5,2.2l-5.1,1c-0.2,0-0.4,0-0.6,0.1c-0.2,0-0.4,0-0.6,0
			c-0.2,0-0.4,0-0.6,0c-0.2,0-0.4,0-0.6,0c-0.2,0-0.4,0-0.6,0c-0.2,0-0.4,0-0.6,0c-0.2,0-0.4,0-0.6-0.1c-0.2,0-0.4-0.1-0.7-0.1
			l-0.7-0.1c-0.2,0-0.4-0.1-0.7-0.1c-0.2,0-0.5-0.1-0.7-0.1c-0.2-0.1-0.5-0.1-0.7-0.2l-1.5-0.4c-0.3-0.1-0.5-0.1-0.8-0.2
			c-0.3,0-0.5-0.1-0.8-0.1c-0.3,0-0.6-0.1-0.9-0.1c-0.3,0-0.6,0-0.9,0c-0.3,0-0.6,0.1-0.9,0.1c-0.5-0.6-1.2-1.5-2-2.7l2-2l-2-2.7
			l-1.8,1.7c-0.2-0.4-0.4-0.9-0.6-1.3c-0.3-0.7-0.5-1.4-0.8-2.1l5.5-0.3l-0.2-3.2l-6.1,0.3c-0.4-1.8-0.6-3.5-0.7-4.3
			c0.3,0,0.6,0,0.8,0c0.2,0,0.4,0,0.6,0.1c0.2,0,0.4,0.1,0.6,0.1c0.1,0,0.2,0.1,0.3,0.1C135.3,51.9,136.6,52.2,138.2,53.5z"/>
	</g>
	
		<ellipse transform="matrix(0.9358 -0.3525 0.3525 0.9358 -40.7354 19.5786)" class="st0" cx="33.4" cy="121.7" rx="20.1" ry="14.8"/>
</g>
<g>
	<g>
		<g>
			<rect x="61" y="92.3" class="st1" width="22.5" height="21.3"/>
			<path class="st0" d="M84.2,114.4H60.3V91.6h23.9V114.4z M61.8,112.9h21V93.1h-21V112.9z"/>
		</g>
		<g>
			<rect x="83.5" y="92.3" class="st1" width="22.5" height="21.3"/>
			<path class="st0" d="M106.7,114.4H82.8V91.6h23.9V114.4z M84.2,112.9h21V93.1h-21V112.9z"/>
		</g>
		<g>
			<rect x="106" y="92.3" class="st1" width="22.5" height="21.3"/>
			<path class="st0" d="M129.2,114.4h-23.9V91.6h23.9V114.4z M106.7,112.9h21V93.1h-21V112.9z"/>
		</g>
		<g>
			<rect x="128.4" y="92.3" class="st1" width="22.5" height="21.3"/>
			<path class="st0" d="M151.6,114.4h-23.9V91.6h23.9V114.4z M129.2,112.9h21V93.1h-21V112.9z"/>
		</g>
		<g>
			<rect x="150.9" y="92.3" class="st1" width="22.5" height="21.3"/>
			<path class="st0" d="M174.1,114.4h-23.9V91.6h23.9V114.4z M151.6,112.9h21V93.1h-21V112.9z"/>
		</g>
	</g>
	<g>
		<g>
			<rect x="73" y="113.7" class="st1" width="22.5" height="21.3"/>
			<path class="st0" d="M96.2,135.7H72.3v-22.8h23.9V135.7z M73.8,134.3h21v-19.9h-21V134.3z"/>
		</g>
		<g>
			<rect x="95.5" y="113.7" class="st1" width="22.5" height="21.3"/>
			<path class="st0" d="M118.7,135.7H94.8v-22.8h23.9V135.7z M96.2,134.3h21v-19.9h-21V134.3z"/>
		</g>
		<g>
			<rect x="118" y="113.7" class="st1" width="22.5" height="21.3"/>
			<path class="st0" d="M141.2,135.7h-23.9v-22.8h23.9V135.7z M118.7,134.3h21v-19.9h-21V134.3z"/>
		</g>
		<g>
			<rect x="140.4" y="113.7" class="st1" width="22.5" height="21.3"/>
			<path class="st0" d="M163.6,135.7h-23.9v-22.8h23.9V135.7z M141.2,134.3h21v-19.9h-21V134.3z"/>
		</g>
		<g>
			<rect x="162.9" y="113.7" class="st1" width="22.5" height="21.3"/>
			<path class="st0" d="M186.1,135.7h-23.9v-22.8h23.9V135.7z M163.6,134.3h21v-19.9h-21V134.3z"/>
		</g>
	</g>
	<g>
		<path class="st0" d="M69,104.8l1.6,0.1c-0.1,1.4-0.6,2.6-1.4,3.4c-0.9,0.9-2.2,1.5-4,2l-0.7-1.4c1.6-0.4,2.7-0.9,3.4-1.5
			C68.5,106.8,68.9,105.9,69,104.8z M65.5,104.9v-8.7h1.7v8.7H65.5z M70.6,104.3H69v-7.9h9v7.9H70.6z M70.6,99.7h5.6v-1.9h-5.6V99.7
			z M70.6,101v1.9h5.6V101H70.6z M72.7,104.8h1.7v3.2c0,0.1,0,0.2,0,0.3c0,0.1,0,0.1,0.1,0.2s0.1,0.1,0.3,0.1c0.2,0,0.3,0,0.4,0
			c0.1,0,0.3,0,0.7,0c0.3,0,0.4,0,0.5,0c0,0,0.1,0,0.2,0c0.1,0,0.1,0,0.2,0c0.1,0,0.2-0.1,0.2-0.1c0.1-0.1,0.1-0.2,0.1-0.2
			c0-0.1,0.1-0.2,0.1-0.4c0-0.2,0-0.4,0-0.6c0-0.2,0-0.5,0-0.9l1.7,0.1c0,0.5,0,0.9,0,1.2c0,0.2-0.1,0.5-0.1,0.9
			c-0.1,0.4-0.1,0.6-0.1,0.7c-0.1,0.2-0.1,0.3-0.3,0.4c-0.1,0.1-0.3,0.2-0.4,0.3c-0.1,0-0.3,0.1-0.6,0.1c-0.3,0.1-0.5,0.1-0.7,0.1
			h-1c-0.6,0-1,0-1.2,0c-0.3,0-0.5,0-0.8-0.1c-0.2,0-0.4-0.1-0.5-0.2c-0.1-0.1-0.2-0.2-0.3-0.3c-0.1-0.2-0.2-0.3-0.2-0.5
			c0-0.2,0-0.5,0-0.7V104.8z"/>
		<path class="st0" d="M86.9,101v-1.3h3.7c-0.3-0.5-0.5-0.9-0.8-1.3h-2.2V97h5.6v-1.3H95V97h5.6v1.4h-2.2c-0.2,0.5-0.5,0.9-0.7,1.3
			h3.6v1.3H86.9z M95,106.1v0.6h5.5v1.3H95v0.6h6.3v1.4H87v-1.4h6.3v-0.6h-5.5v-1.3h5.5v-0.6h-3.2h-1.7v-4.6h11.5v4.6H95z
			 M90.1,103.3h3.2v-0.6h-3.2V103.3z M93.3,105v-0.6h-3.2v0.6H93.3z M95.8,99.7c0.3-0.4,0.5-0.8,0.8-1.3h-4.9
			c0.2,0.4,0.5,0.8,0.7,1.3H95.8z M95,103.3h3.2v-0.6H95V103.3z M95,105h3.2v-0.6H95V105z"/>
		<path class="st0" d="M109.2,100.5c1.3-0.7,2.4-1.4,3.3-2.1c1-0.7,2-1.6,2.9-2.5h2.1c1,0.9,1.9,1.7,2.9,2.5c0.9,0.7,2,1.4,3.3,2.1
			l-0.7,1.4c-0.7-0.4-1.4-0.8-2.1-1.2v1.1h-9v-1.1c-0.7,0.5-1.4,0.9-2.1,1.2L109.2,100.5z M112.7,109.6v0.8h-1.7v-6.9h11.2v6.9h-1.7
			v-0.8H112.7z M112.5,100.4h8.2c-1.5-1-2.8-2.1-4.1-3.4C115.3,98.3,113.9,99.4,112.5,100.4z M120.4,108.2v-3.3h-7.7v3.3H120.4z"/>
		<path class="st0" d="M133.4,108.8v1h-1.6v-13h4.4v12H133.4z M134.6,107.3v-9.1h-1.2v9.1H134.6z M138.4,109.6v0.6h-1.6v-6.9h9.5
			v6.9h-1.7v-0.6H138.4z M138.8,102.5h-1.6v-6.1h8.7v6.1H138.8z M144.6,105.9v-1.2h-6.1v1.2H144.6z M138.4,108.3h6.1v-1.3h-6.1
			V108.3z M138.8,98.9h5.4v-1.2h-5.4V98.9z M138.8,101.2h5.4V100h-5.4V101.2z"/>
		<path class="st0" d="M156.2,109.7v0.7h-1.7V96.3h13.7v14.1h-1.7v-0.7H156.2z M166.5,108.3V97.7h-10.3v10.6H166.5z M166,99.6v1.4
			h-1.5v4.3c0,0.5,0,0.8,0,0.9c0,0.3,0,0.5-0.1,0.7c0,0.2-0.1,0.3-0.2,0.4c-0.1,0.1-0.2,0.2-0.3,0.2c-0.2,0.1-0.3,0.1-0.5,0.1
			c-0.1,0-0.3,0-0.7,0c-0.5,0-1.4,0-2.6-0.1l0-1.4c0.9,0.1,1.6,0.1,2,0.1c0.4,0,0.6,0,0.6-0.1c0.1-0.1,0.1-0.3,0.1-0.8V101h-6.2
			v-1.4h6.2v-1.5h1.6v1.5H166z M157.8,102.3l1.4-0.8c0.8,1.1,1.5,2.2,2.1,3.4l-1.4,0.8C159.3,104.5,158.6,103.4,157.8,102.3z"/>
	</g>
	<g>
		<path class="st0" d="M79.5,124.4c-0.8-0.8-1.8-1.6-2.9-2.4l1-1.2c1.1,0.8,2,1.6,2.9,2.4L79.5,124.4z M80.8,126.3
			c-0.6,1.9-1.4,3.6-2.4,5.2l-1.4-0.9c1-1.5,1.7-3.1,2.4-4.8L80.8,126.3z M77.4,118.4l1-1.2c1,0.7,1.9,1.4,2.6,2.2l-1,1.2
			C79.3,119.9,78.4,119.2,77.4,118.4z M80.3,131.4l-0.2-1.4c0.6-0.1,1.1-0.1,1.7-0.2v-5.3h1.7v1.4h2.5v1.4h-2.5v2.2
			c0.7-0.1,1.5-0.4,2.5-0.6l0.2,1.4C84.1,130.8,82.2,131.1,80.3,131.4z M83.4,123.8h-1.6v-6.3h9v6.3H83.4z M83.4,120.1h5.7v-1.2
			h-5.7V120.1z M83.4,121.3v1.3h5.7v-1.3H83.4z M89,131.2c-0.3,0-0.7,0-1.2,0c-0.6,0-0.9-0.1-1-0.2c-0.1-0.1-0.2-0.4-0.2-0.9v-5.7
			h1.7v1.6c0.9-0.3,1.8-0.8,2.8-1.3l0.6,1.3c-1.1,0.6-2.2,1.1-3.4,1.5v2c0,0.2,0,0.3,0,0.3c0,0,0.1,0,0.3,0.1h0.5h0.5
			c0.3,0,0.4-0.1,0.4-0.3c0.1-0.2,0.1-0.8,0.2-1.7l1.5,0.2c0,0.1,0,0.4-0.1,1c0,0.1,0,0.4-0.1,0.7c0,0.3-0.1,0.5-0.1,0.6
			c0,0.2-0.1,0.3-0.1,0.4c-0.1,0.1-0.1,0.2-0.2,0.3c0,0-0.1,0.1-0.3,0.1c-0.1,0.1-0.2,0.1-0.3,0.1c0,0-0.1,0-0.2,0
			c-0.1,0-0.2,0-0.2,0C89.7,131.2,89.3,131.2,89,131.2z"/>
		<path class="st0" d="M102.4,127.4c-0.1,0.5-0.2,1-0.3,1.4c-0.3,1-0.8,1.8-1.5,2.6l-1.3-1c0.6-0.7,1-1.5,1.2-2.4
			c0.2-0.9,0.4-2.1,0.4-3.6v-1.8h11.6v5.7h-1.6v-0.9H102.4z M113.8,118.1v1.3h-6.3v0.9h5.5v1.3h-12.8v-1.3h5.5v-0.9h-6.3v-1.3h6.3
			V117h1.8v1.1H113.8z M105.8,123.9h-3.2v1.2c0,0.4,0,0.7,0,0.9h3.2V123.9z M107.5,123.9v2.2h3.4v-2.2H107.5z"/>
		<path class="st0" d="M121.7,121.7c1.3-0.7,2.4-1.4,3.3-2.1c1-0.7,2-1.6,2.9-2.5h2.1c1,0.9,1.9,1.7,2.9,2.5c0.9,0.7,2,1.4,3.3,2.1
			l-0.7,1.4c-0.7-0.4-1.4-0.8-2.1-1.2v1.1h-9v-1.1c-0.7,0.5-1.4,0.9-2.1,1.2L121.7,121.7z M125.2,130.7v0.8h-1.7v-6.9h11.2v6.9h-1.7
			v-0.8H125.2z M125,121.6h8.2c-1.5-1-2.8-2.1-4.1-3.4C127.8,119.5,126.4,120.6,125,121.6z M132.9,129.3v-3.3h-7.7v3.3H132.9z"/>
		<path class="st0" d="M145.9,130v1h-1.6v-13h4.4v12H145.9z M147.1,128.5v-9.1h-1.2v9.1H147.1z M150.9,130.8v0.6h-1.6v-6.9h9.5v6.9
			h-1.7v-0.6H150.9z M151.3,123.6h-1.6v-6.1h8.7v6.1H151.3z M157.1,127v-1.2h-6.1v1.2H157.1z M150.9,129.5h6.1v-1.3h-6.1V129.5z
			 M151.3,120h5.4v-1.2h-5.4V120z M151.3,122.4h5.4v-1.2h-5.4V122.4z"/>
		<path class="st0" d="M168.7,130.9v0.7H167v-14.1h13.7v14.1H179v-0.7H168.7z M179,129.5v-10.6h-10.3v10.6H179z M178.5,120.8v1.4
			H177v4.3c0,0.5,0,0.8,0,0.9c0,0.3,0,0.5-0.1,0.7c0,0.2-0.1,0.3-0.2,0.4c-0.1,0.1-0.2,0.2-0.3,0.2c-0.2,0.1-0.3,0.1-0.5,0.1
			c-0.1,0-0.3,0-0.7,0c-0.5,0-1.4,0-2.6-0.1l0-1.4c0.9,0.1,1.6,0.1,2,0.1c0.4,0,0.6,0,0.6-0.1c0.1-0.1,0.1-0.3,0.1-0.8v-4.5h-6.2
			v-1.4h6.2v-1.5h1.6v1.5H178.5z M170.3,123.5l1.4-0.8c0.8,1.1,1.5,2.2,2.1,3.4l-1.4,0.8C171.8,125.6,171.1,124.5,170.3,123.5z"/>
	</g>
</g>
<ellipse transform="matrix(0.3781 -0.9258 0.9258 0.3781 35.6965 159.5168)" class="st0" cx="136.6" cy="53.2" rx="2" ry="2.4"/>
</svg>
