<?xml version="1.0" encoding="utf-8"?>
<!-- Generator: Adobe Illustrator 23.0.1, SVG Export Plug-In . SVG Version: 6.00 Build 0)  -->
<svg version="1.1" id="レイヤー_1" xmlns="http://www.w3.org/2000/svg" xmlns:xlink="http://www.w3.org/1999/xlink" x="0px"
	 y="0px" viewBox="0 0 175 126" style="enable-background:new 0 0 175 126;" xml:space="preserve">
<style type="text/css">
	.st0{fill:#FFFFFF;}
	.st1{fill:#3B8586;}
</style>
<g>
	<path class="st0" d="M122.6,56l-2.3,2.3l-2.1-3.1l2.3-2.2c-0.4-0.5-0.7-1.1-1-1.7c-0.6-1.2-1.1-2.6-1.6-4l-4.4,0.3l-0.2,3.1
		l4.6-0.3L117.8,61l-3.1,0.4l0.1-8.1l-1.6,0.2L112.6,64l-3.2,0.1v-3.7l-7.9,4.1l-1.4-3.5l3.6-1.4l-0.5-4.8l-2.4,0.3l-0.1-3.6
		l2.1-0.1l-0.5-4.8l4.7-0.2l0.1,4.7l2.3-0.1v-6.3l7.6-0.4c-0.4-1.5-0.7-2.8-0.8-3.8l-1,0.2c-0.2,0.1-0.5,0.1-0.7,0.2
		c-0.2,0.1-0.5,0.2-0.7,0.2c-0.3,0-0.5,0.1-0.8,0.1s-0.5,0.1-0.8,0.1c-0.3,0.1-0.5,0.1-0.8,0.1s-0.5,0-0.8,0s-0.5,0-0.8,0h-1.5
		c-0.3,0-0.5,0-0.8,0c-0.3-0.1-0.5-0.1-0.8-0.1s-0.5-0.1-0.8-0.1c-0.2,0-0.5,0-0.8-0.1s-0.6-0.1-0.9-0.2c-0.3-0.1-0.5-0.1-0.8-0.2
		l-7-2c-0.2-0.1-0.5-0.2-0.8-0.3c-0.2-0.1-0.5-0.2-0.8-0.3c-0.2-0.1-0.5-0.2-0.8-0.3c-0.2-0.1-0.5-0.2-0.8-0.3l-1.7-0.7
		c-0.3-0.1-0.6-0.3-0.9-0.4c-0.3-0.1-0.6-0.3-0.9-0.4l-0.8-0.4c-0.3-0.2-0.6-0.3-0.9-0.5c-0.3-0.1-0.6-0.3-0.9-0.5
		c-0.3-0.1-0.6-0.3-0.9-0.5L84.4,33c-0.2-0.2-0.5-0.3-0.8-0.5c-0.2-0.2-0.5-0.3-0.8-0.5L82,31.5c-0.3-0.2-0.5-0.3-0.8-0.5
		c-0.3-0.1-0.5-0.3-0.8-0.4l-1.7-0.9c-0.3-0.1-0.5-0.3-0.8-0.4c-0.3-0.2-0.5-0.3-0.8-0.4c-0.2-0.1-0.5-0.2-0.7-0.3
		c-0.2,0-0.5-0.1-0.7-0.2c-0.2-0.1-0.4-0.1-0.6-0.2c-0.2,0-0.4-0.1-0.6-0.1C74.3,28,74.1,28,73.9,28s-0.4,0-0.6,0
		c-0.4,0-0.7,0-1.1,0c-0.1,0-0.3,0-0.5,0c-0.2,0.1-0.4,0.1-0.6,0.1l-7,0.8c-0.2,0-0.4,0-0.6,0c-0.4,0-0.8,0-1.2,0
		c-0.2,0-0.4,0-0.6,0c-0.2-0.1-0.4-0.1-0.6-0.1s-0.4-0.1-0.6-0.1s-0.4-0.1-0.6-0.1s-0.4-0.1-0.6-0.1s-0.4-0.1-0.6-0.1
		c-0.2-0.1-0.4-0.1-0.6-0.2l-2.8-0.8l-14.8-4.1v60.4L77.3,74c0.2-0.1,0.5-0.1,0.7-0.2c0.3-0.1,0.5-0.1,0.7-0.2s0.4-0.1,0.6-0.2
		c0.2,0,0.4-0.1,0.6-0.2s0.4-0.2,0.6-0.3c0.2-0.1,0.4-0.2,0.6-0.3c0.1-0.1,0.3-0.2,0.5-0.3c0.2-0.1,0.3-0.2,0.5-0.3
		c0.2-0.1,0.3-0.3,0.5-0.4s0.3-0.3,0.5-0.4c0.2-0.2,0.3-0.3,0.5-0.5s0.3-0.3,0.5-0.5l0.5-0.5c0.2-0.1,0.4-0.3,0.5-0.5
		s0.3-0.4,0.4-0.6c0.3-0.3,0.4-0.5,0.6-0.7c0.2-0.3,0.4-0.5,0.6-0.7s0.4-0.4,0.6-0.6s0.5-0.4,0.7-0.6c0.3-0.2,0.5-0.4,0.8-0.6
		s0.6-0.4,0.9-0.5s0.7-0.2,1-0.3c0.3-0.1,0.6-0.2,1-0.2c0.4-0.1,0.7-0.1,1.1-0.1s0.7,0,1.1,0s0.7,0,1.1,0.1s0.7,0.1,1.1,0.2
		s0.7,0.1,1.1,0.2l3.2,0.7c0.3,0.1,0.7,0.1,1,0.2s0.7,0.2,1,0.2c0.4,0,0.7,0.1,1,0.1s0.6,0.1,0.9,0.1s0.6,0,0.9,0c0.2,0,0.5,0,0.8,0
		c0.2,0,0.5,0,0.8,0c0.3-0.1,0.5-0.1,0.8-0.1s0.5-0.1,0.8-0.1s0.6-0.1,0.8-0.1c0.2,0,0.5,0,0.7-0.1c0.3-0.1,0.5-0.1,0.7-0.2
		c0.3,0,0.5-0.1,0.7-0.2l4-1.9l2-1.1c0.1-0.1,0.3-0.2,0.4-0.3c0.2-0.1,0.3-0.2,0.5-0.3l0.5-0.3c0.2-0.1,0.3-0.2,0.5-0.3l0.9-0.7
		c0.2-0.2,0.5-0.4,0.7-0.6c0.3-0.2,0.5-0.4,0.8-0.6s0.5-0.3,0.8-0.5s0.5-0.3,0.8-0.5l0.7-0.4c0.1,0,0.2-0.1,0-0.3
		C123.5,57.1,123.1,56.6,122.6,56z"/>
	<polygon class="st0" points="107.5,58.1 109.8,57.2 109.8,53.9 107.5,54.2 	"/>
	<path class="st0" d="M140.5,50.7c-0.2-0.1-0.4-0.1-0.6-0.2c-0.2,0-0.4-0.1-0.6-0.2c-0.2,0-0.4-0.1-0.6-0.2
		c-0.2-0.1-0.4-0.2-0.6-0.3c-0.3-0.1-0.5-0.2-0.7-0.3c-0.3-0.1-0.5-0.2-0.7-0.3l-3.3-1.6c-0.3-0.1-0.5-0.2-0.8-0.4
		c-0.3-0.1-0.5-0.3-0.8-0.5s-0.5-0.4-0.8-0.6c-0.3-0.2-0.5-0.4-0.8-0.6s-0.5-0.5-0.8-0.7l-1.5-1.4c-0.3-0.3-0.6-0.5-0.8-0.7
		s-0.5-0.4-0.7-0.6c-0.2-0.2-0.4-0.4-0.7-0.6c-1.6-1.3-2.9-1.6-2.8-1.4c-0.1,0-0.2-0.1-0.3-0.1c-0.2,0-0.4-0.1-0.6-0.1
		c-0.2-0.1-0.4-0.1-0.6-0.1s-0.5,0-0.8,0c0.1,0.8,0.3,2.5,0.7,4.3l6.1-0.3l0.2,3.2l-5.5,0.3c0.3,0.7,0.5,1.4,0.8,2.1
		c0.2,0.4,0.4,0.9,0.6,1.3l1.8-1.7l2,2.7l-2,2c0.8,1.2,1.5,2.1,2,2.7c0.3,0,0.6-0.1,0.9-0.1s0.6,0,0.9,0c0.3,0,0.6,0.1,0.9,0.1
		s0.5,0.1,0.8,0.1c0.3,0.1,0.5,0.1,0.8,0.2l1.5,0.4c0.2,0.1,0.5,0.1,0.7,0.2c0.2,0,0.5,0.1,0.7,0.1c0.3,0,0.5,0.1,0.7,0.1l0.7,0.1
		c0.3,0,0.5,0.1,0.7,0.1c0.2,0.1,0.4,0.1,0.6,0.1s0.4,0,0.6,0c0.2,0,0.4,0,0.6,0s0.4,0,0.6,0c0.2,0,0.4,0,0.6,0s0.4,0,0.6,0
		c0.2-0.1,0.4-0.1,0.6-0.1l5.1-1l8.5-2.2L140.5,50.7z"/>
</g>
<g>
	<g>
		<polygon class="st1" points="50.3,48.3 53.6,49.6 56.2,44.8 55.3,40.5 42.2,41.6 42.2,46.7 52,45.2 		"/>
		<path class="st1" d="M65.4,47.7l-0.8-5.8c0,0-1.3-0.2-3.2,0.4l0.9,6.2L65.4,47.7z"/>
		<path class="st1" d="M69.6,46.9L69.5,41c0,0-1.4,0.2-3.3,0.6l0.3,5.7L69.6,46.9z"/>
		<path class="st1" d="M93.6,45.3c-2,0-8.4,0.9-8.8,9c0,0.7,0,1.4,0.1,2c-0.4,0.6-1.2,1.4-2.1,2.1c-1.8,1.3-3.8,1.3-4.9,0.1
			c-1.6-1.7-0.9-4.6-0.3-6.5l5,0.8l0.4-3.7l-4.1-0.8l1-3.2c0,0,2.6,0.4,4.6,0.7l1.3-4.4l-4.7-0.7l1.7-3.6l-3.2-0.9l-2,3.8l-3.7-0.8
			c0,0-1.9,3.9-1.4,4.1c0.5,0.2,3.5,1,3.5,1l-1.1,3l-4-1.4l-1.2,3.7L69.6,48l-8.5,3.8L60,46.3l-4,0.9l1.7,7.9c0,0-0.8,1-1.3,2.8
			c-0.2,0.1-5.1,2.1-9.9,1.3c-2-0.3-3.7-1.5-3.7-1.5l-1.3,3.8c0,0,4.5,2.9,10.1,2.2c2.3-0.3,3.7-0.6,4.6-0.9
			c0.1,0.7,0.3,1.5,0.5,2.3c0.8,2.8,4.6,4.2,8.8,4.2c3.8-0.1,8.1-1.5,8.1-1.5l-0.4-4c0,0-2.3,0.9-5.1,1.4c-2.2,0.4-4.4,0.8-6.2-0.8
			c-2.3-2-2.1-4.6,0-7.1C63.8,55.1,70,53,70,53l-0.3-2.7l3.6,1.2c0,0-1.6,4.4-0.6,7.8c0.8,2.6,4.2,4.6,6.8,4.7c2.3,0.1,5-1,7.3-4.2
			c2.4,1.7,5.9,1.1,5.9,1.1l1.5-12c0,0,0.8-0.4,2.2,1.6c1,1.6-0.6,9.7-0.6,9.7l3.8-0.4c0.9-6.8,0.5-9.3-0.4-11.4
			C98.5,46.2,95.5,45.3,93.6,45.3z M90.2,57.1c0,0-3.2,0-2.4-4.4c0.6-3.2,3.6-3.7,3.6-3.7L90.2,57.1z"/>
		<path class="st1" d="M142.5,48.1l-1.2-0.3c-0.2-0.1-0.4-0.1-0.5-0.2c-0.2-0.1-0.4-0.1-0.6-0.2c-0.2-0.1-0.4-0.1-0.6-0.2
			c-0.2-0.1-0.4-0.2-0.6-0.2l-0.6-0.3c-0.2-0.1-0.4-0.2-0.6-0.3l-3.2-1.5c-0.2-0.1-0.4-0.2-0.6-0.3c-0.2-0.1-0.4-0.2-0.6-0.4
			c-0.2-0.2-0.4-0.3-0.6-0.5c-0.2-0.2-0.5-0.4-0.7-0.6c-0.2-0.2-0.5-0.4-0.7-0.6l-1.5-1.4c-0.3-0.2-0.5-0.5-0.8-0.7
			s-0.5-0.5-0.8-0.7s-0.5-0.4-0.8-0.6c-0.3-0.2-0.6-0.4-0.8-0.6c-0.3-0.2-0.6-0.4-0.8-0.5c-0.3-0.2-0.6-0.3-0.8-0.4
			c-0.3-0.1-0.6-0.3-0.9-0.4c-0.3-0.1-0.6-0.2-0.9-0.3c-0.3-0.1-0.6-0.1-0.9-0.2c-0.3,0-0.6-0.1-0.8-0.1c-0.5,0-1.1,0-1.6,0
			c-0.3,0-0.5,0-0.8,0.1c-0.3,0-0.5,0.1-0.8,0.1s-0.5,0.1-0.7,0.1c-0.2,0.1-0.5,0.1-0.7,0.2l-2.1,0.5c-0.2,0.1-0.4,0.1-0.7,0.2
			c-0.2,0.1-0.4,0.1-0.7,0.1c-0.2,0-0.4,0.1-0.6,0.1s-0.4,0.1-0.7,0.1c-0.2,0-0.4,0.1-0.6,0.1s-0.4,0-0.6,0s-0.5,0-0.7,0h-1.4
			c-0.2,0-0.5,0-0.7,0s-0.5,0-0.7,0s-0.5,0-0.7-0.1c-0.2,0-0.5-0.1-0.7-0.1s-0.5-0.1-0.7-0.1c-0.2-0.1-0.5-0.1-0.7-0.2l-3.9-1.1
			l-3.1-0.9c-0.2-0.1-0.5-0.2-0.7-0.2c-0.3-0.1-0.5-0.2-0.8-0.3s-0.5-0.2-0.8-0.3s-0.5-0.2-0.8-0.3L93,33.9
			c-0.3-0.1-0.5-0.2-0.8-0.4c-0.3-0.1-0.5-0.3-0.8-0.4l-0.8-0.4c-0.3-0.1-0.5-0.3-0.8-0.4c-0.3-0.2-0.5-0.3-0.8-0.5
			s-0.6-0.3-0.9-0.5l-1.8-1.1c-0.3-0.2-0.6-0.4-0.9-0.5c-0.3-0.2-0.6-0.3-0.9-0.5l-0.9-0.5c-0.3-0.2-0.6-0.3-0.9-0.5
			s-0.6-0.3-0.9-0.5l-1.7-0.9c-0.3-0.2-0.6-0.3-0.9-0.4c-0.3-0.1-0.6-0.3-0.9-0.4c-0.3-0.1-0.6-0.3-0.9-0.4
			c-0.3-0.1-0.6-0.2-0.9-0.3s-0.6-0.2-0.8-0.2c0,0-0.2-0.1-0.5-0.1s-0.5-0.1-0.8-0.1s-0.5,0-0.8-0.1c-0.5,0-1,0-1.4,0
			c-0.2,0-0.5,0-0.7,0.1c-0.2,0-0.4,0-0.7,0.1L64,25.8c-0.2,0-0.4,0-0.5,0c-0.3,0-0.7,0-1,0c-0.2,0-0.3,0-0.5,0s-0.3,0-0.5,0
			s-0.4,0-0.5-0.1c-0.2,0-0.4-0.1-0.5-0.1c-0.2,0-0.4-0.1-0.5-0.1c-0.2,0-0.4-0.1-0.5-0.1c-0.2,0-0.4-0.1-0.5-0.1l-18.5-5V18
			l4.4-5.5L37.3,0.8L29,11.9l4.5,6.7v88.5h6.6l0.3-0.3v-20l38-9.8c0.3-0.1,0.5-0.1,0.8-0.2s0.5-0.1,0.8-0.2s0.5-0.2,0.8-0.3
			c0.3-0.1,0.5-0.2,0.8-0.3c0.2-0.1,0.5-0.2,0.7-0.3c0.2-0.1,0.5-0.2,0.7-0.4c0.2-0.1,0.4-0.3,0.7-0.4c0.2-0.1,0.5-0.3,0.7-0.4
			c0.2-0.2,0.4-0.3,0.7-0.5c0.2-0.2,0.4-0.4,0.6-0.5c0.2-0.2,0.4-0.4,0.6-0.5c0.2-0.2,0.4-0.4,0.5-0.6l0.5-0.6
			c0.2-0.2,0.4-0.4,0.5-0.6c0.2-0.2,0.3-0.4,0.5-0.6s0.3-0.4,0.5-0.6s0.3-0.4,0.5-0.5c0.2-0.2,0.3-0.3,0.5-0.5s0.3-0.3,0.5-0.4
			s0.3-0.2,0.5-0.4c0.2-0.1,0.3-0.2,0.5-0.3c0.2-0.1,0.4-0.1,0.6-0.2s0.4-0.1,0.6-0.1s0.5,0,0.7,0c0.3,0,0.5,0,0.8,0
			s0.6,0.1,0.9,0.1s0.6,0.1,1,0.2c0.3,0.1,0.7,0.1,1,0.2l3.2,0.7c0.4,0.1,0.7,0.1,1.1,0.2s0.7,0.1,1.1,0.2s0.7,0.1,1.1,0.1
			s0.7,0.1,1,0.1s0.7,0,1,0.1c0.3,0,0.7,0,1,0s0.6,0,0.9,0s0.6,0,0.9-0.1c0.3,0,0.6-0.1,0.9-0.1s0.6-0.1,0.9-0.1
			c0.3-0.1,0.6-0.1,0.9-0.2s0.6-0.2,0.9-0.2c0.3-0.1,0.6-0.2,0.9-0.3l1.1-0.5l4.7-2.4c0.2-0.1,0.4-0.2,0.5-0.3
			c0.2-0.1,0.4-0.2,0.5-0.3c0.2-0.1,0.4-0.2,0.5-0.4l0.5-0.4c0.2-0.1,0.3-0.3,0.5-0.4l1-0.8c0.2-0.2,0.5-0.4,0.7-0.5
			c0.2-0.2,0.5-0.3,0.7-0.5s0.4-0.3,0.7-0.5c0.2-0.1,0.5-0.3,0.7-0.4l0.7-0.4c0.2-0.1,0.4-0.3,0.7-0.4c0.2-0.1,0.4-0.2,0.6-0.3
			c0.2-0.1,0.4-0.1,0.6-0.2c0.2-0.1,0.4-0.1,0.6-0.1c0.2,0,0.4-0.1,0.6-0.1c0.2,0,0.4,0,0.6,0c0.2,0,0.4,0,0.6,0.1
			c0.2,0,0.5,0.1,0.7,0.1s0.5,0.1,0.7,0.1l1.5,0.3c0.3,0.1,0.5,0.1,0.8,0.2s0.5,0.1,0.8,0.2c0.3,0,0.5,0.1,0.8,0.1l0.7,0.1
			c0.2,0,0.5,0.1,0.7,0.1s0.5,0.1,0.7,0.1s0.5,0,0.7,0.1c0.2,0,0.5,0,0.7,0s0.5,0,0.7,0s0.5,0,0.7,0s0.5,0,0.7-0.1
			c0.2,0,0.5-0.1,0.7-0.1l0.6-0.1l24.1-6L142.5,48.1z M123.9,57.8l-0.7,0.4c-0.3,0.2-0.5,0.3-0.8,0.5s-0.5,0.3-0.8,0.5
			s-0.5,0.4-0.8,0.6c-0.2,0.2-0.5,0.4-0.7,0.6l-0.9,0.7c-0.2,0.1-0.3,0.2-0.5,0.3l-0.5,0.3c-0.2,0.1-0.3,0.2-0.5,0.3
			c-0.1,0.1-0.3,0.2-0.4,0.3l-2,1.1l-4,1.9c-0.2,0.1-0.4,0.2-0.7,0.2c-0.2,0.1-0.4,0.1-0.7,0.2c-0.2,0.1-0.5,0.1-0.7,0.1
			s-0.5,0.1-0.8,0.1s-0.5,0.1-0.8,0.1s-0.5,0-0.8,0.1c-0.3,0-0.6,0-0.8,0c-0.3,0-0.6,0-0.8,0c-0.3,0-0.6,0-0.9,0s-0.6-0.1-0.9-0.1
			s-0.6-0.1-1-0.1c-0.3,0-0.7-0.1-1-0.2s-0.7-0.1-1-0.2l-3.2-0.7c-0.4-0.1-0.7-0.1-1.1-0.2s-0.7-0.1-1.1-0.2s-0.7-0.1-1.1-0.1
			s-0.7,0-1.1,0s-0.7,0-1.1,0.1c-0.4,0-0.7,0.1-1,0.2s-0.7,0.2-1,0.3c-0.3,0.1-0.6,0.3-0.9,0.5S88.3,65.8,88,66
			c-0.2,0.2-0.5,0.4-0.7,0.6s-0.4,0.4-0.6,0.6s-0.4,0.4-0.6,0.7c-0.2,0.2-0.3,0.4-0.6,0.7c-0.1,0.2-0.3,0.4-0.4,0.6
			s-0.3,0.4-0.5,0.5l-0.5,0.5c-0.2,0.2-0.3,0.3-0.5,0.5s-0.3,0.3-0.5,0.5c-0.2,0.1-0.3,0.3-0.5,0.4s-0.3,0.3-0.5,0.4
			s-0.3,0.2-0.5,0.3c-0.2,0.1-0.4,0.2-0.5,0.3c-0.2,0.1-0.4,0.2-0.6,0.3c-0.2,0.1-0.4,0.2-0.6,0.3c-0.2,0.1-0.4,0.2-0.6,0.2
			c-0.2,0.1-0.4,0.1-0.6,0.2s-0.4,0.1-0.7,0.2c-0.2,0.1-0.5,0.1-0.7,0.2l-36.8,9.7V23.3l14.8,4.1l2.8,0.8c0.2,0.1,0.4,0.1,0.6,0.2
			c0.2,0,0.4,0.1,0.6,0.1s0.4,0.1,0.6,0.1s0.4,0.1,0.6,0.1s0.4,0.1,0.6,0.1s0.4,0,0.6,0.1c0.2,0,0.4,0,0.6,0c0.4,0,0.8,0,1.2,0
			c0.2,0,0.4,0,0.6,0l7-0.8c0.2,0,0.4,0,0.6-0.1c0.2,0,0.4,0,0.5,0c0.4,0,0.7,0,1.1,0c0.2,0,0.4,0,0.6,0s0.4,0,0.6,0.1
			c0.2,0,0.4,0.1,0.6,0.1c0.2,0.1,0.4,0.1,0.6,0.2c0.2,0.1,0.5,0.2,0.7,0.2c0.2,0.1,0.5,0.2,0.7,0.3c0.3,0.1,0.5,0.2,0.8,0.4
			c0.3,0.1,0.5,0.3,0.8,0.4l1.7,0.9c0.3,0.1,0.5,0.3,0.8,0.4c0.3,0.2,0.5,0.3,0.8,0.5l0.8,0.5c0.3,0.2,0.6,0.3,0.8,0.5
			c0.3,0.2,0.6,0.3,0.8,0.5l1.8,1.1c0.3,0.2,0.6,0.4,0.9,0.5c0.3,0.2,0.6,0.4,0.9,0.5c0.3,0.2,0.6,0.3,0.9,0.5l0.8,0.4
			c0.3,0.1,0.6,0.3,0.9,0.4c0.3,0.1,0.6,0.3,0.9,0.4l1.7,0.7c0.3,0.1,0.6,0.2,0.8,0.3c0.3,0.1,0.6,0.2,0.8,0.3
			c0.3,0.1,0.6,0.2,0.8,0.3c0.3,0.1,0.6,0.2,0.8,0.3l7,2c0.3,0.1,0.5,0.1,0.8,0.2c0.3,0.1,0.6,0.1,0.9,0.2c0.3,0.1,0.6,0.1,0.8,0.1
			c0.3,0,0.5,0.1,0.8,0.1s0.5,0,0.8,0.1c0.3,0,0.5,0,0.8,0h1.5c0.3,0,0.5,0,0.8,0s0.5,0,0.8,0s0.5,0,0.8-0.1c0.3,0,0.5-0.1,0.8-0.1
			s0.5-0.1,0.8-0.1c0.2,0,0.5-0.1,0.7-0.2c0.2-0.1,0.5-0.1,0.7-0.2l1-0.2c0.1,1,0.4,2.3,0.8,3.8l-7.6,0.4V51l-2.3,0.1l-0.1-4.7
			l-4.7,0.2l0.5,4.8l-2.1,0.1l0.1,3.6l2.4-0.3l0.5,4.8l-3.6,1.4l1.4,3.5l7.9-4.1v3.7l3.2-0.1l0.6-10.5l1.6-0.2l-0.1,8.1l3.1-0.4
			l0.1-10.6l-4.6,0.3l0.2-3.1l4.4-0.3c0.5,1.4,1,2.8,1.6,4c0.3,0.6,0.6,1.2,1,1.7l-2.3,2.2l2.1,3.1l2.3-2.3c0.5,0.6,0.9,1.1,1.3,1.5
			C124.1,57.7,124,57.8,123.9,57.8z M109.8,57.2l-2.3,0.9v-3.9l2.3-0.3V57.2z M125.7,41.5L125.7,41.5c0.3,0.2,0.5,0.4,0.7,0.6
			c0.2,0.2,0.5,0.4,0.7,0.6c0.2,0.2,0.5,0.4,0.8,0.7l1.5,1.4c0.3,0.2,0.5,0.5,0.8,0.7s0.5,0.4,0.8,0.6c0.3,0.2,0.5,0.4,0.8,0.6
			c0.3,0.2,0.5,0.4,0.8,0.5c0.3,0.2,0.5,0.3,0.8,0.4l3.3,1.6c0.2,0.1,0.4,0.2,0.7,0.3c0.2,0.1,0.4,0.2,0.7,0.3
			c0.2,0.1,0.4,0.2,0.6,0.3c0.2,0.1,0.4,0.2,0.6,0.2c0.2,0.1,0.4,0.2,0.6,0.2c0.2,0.1,0.4,0.1,0.6,0.2l13.9,3.8l-8.5,2.2l-5.1,1
			c-0.2,0-0.4,0-0.6,0.1c-0.2,0-0.4,0-0.6,0c-0.2,0-0.4,0-0.6,0c-0.2,0-0.4,0-0.6,0c-0.2,0-0.4,0-0.6,0c-0.2,0-0.4,0-0.6,0
			c-0.2,0-0.4,0-0.6-0.1c-0.2,0-0.4-0.1-0.7-0.1l-0.7-0.1c-0.2,0-0.4-0.1-0.7-0.1c-0.2,0-0.5-0.1-0.7-0.1c-0.2-0.1-0.5-0.1-0.7-0.2
			l-1.5-0.4c-0.3-0.1-0.5-0.1-0.8-0.2c-0.3,0-0.5-0.1-0.8-0.1s-0.6-0.1-0.9-0.1c-0.3,0-0.6,0-0.9,0c-0.3,0-0.6,0.1-0.9,0.1
			c-0.5-0.6-1.2-1.5-2-2.7l2-2l-2-2.7l-1.8,1.7c-0.2-0.4-0.4-0.9-0.6-1.3c-0.3-0.7-0.5-1.4-0.8-2.1l5.5-0.3l-0.2-3.2l-6.1,0.3
			c-0.4-1.8-0.6-3.5-0.7-4.3c0.3,0,0.6,0,0.8,0s0.4,0,0.6,0.1c0.2,0,0.4,0.1,0.6,0.1c0.1,0,0.2,0.1,0.3,0.1
			C122.8,39.9,124.1,40.2,125.7,41.5z"/>
	</g>
	
		<ellipse transform="matrix(0.9358 -0.3525 0.3525 0.9358 -37.3175 14.4121)" class="st1" cx="20.9" cy="109.7" rx="20.1" ry="14.8"/>
</g>
<g>
	<g>
		<g>
			<rect x="48.5" y="80.3" class="st0" width="22.5" height="21.3"/>
			<path class="st1" d="M71.7,102.4H47.8V79.6h23.9V102.4z M49.3,100.9h21V81.1h-21C49.3,81.1,49.3,100.9,49.3,100.9z"/>
		</g>
		<g>
			<rect x="71" y="80.3" class="st0" width="22.5" height="21.3"/>
			<path class="st1" d="M94.2,102.4H70.3V79.6h23.9C94.2,79.6,94.2,102.4,94.2,102.4z M71.7,100.9h21V81.1h-21V100.9z"/>
		</g>
		<g>
			<rect x="93.5" y="80.3" class="st0" width="22.5" height="21.3"/>
			<path class="st1" d="M116.7,102.4H92.8V79.6h23.9V102.4z M94.2,100.9h21V81.1h-21V100.9z"/>
		</g>
		<g>
			<rect x="115.9" y="80.3" class="st0" width="22.5" height="21.3"/>
			<path class="st1" d="M139.1,102.4h-23.9V79.6h23.9V102.4z M116.7,100.9h21V81.1h-21V100.9z"/>
		</g>
		<g>
			<rect x="138.4" y="80.3" class="st0" width="22.5" height="21.3"/>
			<path class="st1" d="M161.6,102.4h-23.9V79.6h23.9V102.4z M139.1,100.9h21V81.1h-21V100.9z"/>
		</g>
	</g>
	<g>
		<g>
			<rect x="60.5" y="101.7" class="st0" width="22.5" height="21.3"/>
			<path class="st1" d="M83.7,123.7H59.8v-22.8h23.9C83.7,100.9,83.7,123.7,83.7,123.7z M61.3,122.3h21v-19.9h-21V122.3z"/>
		</g>
		<g>
			<rect x="83" y="101.7" class="st0" width="22.5" height="21.3"/>
			<path class="st1" d="M106.2,123.7H82.3v-22.8h23.9C106.2,100.9,106.2,123.7,106.2,123.7z M83.7,122.3h21v-19.9h-21V122.3z"/>
		</g>
		<g>
			<rect x="105.5" y="101.7" class="st0" width="22.5" height="21.3"/>
			<path class="st1" d="M128.7,123.7h-23.9v-22.8h23.9V123.7z M106.2,122.3h21v-19.9h-21V122.3z"/>
		</g>
		<g>
			<rect x="127.9" y="101.7" class="st0" width="22.5" height="21.3"/>
			<path class="st1" d="M151.1,123.7h-23.9v-22.8h23.9V123.7z M128.7,122.3h21v-19.9h-21V122.3z"/>
		</g>
		<g>
			<rect x="150.4" y="101.7" class="st0" width="22.5" height="21.3"/>
			<path class="st1" d="M173.6,123.7h-23.9v-22.8h23.9V123.7z M151.1,122.3h21v-19.9h-21V122.3z"/>
		</g>
	</g>
	<g>
		<path class="st1" d="M56.5,92.8l1.6,0.1c-0.1,1.4-0.6,2.6-1.4,3.4c-0.9,0.9-2.2,1.5-4,2L52,96.9c1.6-0.4,2.7-0.9,3.4-1.5
			C56,94.8,56.4,93.9,56.5,92.8z M53,92.9v-8.7h1.7v8.7H53z M58.1,92.3h-1.6v-7.9h9v7.9H58.1z M58.1,87.7h5.6v-1.9h-5.6V87.7z
			 M58.1,89v1.9h5.6V89H58.1z M60.2,92.8h1.7V96c0,0.1,0,0.2,0,0.3c0,0.1,0,0.1,0.1,0.2s0.1,0.1,0.3,0.1c0.2,0,0.3,0,0.4,0
			s0.3,0,0.7,0c0.3,0,0.4,0,0.5,0c0,0,0.1,0,0.2,0s0.1,0,0.2,0s0.2-0.1,0.2-0.1c0.1-0.1,0.1-0.2,0.1-0.2c0-0.1,0.1-0.2,0.1-0.4
			c0-0.2,0-0.4,0-0.6s0-0.5,0-0.9l1.7,0.1c0,0.5,0,0.9,0,1.2c0,0.2-0.1,0.5-0.1,0.9c-0.1,0.4-0.1,0.6-0.1,0.7
			c-0.1,0.2-0.1,0.3-0.3,0.4c-0.1,0.1-0.3,0.2-0.4,0.3c-0.1,0-0.3,0.1-0.6,0.1c-0.3,0.1-0.5,0.1-0.7,0.1h-1c-0.6,0-1,0-1.2,0
			c-0.3,0-0.5,0-0.8-0.1c-0.2,0-0.4-0.1-0.5-0.2s-0.2-0.2-0.3-0.3c-0.1-0.2-0.2-0.3-0.2-0.5s0-0.5,0-0.7L60.2,92.8L60.2,92.8z"/>
		<path class="st1" d="M74.4,89v-1.3h3.7c-0.3-0.5-0.5-0.9-0.8-1.3h-2.2V85h5.6v-1.3h1.8V85h5.6v1.4h-2.2c-0.2,0.5-0.5,0.9-0.7,1.3
			h3.6V89C88.8,89,74.4,89,74.4,89z M82.5,94.1v0.6H88V96h-5.5v0.6h6.3V98H74.5v-1.4h6.3V96h-5.5v-1.3h5.5v-0.6h-3.2h-1.7v-4.6h11.5
			v4.6H82.5z M77.6,91.3h3.2v-0.6h-3.2V91.3z M80.8,93v-0.6h-3.2V93H80.8z M83.3,87.7c0.3-0.4,0.5-0.8,0.8-1.3h-4.9
			c0.2,0.4,0.5,0.8,0.7,1.3H83.3z M82.5,91.3h3.2v-0.6h-3.2V91.3z M82.5,93h3.2v-0.6h-3.2V93z"/>
		<path class="st1" d="M96.7,88.5c1.3-0.7,2.4-1.4,3.3-2.1c1-0.7,2-1.6,2.9-2.5h2.1c1,0.9,1.9,1.7,2.9,2.5c0.9,0.7,2,1.4,3.3,2.1
			l-0.7,1.4c-0.7-0.4-1.4-0.8-2.1-1.2v1.1h-9v-1.1c-0.7,0.5-1.4,0.9-2.1,1.2L96.7,88.5z M100.2,97.6v0.8h-1.7v-6.9h11.2v6.9H108
			v-0.8H100.2z M100,88.4h8.2c-1.5-1-2.8-2.1-4.1-3.4C102.8,86.3,101.4,87.4,100,88.4z M107.9,96.2v-3.3h-7.7v3.3H107.9z"/>
		<path class="st1" d="M120.9,96.8v1h-1.6v-13h4.4v12H120.9z M122.1,95.3v-9.1h-1.2v9.1H122.1z M125.9,97.6v0.6h-1.6v-6.9h9.5v6.9
			h-1.7v-0.6H125.9z M126.3,90.5h-1.6v-6.1h8.7v6.1H126.3z M132.1,93.9v-1.2H126v1.2H132.1z M125.9,96.3h6.1V95h-6.1V96.3z
			 M126.3,86.9h5.4v-1.2h-5.4V86.9z M126.3,89.2h5.4V88h-5.4V89.2z"/>
		<path class="st1" d="M143.7,97.7v0.7H142V84.3h13.7v14.1H154v-0.7C154,97.7,143.7,97.7,143.7,97.7z M154,96.3V85.7h-10.3v10.6
			C143.7,96.3,154,96.3,154,96.3z M153.5,87.6V89H152v4.3c0,0.5,0,0.8,0,0.9c0,0.3,0,0.5-0.1,0.7c0,0.2-0.1,0.3-0.2,0.4
			c-0.1,0.1-0.2,0.2-0.3,0.2c-0.2,0.1-0.3,0.1-0.5,0.1c-0.1,0-0.3,0-0.7,0c-0.5,0-1.4,0-2.6-0.1v-1.4c0.9,0.1,1.6,0.1,2,0.1
			s0.6,0,0.6-0.1c0.1-0.1,0.1-0.3,0.1-0.8V89h-6.2v-1.4h6.2v-1.5h1.6v1.5H153.5z M145.3,90.3l1.4-0.8c0.8,1.1,1.5,2.2,2.1,3.4
			l-1.4,0.8C146.8,92.5,146.1,91.4,145.3,90.3z"/>
	</g>
	<g>
		<path class="st1" d="M67,112.4c-0.8-0.8-1.8-1.6-2.9-2.4l1-1.2c1.1,0.8,2,1.6,2.9,2.4L67,112.4z M68.3,114.3
			c-0.6,1.9-1.4,3.6-2.4,5.2l-1.4-0.9c1-1.5,1.7-3.1,2.4-4.8L68.3,114.3z M64.9,106.4l1-1.2c1,0.7,1.9,1.4,2.6,2.2l-1,1.2
			C66.8,107.9,65.9,107.2,64.9,106.4z M67.8,119.4l-0.2-1.4c0.6-0.1,1.1-0.1,1.7-0.2v-5.3H71v1.4h2.5v1.4H71v2.2
			c0.7-0.1,1.5-0.4,2.5-0.6l0.2,1.4C71.6,118.8,69.7,119.1,67.8,119.4z M70.9,111.8h-1.6v-6.3h9v6.3H70.9z M70.9,108.1h5.7v-1.2
			h-5.7V108.1z M70.9,109.3v1.3h5.7v-1.3H70.9z M76.5,119.2c-0.3,0-0.7,0-1.2,0c-0.6,0-0.9-0.1-1-0.2c-0.1-0.1-0.2-0.4-0.2-0.9v-5.7
			h1.7v1.6c0.9-0.3,1.8-0.8,2.8-1.3l0.6,1.3c-1.1,0.6-2.2,1.1-3.4,1.5v2c0,0.2,0,0.3,0,0.3s0.1,0,0.3,0.1h0.5h0.5
			c0.3,0,0.4-0.1,0.4-0.3c0.1-0.2,0.1-0.8,0.2-1.7l1.5,0.2c0,0.1,0,0.4-0.1,1c0,0.1,0,0.4-0.1,0.7c0,0.3-0.1,0.5-0.1,0.6
			c0,0.2-0.1,0.3-0.1,0.4c-0.1,0.1-0.1,0.2-0.2,0.3c0,0-0.1,0.1-0.3,0.1c-0.1,0.1-0.2,0.1-0.3,0.1c0,0-0.1,0-0.2,0s-0.2,0-0.2,0
			C77.2,119.2,76.8,119.2,76.5,119.2z"/>
		<path class="st1" d="M89.9,115.4c-0.1,0.5-0.2,1-0.3,1.4c-0.3,1-0.8,1.8-1.5,2.6l-1.3-1c0.6-0.7,1-1.5,1.2-2.4
			c0.2-0.9,0.4-2.1,0.4-3.6v-1.8H100v5.7h-1.6v-0.9L89.9,115.4L89.9,115.4z M101.3,106.1v1.3H95v0.9h5.5v1.3H87.7v-1.3h5.5v-0.9
			h-6.3v-1.3h6.3V105H95v1.1H101.3z M93.3,111.9h-3.2v1.2c0,0.4,0,0.7,0,0.9h3.2V111.9z M95,111.9v2.2h3.4v-2.2H95z"/>
		<path class="st1" d="M109.2,109.7c1.3-0.7,2.4-1.4,3.3-2.1c1-0.7,2-1.6,2.9-2.5h2.1c1,0.9,1.9,1.7,2.9,2.5c0.9,0.7,2,1.4,3.3,2.1
			l-0.7,1.4c-0.7-0.4-1.4-0.8-2.1-1.2v1.1h-9v-1.1c-0.7,0.5-1.4,0.9-2.1,1.2L109.2,109.7z M112.7,118.7v0.8H111v-6.9h11.2v6.9h-1.7
			v-0.8H112.7z M112.5,109.6h8.2c-1.5-1-2.8-2.1-4.1-3.4C115.3,107.5,113.9,108.6,112.5,109.6z M120.4,117.3V114h-7.7v3.3H120.4z"/>
		<path class="st1" d="M133.4,118v1h-1.6v-13h4.4v12H133.4z M134.6,116.5v-9.1h-1.2v9.1H134.6z M138.4,118.8v0.6h-1.6v-6.9h9.5v6.9
			h-1.7v-0.6H138.4z M138.8,111.6h-1.6v-6.1h8.7v6.1H138.8z M144.6,115v-1.2h-6.1v1.2H144.6z M138.4,117.5h6.1v-1.3h-6.1V117.5z
			 M138.8,108h5.4v-1.2h-5.4V108z M138.8,110.4h5.4v-1.2h-5.4V110.4z"/>
		<path class="st1" d="M156.2,118.9v0.7h-1.7v-14.1h13.7v14.1h-1.7v-0.7H156.2z M166.5,117.5v-10.6h-10.3v10.6H166.5z M166,108.8
			v1.4h-1.5v4.3c0,0.5,0,0.8,0,0.9c0,0.3,0,0.5-0.1,0.7c0,0.2-0.1,0.3-0.2,0.4c-0.1,0.1-0.2,0.2-0.3,0.2c-0.2,0.1-0.3,0.1-0.5,0.1
			c-0.1,0-0.3,0-0.7,0c-0.5,0-1.4,0-2.6-0.1v-1.4c0.9,0.1,1.6,0.1,2,0.1s0.6,0,0.6-0.1c0.1-0.1,0.1-0.3,0.1-0.8V110h-6.2v-1.4h6.2
			v-1.5h1.6v1.5h1.6L166,108.8L166,108.8z M157.8,111.5l1.4-0.8c0.8,1.1,1.5,2.2,2.1,3.4l-1.4,0.8
			C159.3,113.6,158.6,112.5,157.8,111.5z"/>
	</g>
</g>
<ellipse transform="matrix(0.3781 -0.9258 0.9258 0.3781 39.1186 140.5137)" class="st1" cx="124.1" cy="41.1" rx="2" ry="2.4"/>
</svg>
