<?xml version="1.0" encoding="utf-8"?>
<!-- Generator: Adobe Illustrator 22.1.0, SVG Export Plug-In . SVG Version: 6.00 Build 0)  -->
<!DOCTYPE svg PUBLIC "-//W3C//DTD SVG 1.1//EN" "http://www.w3.org/Graphics/SVG/1.1/DTD/svg11.dtd">
<svg version="1.1" id="レイヤー_1" xmlns="http://www.w3.org/2000/svg" xmlns:xlink="http://www.w3.org/1999/xlink" x="0px"
	 y="0px" viewBox="0 0 122.2 129.7" style="enable-background:new 0 0 122.2 129.7;" xml:space="preserve">
<style type="text/css">
	.st0{fill:#3B8182;}
	.st1{fill:#FFFFFF;}
</style>
<g>
	<path class="st0" d="M109.6,21.6c-0.2-0.1-0.4-0.3-0.7-0.5c-0.2-0.1-0.5-0.2-0.7-0.4c-0.2-0.1-0.6,0-0.8-0.2
		c-0.2-0.1-0.4-0.4-0.6-0.5c-0.2-0.1-0.1-0.7-0.4-0.9c-0.2-0.2-0.7,0.1-0.9-0.1c-0.2-0.2-0.3-0.5-0.5-0.6c-0.2-0.2-0.5-0.2-0.8-0.3
		c-0.2-0.2-0.6-0.1-0.8-0.3c-0.2-0.2-0.1-0.7-0.3-0.9c-0.2-0.2-0.3-0.5-0.5-0.7c-0.2-0.2-0.8,0.2-1,0c-0.2-0.2-0.3-0.5-0.5-0.6
		c-0.2-0.2-0.3-0.5-0.5-0.7c-0.2-0.2-0.5-0.2-0.7-0.4c-0.2-0.2-0.4-0.3-0.6-0.5C99,14,98.6,14,98.4,13.8c-0.2-0.2-0.5-0.3-0.7-0.5
		c-0.2-0.2-0.4-0.3-0.6-0.5c-0.2-0.2-0.4-0.4-0.6-0.6c-0.2-0.2-0.2-0.6-0.4-0.7c-0.2-0.2-0.6-0.1-0.8-0.3c-0.2-0.2-0.1-0.7-0.3-0.8
		c-0.2-0.2-0.4-0.4-0.6-0.6c-0.2-0.2-0.7,0-0.9-0.2c-0.2-0.2-0.3-0.5-0.5-0.6c-0.2-0.2-0.4-0.4-0.6-0.6c-0.2-0.2-0.3-0.4-0.5-0.6
		c-0.2-0.2-0.3-0.5-0.5-0.7c-0.2-0.2-0.4-0.4-0.5-0.6c-0.2-0.2-0.8,0.1-1-0.1c-0.2-0.2-0.2-0.5-0.4-0.7c-0.2-0.2-0.2-0.6-0.4-0.8
		c-0.2-0.2-0.8,0-1-0.1C88,4.5,87.9,4.2,87.7,4c-0.2-0.2-0.1-0.6-0.3-0.8C87.2,3,86.9,3,86.7,2.8c-0.2-0.2-0.6-0.2-0.8-0.3
		c-0.2-0.2-0.5-0.2-0.7-0.4c-0.2-0.2-0.3-0.5-0.4-0.7c-0.2-0.2-0.1-0.7-0.3-0.9c-0.4-0.4-0.7-0.7-0.8-0.3c-0.1,0.4,0.4,0.4,0.4,0.7
		c0,0.4-0.5,0.4-0.5,0.8c0,0.4,0.5,0.4,0.6,0.8c0,0.4-0.5,0.4-0.4,0.8c0,0.4,0.2,0.4,0.2,0.8c0,0.4,0.2,0.4,0.3,0.8
		c0,0.4-0.4,0.4-0.3,0.8C83.9,6,84,6,84,6.4c0,0.4,0,0.4,0.1,0.8c0,0.4,0.2,0.4,0.2,0.8c0,0.4,0.1,0.4,0.1,0.8c0,0.4,0,0.4,0,0.8
		c0,0.4,0,0.4,0.1,0.8c0,0.4-0.1,0.4-0.1,0.8c0,0.4-0.3,0.4-0.3,0.8c0,0.4,0.4,0.4,0.4,0.8c0,0.4-0.2,0.4-0.1,0.8
		c0,0.4,0.6,0.4,0.6,0.8c0,0.4-0.6,0.4-0.6,0.8c0,0.4,0.4,0.4,0.4,0.8c0,0.4,0.1,0.4,0.1,0.8c0,0.4-0.4,0.4-0.4,0.8
		c0,0.4,0.4,0.4,0.4,0.8c0,0.4-0.3,0.4-0.2,0.8c0,0.4,0.3,0.4,0.3,0.8c0,0.4-0.2,0.4-0.1,0.8c0,0.4,0.6,0.4,0.6,0.8
		c0,0.4-0.4,0.4-0.4,0.8c0,0.4-0.2,0.4-0.2,0.8c0,0.4,0,0.4,0.1,0.8c0,0.4,0,0.4,0,0.8c0,0.4,0.3,0.4,0.4,0.8c0,0.4,0.2,0.4,0.2,0.8
		c0,0.4-0.5,0.4-0.5,0.8c0,0.4,0.7,0.4,0.7,0.8c0,0.4-0.6,0.4-0.6,0.8c0,0.4,0.4,0.4,0.4,0.8c0,0.4-0.4,0.4-0.3,0.8
		c0,0.4,0.7,0.4,0.7,0.8c0,0.4-0.1,0.4-0.1,0.8c0,0.4-0.3,0.4-0.2,0.8c0,0.4-0.1,0.4-0.1,0.8c0,0.4,0.7,0.4,0.7,0.8
		c0,0.4-0.4,0.4-0.4,0.8c0,0.4,0.5,0.4,0.5,0.8c0,0.4-0.5,0.4-0.4,0.8c0,0.4,0.5,0.4,0.5,0.8c0,0.4-0.7,0.4-0.6,0.8
		c0,0.4,0.1,0.4,0.2,0.8c0,0.4,0.4,0.4,0.5,0.8c0,0.4,0.3,0.4,0.3,0.8c0,0.4-0.4,0.4-0.4,0.8c0,0.4,0.4,0.4,0.4,0.8
		c0,0.4-0.2,0.4-0.2,0.8c0,0.4,0.1,0.4,0.1,0.8c0,0.4,0.2,0.4,0.2,0.8c0,0.4-0.2,0.4-0.2,0.8c0,0.4,0.3,0.4,0.3,0.8
		c0,0.4-0.1,0.4-0.1,0.8c0,0.4-0.5,0.4-0.5,0.8c0,0.4,0.4,0.4,0.4,0.8c0,0.4-0.2,0.4-0.1,0.8c0,0.4-0.1,0.4,0,0.8
		c0,0.4,0.2,0.4,0.2,0.8c0,0.4-0.2,0.4-0.2,0.8c0,0.4,0.3,0.4,0.3,0.8c0,0.4,0.2,0.4,0.3,0.8c0,0.4,0.1,0.4,0.1,0.8
		c0,0.4-0.2,0.4-0.2,0.8c0,0.4-0.1,0.4-0.1,0.8c0,0.4,0.6,0.4,0.7,0.8c0,0.4-0.2,0.5-0.2,0.9c-0.2-0.2-0.3-0.5-0.5-0.7
		c-0.2-0.2-0.4-0.3-0.6-0.5c-0.2-0.2-0.4-0.4-0.6-0.6c-0.2-0.2-0.6-0.1-0.8-0.3c-0.2-0.2-0.2-0.6-0.4-0.8c-0.2-0.2-0.4-0.3-0.6-0.5
		c-0.2-0.2-0.1-0.6-0.3-0.8c-0.2-0.2-0.6-0.1-0.8-0.3c-0.2-0.2-0.5-0.3-0.7-0.4c-0.2-0.2-0.2-0.6-0.4-0.8c-0.2-0.2-0.4-0.4-0.6-0.5
		c-0.2-0.2-0.5-0.2-0.8-0.3c-0.2-0.2-0.5-0.2-0.7-0.4c-0.2-0.2-0.6,0-0.8-0.2c-0.2-0.2-0.1-0.9-0.3-1c-0.2-0.1-0.8,0.3-1.1,0.2
		c-0.2-0.1-0.4-0.3-0.6-0.5c-0.2-0.1-0.1-0.8-0.4-0.9c-0.2-0.1-0.7,0.1-0.9-0.1c-0.2-0.1-0.3-0.6-0.5-0.7c-0.2-0.1-0.6-0.1-0.8-0.2
		c-0.2-0.1-0.5-0.2-0.7-0.3c-0.2-0.1-0.6,0.1-0.9-0.1c-0.2-0.1-0.4-0.4-0.6-0.5c-0.2-0.1-0.3-0.7-0.5-0.8c-0.2-0.1-0.5-0.2-0.8-0.3
		c-0.2-0.1-0.5-0.2-0.7-0.3c-0.2-0.1-0.6,0-0.8-0.1c-0.2-0.1-0.4-0.3-0.7-0.4c-0.2-0.1-0.7,0.3-0.9,0.2c-0.2-0.1-0.5-0.3-0.7-0.4
		c-0.3-0.1-0.3-0.8-0.5-0.9c-0.3-0.1-0.7,0.5-1,0.5c-0.3-0.1-0.4-0.3-0.7-0.4c-0.3-0.1-0.4-0.6-0.6-0.7c-0.3-0.1-0.5-0.2-0.8-0.3
		c-0.3-0.1-0.7,0.4-0.9,0.3c-0.3-0.1-0.4-0.4-0.7-0.5c-0.3-0.1-0.4-0.5-0.7-0.5c-0.3-0.1-0.7,0.6-0.9,0.5c-0.3-0.1-0.5-0.4-0.7-0.4
		c-0.3-0.1-0.6,0.2-0.8,0.1c-0.3-0.1-0.5-0.1-0.8-0.2c-0.3,0-0.4-0.7-0.7-0.8c-0.3,0-0.6,0.2-0.8,0.1c-0.3,0-0.5-0.4-0.7-0.5
		c-0.3,0-0.5,0-0.8,0c-0.3,0-0.6,0.5-0.9,0.4c-0.3,0-0.5-0.6-0.7-0.7c-0.3,0-0.5-0.1-0.8-0.1c-0.3,0-0.6,0.4-0.8,0.4
		c-0.3,0-0.5,0.2-0.8,0.2c-0.3,0-0.5-0.7-0.8-0.7c-0.3,0-0.5,0.3-0.8,0.3c-0.3,0-0.5,0.3-0.8,0.3c-0.3,0-0.5-0.1-0.8-0.1
		c-0.3,0-0.5-0.2-0.8-0.2c-0.3,0-0.5,0-0.8,0c-0.3,0-0.5-0.2-0.8-0.2c-0.3,0-0.5,0.6-0.8,0.6c-0.3,0-0.6-0.5-0.8-0.4
		c-0.3,0-0.5-0.2-0.8-0.1c-0.3,0-0.5,0.4-0.8,0.5c-0.3,0-0.6-0.2-0.8-0.1c-0.3,0-0.5,0-0.8,0c-0.3,0-0.5,0-0.8,0.1
		c-0.3,0-0.5,0-0.8,0c-0.3,0-0.5,0.2-0.8,0.2c-0.3,0-0.5,0.2-0.8,0.2c-0.3,0-0.5,0.3-0.8,0.3c-0.3,0-0.5,0.4-0.7,0.5
		c-0.3,0.1-0.7-0.6-0.9-0.6s-0.4,0.6-0.7,0.6c-0.3,0.1-0.5,0.1-0.8,0.1c-0.3,0.1-0.5,0.2-0.8,0.2c-0.3,0.1-0.5,0.4-0.7,0.4
		c-0.3,0.1-0.7-0.6-1-0.5c-0.3,0.1-0.4,0.7-0.6,0.8c-0.3,0.1-0.5,0.3-0.7,0.4c-0.3,0.1-0.6,0-0.8,0.1c-0.3,0.1-0.6,0-0.8,0.1
		c-0.3,0.1-0.4,0.4-0.7,0.4c-0.3,0.1-0.6,0-0.8,0.1c-0.3,0.1-0.5,0.2-0.7,0.3c-0.2,0.1-0.5,0.1-0.8,0.2c-0.2,0.1-0.6,0-0.9,0.1
		c-0.2,0.1-0.3,0.7-0.5,0.8c-0.2,0.1-0.4,0.4-0.7,0.5c-0.2,0.1-0.5,0.2-0.8,0.3c-0.2,0.1-0.6-0.1-0.9,0.1c-0.2,0.1-0.4,0.3-0.7,0.5
		c-0.2,0.1-0.4,0.5-0.6,0.6c-0.2,0.1-0.5,0.2-0.8,0.3c-0.2,0.1-0.7-0.2-1,0c-0.2,0.1-0.1,0.9-0.3,1.1c-0.2,0.1-0.6,0.1-0.8,0.2
		c-0.2,0.1-0.4,0.4-0.6,0.6c-0.2,0.2-0.4,0.4-0.6,0.5c-0.2,0.2-0.5,0.3-0.7,0.4c-0.2,0.2-0.6,0.1-0.8,0.3c-0.2,0.2-0.4,0.4-0.6,0.6
		c-0.2,0.2-0.2,0.6-0.4,0.8c-0.2,0.2-0.5,0.3-0.7,0.5c-0.2,0.2-0.7,0-0.9,0.2c-0.2,0.2-0.1,0.7-0.3,0.9c-0.2,0.2-0.6,0.2-0.8,0.3
		c-0.2,0.2-0.5,0.3-0.6,0.5c-0.2,0.2,0.1,0.8-0.1,1c-0.2,0.2-0.8,0-0.9,0.2c-0.2,0.2,0.1,0.8-0.1,1c-0.2,0.2-0.5,0.3-0.7,0.5
		c-0.2,0.2-0.3,0.4-0.5,0.6c-0.2,0.2-0.8,0.1-0.9,0.3c-0.2,0.2-0.1,0.6-0.3,0.8c-0.1,0.2,0.1,0.7-0.1,0.9c-0.1,0.2-0.5,0.3-0.6,0.5
		c-0.1,0.2-0.2,0.5-0.3,0.7C5.2,61.5,5.1,61.8,5,62c-0.1,0.2-0.5,0.4-0.6,0.6c-0.1,0.2,0,0.6-0.1,0.8c-0.1,0.2-0.2,0.5-0.3,0.7
		c-0.1,0.2-0.3,0.5-0.4,0.7c-0.1,0.2-0.4,0.4-0.5,0.6c-0.1,0.2,0.2,0.6,0.1,0.9C3,66.7,2.6,66.8,2.5,67c-0.1,0.3-0.1,0.5-0.2,0.8
		c-0.1,0.3,0,0.6-0.1,0.8c-0.1,0.3-0.2,0.5-0.3,0.7c-0.1,0.3-0.2,0.5-0.3,0.8c-0.1,0.3,0,0.5-0.1,0.8c-0.1,0.3-0.1,0.5-0.1,0.8
		C1.4,72,1.1,72.2,1,72.4c-0.1,0.3,0.4,0.6,0.4,0.9c0,0.3-0.8,0.4-0.9,0.7c0,0.3,0.3,0.6,0.3,0.9c0,0.3-0.2,0.5-0.3,0.8
		c0,0.3,0,0.5,0,0.8c0,0.3,0,0.5,0,0.8c0,0.3-0.2,0.5-0.2,0.8c0,0.3,0.1,0.5,0.1,0.8c0,0.3-0.2,0.5-0.2,0.8c0,0.3-0.2,0.5-0.2,0.8
		c0,0.3,0.5,0.5,0.5,0.8C0.5,81.5,0,81.8,0,82c0,0.3,0.6,0.5,0.6,0.8c0,0.3-0.3,0.5-0.3,0.8c0,0.3,0.3,0.5,0.3,0.8
		c0,0.3-0.5,0.6-0.5,0.8c0,0.3,0.3,0.5,0.3,0.8c0,0.3,0.1,0.5,0.1,0.8c0,0.3,0.3,0.5,0.3,0.8c0,0.3-0.4,0.6-0.4,0.9
		c0,0.3,0.2,0.5,0.2,0.8c0,0.3,0.5,0.5,0.5,0.7c0,0.3-0.1,0.5,0,0.8c0,0.3,0.2,0.5,0.3,0.8c0,0.3-0.1,0.6,0,0.8
		c0.1,0.3-0.1,0.6,0,0.8c0.1,0.3,0.5,0.4,0.6,0.7c0.1,0.3-0.2,0.6-0.1,0.8C2,95,1.7,95.3,1.7,95.6c0.1,0.3,0.3,0.5,0.4,0.7
		c0.1,0.3-0.1,0.6-0.1,0.8c0.1,0.3,0.5,0.4,0.6,0.7c0.1,0.3,0,0.6,0.1,0.8c0.1,0.3,0.6,0.4,0.6,0.6c0.1,0.3,0.1,0.5,0.1,0.8
		c0.1,0.3,0,0.6,0.1,0.8c0.1,0.2,0,0.6,0.1,0.8c0.1,0.2,0.5,0.4,0.6,0.6c0.1,0.2,0.4,0.4,0.5,0.7c0.1,0.2-0.1,0.6,0,0.9
		c0.1,0.2,0.4,0.4,0.5,0.6c0.1,0.2,0,0.6,0.1,0.8c0.1,0.2,0.2,0.5,0.4,0.7c0.1,0.2,0.4,0.4,0.5,0.6c0.1,0.2,0.6,0.3,0.7,0.5
		c0.1,0.2-0.3,0.8-0.2,1c0.1,0.2,0.7,0.2,0.8,0.5c0.1,0.2,0.1,0.6,0.3,0.8c0.1,0.2,0.2,0.5,0.3,0.7c0.1,0.2,0.1,0.5,0.3,0.8
		c0.1,0.2,0.8,0.1,0.9,0.3c0.2,0.2,0.3,0.4,0.5,0.6c0.2,0.2,0.4,0.4,0.5,0.6c0.2,0.2,0.3,0.4,0.5,0.6c0.2,0.2,0.2,0.5,0.4,0.7
		c0.2,0.2,0,0.7,0.2,0.9c0.2,0.2,0.7,0.1,0.9,0.3c0.2,0.2,0.2,0.5,0.4,0.7c0.2,0.2,0.1,0.6,0.3,0.8c0.2,0.2,0.7,0.1,0.9,0.2
		c0.2,0.2,0.4,0.4,0.6,0.5c0.2,0.2,0.4,0.3,0.6,0.5c0.2,0.2,0.4,0.4,0.6,0.5c0.2,0.2,0.4,0.4,0.6,0.6c0.2,0.2,0.6,0.1,0.8,0.3
		c0.2,0.2,0.1,0.7,0.3,0.9c0.2,0.2,0.5,0.2,0.7,0.4c0.2,0.2,0.3,0.4,0.5,0.6c0.2,0.2,0.7-0.1,1,0c0.2,0.2,0,0.9,0.2,1.1
		c0.2,0.1,0.6,0.1,0.8,0.2c0.2,0.1,0.6,0,0.8,0.2c0.2,0.1,0.5,0.1,0.8,0.3c0.2,0.1,0.2,0.8,0.4,0.9c0.2,0.1,0.7-0.1,0.9,0
		c0.2,0.1,0.2,0.7,0.5,0.8c0.2,0.1,0.6,0,0.8,0.1c0.2,0.1,0.6,0,0.8,0.2c0.2,0.1,0.2,0.7,0.5,0.8c0.2,0.1,0.8-0.4,1-0.3
		c0.2,0.1,0.5,0.2,0.7,0.3c0.2,0.1,0.3,0.6,0.6,0.6c0.2,0.1,0.6,0,0.8,0.1c0.2,0.1,0.5,0.1,0.8,0.2c0.3,0.1,0.4,0.5,0.6,0.6
		c0.3,0.1,0.6-0.2,0.9-0.2c0.3,0.1,0.5,0.3,0.7,0.4c0.3,0.1,0.5,0.1,0.8,0.2c0.3,0.1,0.5,0.1,0.8,0.2c0.3,0.1,0.5,0.3,0.7,0.3
		c0.3,0.1,0.6-0.1,0.8,0c0.3,0.1,0.5,0.4,0.7,0.4c0.3,0,0.6-0.2,0.8-0.1c0.3,0,0.5,0.4,0.7,0.4c0.3,0,0.5,0,0.8,0
		c0.3,0,0.5-0.1,0.8,0c0.3,0,0.5,0.1,0.8,0.1c0.3,0,0.5,0.3,0.8,0.3c0.3,0,0.5,0.3,0.8,0.3c0.3,0,0.5-0.1,0.8-0.1
		c0.3,0,0.5-0.1,0.8-0.1c0.3,0,0.5,0.1,0.8,0.1c0.3,0,0.5-0.2,0.8-0.2c0.3,0,0.5-0.3,0.8-0.3c0.3,0,0.5,0.8,0.8,0.8
		c0.3,0,0.5-0.8,0.8-0.8c0.3,0,0.5,0,0.8,0c0.3,0,0.6,0.6,0.8,0.6c0.3,0,0.5-0.5,0.8-0.6c0.3,0,0.6,0.3,0.8,0.3
		c0.3,0,0.5-0.6,0.7-0.6c0.3,0,0.5,0,0.8,0c0.3,0,0.5-0.1,0.8-0.1c0.3,0,0.5-0.1,0.8-0.1c0.3,0,0.5-0.1,0.8-0.2c0.3,0,0.5,0,0.8,0
		c0.3,0,0.6,0.4,0.9,0.4c0.3,0,0.4-0.6,0.7-0.7c0.3-0.1,0.5,0,0.8,0c0.3-0.1,0.6,0.1,0.8,0.1c0.3-0.1,0.5,0,0.8-0.1
		c0.3-0.1,0.5,0,0.8-0.1c0.3-0.1,0.5-0.2,0.8-0.3c0.3-0.1,0.5-0.3,0.7-0.4c0.3-0.1,0.4-0.4,0.7-0.5c0.3-0.1,0.7,0.4,0.9,0.4
		c0.3-0.1,0.5-0.2,0.7-0.3c0.3-0.1,0.3-0.8,0.6-0.8c0.3-0.1,0.7,0.4,0.9,0.3c0.3-0.1,0.5-0.1,0.8-0.2c0.3-0.1,0.3-0.7,0.6-0.8
		c0.3-0.1,0.4-0.4,0.7-0.5c0.2-0.1,0.7,0.4,1,0.3c0.2-0.1,0.5-0.2,0.7-0.3c0.2-0.1,0.6-0.1,0.8-0.2c0.2-0.1,0.3-0.7,0.5-0.8
		c0.2-0.1,0.4-0.3,0.7-0.4c0.2-0.1,0.6,0.1,0.9,0c0.2-0.1,0.5-0.1,0.8-0.3c0.2-0.1,0.5-0.3,0.7-0.4c0.2-0.1,0.3-0.7,0.5-0.8
		c0.2-0.1,0.8,0.4,1,0.2c0.2-0.1,0.3-0.6,0.5-0.7c0.2-0.1,0.6-0.1,0.8-0.2c0.2-0.1,0.6-0.1,0.8-0.3c0.2-0.1,0.3-0.5,0.5-0.7
		c0.2-0.1,0.3-0.5,0.6-0.6c0.2-0.1,0.4-0.3,0.7-0.4c0.2-0.1,0.5-0.2,0.8-0.3c0.2-0.2,0.3-0.5,0.5-0.6c0.2-0.2,0.5-0.2,0.8-0.3
		c0.2-0.2,0.5-0.3,0.7-0.4c0.2-0.2,0.5-0.3,0.7-0.4c0.2-0.2,0.2-0.7,0.4-0.8c0.2-0.2,0.6-0.1,0.8-0.3c0.2-0.2,0.4-0.4,0.6-0.6
		c0.2-0.2,0.5-0.2,0.7-0.4c0.2-0.2,0.1-0.7,0.2-0.9c0.2-0.2,0.5-0.2,0.7-0.4c0.2-0.2,0.6-0.2,0.8-0.4c0.2-0.2,0.5-0.2,0.7-0.4
		c0.2-0.2-0.1-0.8,0.1-1c0.2-0.2,0.4-0.3,0.6-0.5c0.2-0.2,0.4-0.4,0.6-0.6c0.2-0.2,0.4-0.4,0.6-0.6c0.2-0.2,0.2-0.5,0.4-0.7
		c0.2-0.2,0.3-0.4,0.5-0.6c0.2-0.2,0.5-0.3,0.7-0.5c0.2-0.2-0.1-0.7,0.1-0.9c0.2-0.2,0.9-0.1,1-0.3c0.1-0.2-0.2-0.7,0-1
		c0.1-0.2,0.4-0.4,0.5-0.6c0.1-0.2,0.7-0.2,0.8-0.4c0.1-0.2,0-0.6,0.1-0.8c0.1-0.2,0.5-0.3,0.7-0.6c0.1-0.2-0.1-0.6,0-0.9
		c0.1-0.2,0.1-0.6,0.2-0.8c0.1-0.2,0.2-0.5,0.3-0.7c0.1-0.2,0.4-0.4,0.5-0.6c0.1-0.2-0.2-0.6-0.1-0.9c0.1-0.2,0.7-0.3,0.8-0.5
		c0.1-0.2-0.3-0.7-0.2-0.9c0.1-0.3,0.7-0.3,0.7-0.6c0.1-0.3-0.1-0.6,0-0.8c0.1-0.3,0.3-0.5,0.4-0.7c0.1-0.3-0.2-0.6-0.2-0.9
		c0.1-0.3,0.7-0.4,0.7-0.6c0.1-0.3-0.1-0.6-0.1-0.8c0.1-0.3-0.1-0.6,0-0.8c0.1-0.3,0.2-0.5,0.2-0.8c0-0.3,0.2-0.5,0.3-0.8
		c0-0.3,0-0.5,0.1-0.8c0-0.3,0.4-0.5,0.4-0.8c0-0.3-0.3-0.6-0.2-0.8c0-0.3-0.1-0.5-0.1-0.8c0-0.3,0.5-0.5,0.6-0.8
		c0-0.3,0.1-0.5,0.1-0.8c0-0.3-0.1-0.5-0.1-0.8c0-0.3-0.4-0.5-0.4-0.8c0-0.3,0.4-0.5,0.4-0.8c0-0.3-0.3-0.5-0.4-0.8
		c0-0.3-0.3-0.5-0.3-0.8c0-0.3,0.2-0.5,0.2-0.8c0-0.3-0.1-0.5-0.2-0.8c0-0.3-0.1-0.5-0.2-0.8c0-0.3-0.1-0.5-0.2-0.8
		c0-0.3,0.1-0.6,0.1-0.8c0-0.3,0.3-0.6,0.3-0.9c0-0.3-0.2-0.5-0.2-0.8c-0.1-0.3,0-0.5,0-0.8c0-0.4-0.2-0.4-0.2-0.8
		c0-0.4,0.1-0.4,0.1-0.8c0-0.4-0.2-0.4-0.2-0.8c0-0.4-0.3-0.4-0.4-0.8c0-0.4-0.3-0.4-0.3-0.8c0-0.4,0-0.4,0-0.8
		c0-0.4,0.1-0.4,0.1-0.8c0-0.4,0-0.4,0-0.8c0-0.4,0.5-0.4,0.5-0.8c0-0.4-0.4-0.4-0.4-0.8c0-0.4-0.1-0.4-0.2-0.8
		c0-0.4,0.3-0.4,0.3-0.8c0-0.4,0-0.4,0-0.8c0-0.4-0.6-0.4-0.6-0.8c0-0.4,0.7-0.4,0.6-0.8c0-0.4-0.4-0.4-0.4-0.8
		c0-0.4-0.4-0.4-0.5-0.8c0-0.4,0.6-0.4,0.6-0.8c0-0.4,0-0.4,0-0.8c0-0.4-0.4-0.4-0.4-0.8c0-0.4,0.1-0.4,0.1-0.8
		c0-0.4-0.1-0.4-0.1-0.8c0-0.4,0.3-0.4,0.3-0.8c0-0.4-0.7-0.4-0.7-0.8c0-0.4,0.6-0.4,0.6-0.8c0-0.4-0.3-0.4-0.3-0.8
		c0-0.4-0.5-0.4-0.5-0.8c0-0.4,0.4-0.4,0.4-0.8c0-0.4-0.4-0.4-0.4-0.8c0-0.4,0.2-0.4,0.2-0.8c0-0.4-0.1-0.4-0.1-0.8
		c0-0.4,0-0.4-0.1-0.8c0-0.4,0.4-0.4,0.4-0.8c0-0.4-0.6-0.4-0.6-0.8c0-0.4,0.3-0.4,0.3-0.8c0-0.4-0.5-0.4-0.5-0.8
		c0-0.4,0.7-0.4,0.7-0.8c0-0.4-0.3-0.4-0.3-0.8c0-0.4-0.5-0.4-0.5-0.8c0-0.4,0.4-0.4,0.3-0.8c0-0.4,0.1-0.4,0.1-0.8
		c0-0.4-0.3-0.4-0.3-0.8c0-0.4,0.1-0.4,0-0.8c0-0.4-0.5-0.4-0.5-0.8c0-0.4,0.3-0.4,0.3-0.8c0-0.4,0.3-0.4,0.3-0.8
		c0-0.4-0.4-0.4-0.4-0.8c0-0.4,0.2-0.4,0.2-0.8c0-0.4-0.2-0.4-0.3-0.8c0-0.4-0.3-0.4-0.4-0.8c0-0.4,0.3-0.4,0.3-0.8
		c0-0.4,0.3-0.4,0.3-0.8c0-0.4-0.4-0.4-0.4-0.8c0-0.4-0.3-0.4-0.4-0.8c0-0.4,0-0.4,0-0.8c0-0.4,0-0.4,0-0.8c0-0.4-0.3-0.5-0.2-0.9
		c0.3,0.1,0.9,0.1,1.2,0.1c0.3,0.1,0.5,0.4,0.7,0.5c0.3,0.1,0.5,0.1,0.8,0.2c0.3,0.1,0.5,0,0.8,0.1c0.3,0.1,0.6-0.2,0.9-0.1
		c0.3,0.1,0.4,0.4,0.7,0.5c0.3,0.1,0.6,0,0.8,0.1c0.3,0.1,0.5,0.3,0.7,0.4c0.3,0.1,0.6,0,0.8,0.1c0.3,0.1,0.3,0.7,0.5,0.8
		c0.2,0.1,0.7-0.2,0.9-0.1c0.2,0.1,0.6,0.1,0.8,0.2c0.2,0.1,0.2,0.8,0.4,0.9c0.2,0.1,0.5,0.1,0.8,0.2c0.2,0.1,0.5,0.2,0.7,0.3
		c0.2,0.1,0.3,0.5,0.6,0.6c0.2,0.2,0.5,0.2,0.7,0.3c0.2,0.2,0.8-0.1,1,0.1c0.2,0.2,0.4,0.4,0.6,0.5c0.2,0.2-0.1,0.9,0.1,1.1
		c0.2,0.2,0.5,0.3,0.7,0.4c0.2,0.2,0.6,0.1,0.8,0.3c0.2,0.2,0.1,0.7,0.2,0.9c0.2,0.2,0.3,0.4,0.5,0.6c0.2,0.2,0.5,0.3,0.6,0.5
		c0.2,0.2,0.5,0.3,0.7,0.5c0.2,0.2,0.2,0.5,0.3,0.8c0.1,0.2,0.1,0.6,0.2,0.8c0.1,0.2,0.4,0.4,0.6,0.6c0.1,0.2,0.3,0.4,0.4,0.7
		c0.1,0.2,0.5,0.4,0.6,0.6c0.1,0.2-0.1,0.6,0,0.9c0.1,0.2,0.6,0.4,0.7,0.6c0.1,0.3,0.1,0.5,0.2,0.8c0.1,0.3,0,0.6,0,0.8
		c0.1,0.3,0.2,0.5,0.3,0.7c0.1,0.3,0.2,0.5,0.3,0.8c0.1,0.3,0.3,0.5,0.4,0.7c0.1,0.3-0.4,0.6-0.4,0.9c0.1,0.3,0.1,0.5,0.1,0.8
		c0,0.3,0.1,0.5,0.2,0.8c0,0.3,0.5,0.5,0.5,0.7c0,0.3,0.1,0.5,0.2,0.8c0,0.3-0.1,0.6-0.1,0.8c0,0.3,0,0.5,0,0.8
		c0,0.3-0.1,0.5-0.1,0.8c0,0.3,0.1,0.5,0.1,0.8c0,0.3,0.1,0.5,0.1,0.8c0,0.3-0.3,0.5-0.2,0.8c0,0.3,0.4,0.5,0.4,0.8
		c0,0.3-0.4,0.5-0.4,0.8c0,0.3,0.7,0.5,0.7,0.8c0,0.3-0.7,0.5-0.7,0.8c0,0.3,0.2,0.9,0.2,1.1c0.1-0.2,0.3-0.8,0.5-1.1
		c0.1-0.2,0.2-0.5,0.4-0.7c0.1-0.2,0.6-0.3,0.8-0.5c0.1-0.2,0-0.6,0.1-0.8c0.1-0.2-0.1-0.7,0-0.9c0.1-0.2,0.3-0.4,0.4-0.7
		c0.1-0.2,0.2-0.5,0.3-0.8c0.1-0.2,0.5-0.3,0.6-0.6c0.1-0.2,0.2-0.5,0.3-0.7c0.1-0.2,0-0.6,0.1-0.8c0.1-0.3,0.5-0.4,0.6-0.7
		c0.1-0.3,0.3-0.5,0.4-0.7c0.1-0.3,0.3-0.5,0.3-0.7c0.1-0.3-0.3-0.6-0.2-0.9c0.1-0.3,0.3-0.5,0.4-0.7c0.1-0.3,0.1-0.5,0.2-0.8
		c0.1-0.3,0.3-0.5,0.4-0.7c0.1-0.3,0.1-0.5,0.1-0.8c0-0.3,0.1-0.5,0.1-0.8c0-0.3-0.5-0.6-0.5-0.9c0-0.3,0.6-0.5,0.6-0.7
		c0-0.3,0-0.5,0-0.8c0-0.3,0.2-0.5,0.2-0.8c0-0.3-0.2-0.5-0.2-0.8c0-0.3-0.1-0.5-0.1-0.8c0-0.3,0.4-0.5,0.4-0.8
		c0-0.3-0.6-0.5-0.7-0.8c0-0.3,0.3-0.6,0.3-0.8c0-0.3-0.2-0.5-0.2-0.8c0-0.3,0.1-0.6,0.1-0.8c0-0.3,0-0.5,0-0.8
		c-0.1-0.3-0.6-0.4-0.6-0.7c-0.1-0.3,0-0.6,0-0.8c-0.1-0.3,0.1-0.6,0.1-0.9c-0.1-0.3-0.3-0.5-0.4-0.7c-0.1-0.3-0.1-0.5-0.2-0.8
		c-0.1-0.2-0.5-0.4-0.6-0.6c-0.1-0.2-0.2-0.5-0.3-0.7c-0.1-0.2,0-0.6-0.1-0.8c-0.1-0.2-0.1-0.5-0.2-0.8c-0.1-0.2-0.5-0.4-0.6-0.6
		c-0.1-0.2-0.2-0.5-0.3-0.7c-0.1-0.2-0.5-0.3-0.6-0.6c-0.1-0.2-0.3-0.4-0.5-0.6c-0.1-0.2-0.4-0.4-0.5-0.6c-0.2-0.2,0-0.7-0.1-0.9
		c-0.2-0.2-0.2-0.5-0.4-0.7c-0.2-0.2-0.5-0.3-0.7-0.5c-0.2-0.2-0.5-0.3-0.6-0.5c-0.2-0.2-0.5-0.3-0.6-0.5c-0.2-0.2,0-0.8-0.2-1
		c-0.2-0.2-0.7,0-0.9-0.2c-0.2-0.2-0.3-0.5-0.5-0.6c-0.2-0.2-0.4-0.3-0.6-0.5c-0.2-0.2-0.4-0.3-0.6-0.5c-0.2-0.2-0.2-0.6-0.4-0.7
		c-0.2-0.2-0.5-0.2-0.7-0.4C110,21.9,109.8,21.7,109.6,21.6z"/>
</g>
<g>
	<g>
		<g>
			<path class="st1" d="M69,58.2c-0.5,0-0.5,0.4-0.9,0.7c-0.4,0.4-0.2,0.5-0.6,0.9c-0.4,0.4-0.3,0.4-0.7,0.8
				c-0.4,0.4-0.4,0.4-0.8,0.7c-0.4,0.4-0.4,0.3-0.8,0.7c-0.4,0.4-0.4,0.4-0.7,0.7c-0.4,0.4-0.5,0.3-0.8,0.6
				c-0.4,0.4-0.4,0.3-0.8,0.7c-0.4,0.4-0.1,0.6-0.5,1c-0.4,0.4-0.4,0.4-0.7,0.8s-0.7,0.1-0.7,0.6c0,0.5,0.5,0.2,0.8,0.7
				c-0.3,0.2-0.8,0.4-1.1,0.6c-0.3,0.2-0.5,0.5-0.8,0.7c-0.2,0.2-0.5,0.3-0.7,0.5c-0.3,0.2-0.5,0.3-0.7,0.5
				c-0.3,0.2-0.5,0.3-0.8,0.4c0,0-0.2,0.3-0.5,0.3c-0.3,0-0.7-0.2-1.1-0.3c-0.3,0-0.7-0.1-1.1-0.2c-0.4-0.1-0.7-0.1-1.2-0.2
				c-0.4,0-0.8-0.1-1.2-0.2c-0.4,0-0.8,0.2-1.2,0.2c-0.3,0-0.6-0.2-1-0.2c-0.3,0-0.6,0-1,0c-0.3,0-0.6,0.4-0.9,0.5
				c-0.3,0.1-0.6-0.1-1,0c-0.3-0.1-0.6-0.3-0.9-0.4c-0.3-0.1-0.7,0.2-1,0.2c-0.3,0-0.6-0.3-0.9-0.3c-0.3,0-0.6-0.1-0.9-0.1
				c-0.4,0-0.8,0.1-1.2,0.1c-0.4,0-0.8-0.1-1.2,0c-0.4,0-0.8,0.1-1.2,0.2c-0.4,0.1-0.8,0.3-1.1,0.4c-0.5,0.1-0.9,0.2-1.1,0.2
				c-0.3,0-0.5-0.2-0.5-0.2c-0.2-0.1-0.5-0.3-0.8-0.5c-0.2-0.1-0.5-0.3-0.8-0.5c-0.2-0.2-0.4-0.4-0.7-0.6c-0.2-0.2-0.5-0.3-0.8-0.5
				c-0.2-0.2-0.4-0.3-0.6-0.4c0.3-0.5,0.5-0.3,0.5-0.9c0-0.5-0.3-0.4-0.7-0.7c-0.4-0.4-0.3-0.4-0.7-0.8c-0.4-0.4-0.3-0.4-0.7-0.8
				c-0.4-0.4-0.4-0.3-0.8-0.7c-0.4-0.4-0.4-0.3-0.8-0.7c-0.4-0.4-0.3-0.5-0.6-0.8c-0.4-0.4-0.3-0.4-0.7-0.8
				c-0.4-0.4-0.5-0.2-0.9-0.6c-0.4-0.4-0.2-0.5-0.6-0.9c-0.4-0.4-0.5-0.3-0.8-0.7c-0.4-0.4-0.2-0.8-0.7-0.8c-0.5,0-0.4,0.4-0.8,0.7
				c-0.4,0.4-0.4,0.3-0.7,0.7c-0.4,0.4-0.3,0.4-0.6,0.8c-0.4,0.4-0.2,0.5-0.6,0.9c-0.4,0.4-0.5,0.2-0.8,0.6
				c-0.4,0.4-0.2,0.5-0.5,0.9c-0.4,0.4-0.4,0.3-0.7,0.7c-0.4,0.4-0.5,0.3-0.8,0.6c-0.4,0.4-0.4,0.3-0.8,0.7
				c-0.4,0.4-0.3,0.4-0.6,0.8c-0.3,0.4-0.3,0.4-0.6,0.8c-0.3,0.4-0.4,0.3-0.7,0.7c-0.3,0.4-0.3,0.4-0.7,0.8
				c-0.4,0.4-0.5,0.2-0.9,0.6c-0.4,0.4-0.3,0.4-0.7,0.7c-0.4,0.4-0.3,0.4-0.7,0.7c-0.4,0.4-0.4,0.3-0.7,0.7
				c-0.4,0.4-0.3,0.4-0.7,0.7c-0.4,0.4-0.1,0.6-0.5,0.9c-0.4,0.4-0.4,0.3-0.8,0.7c-0.4,0.4-0.3,0.4-0.6,0.8
				c-0.4,0.4-0.6,0.1-0.9,0.5c-0.4,0.4-0.3,0.4-0.7,0.7c-0.4,0.4-0.2,0.5-0.5,0.9c-0.4,0.4-0.5,0.2-0.8,0.6
				c-0.4,0.4-0.2,0.5-0.5,0.9c-0.4,0.4-0.5,0.3-0.8,0.6c-0.4,0.4-0.5,0.3-0.8,0.6c-0.4,0.4-0.8,0.3-0.8,0.8c0,0.5,0.5,0.5,0.8,0.8
				c0.4,0.4,0.5,0.3,0.8,0.6c0.4,0.4,0.3,0.4,0.7,0.8C8.8,82,9,81.9,9.3,82.3c0.4,0.4,0.4,0.4,0.7,0.7c0.4,0.4,0.2,0.6,0.5,0.9
				c0.4,0.4,0.4,0.4,0.7,0.7c0.4,0.4,0.5,0.2,0.9,0.6c0.4,0.4,0.2,0.5,0.6,0.9c0.4,0.4,0.5,0.3,0.8,0.6c0.4,0.4,0.2,0.7,0.7,0.6
				c0.6,0,0.5-0.2,0.9-0.6c0.4-0.4,0.3-0.5,0.7-0.9c0.4-0.4,0.2-0.9,0.8-0.9c0.5-0.1,0.3,0.5,0.6,0.9c0.4,0.3,0.5,0.2,0.9,0.5
				c0.4,0.3,0.4,0.3,0.8,0.6c0.4,0.3,0.2,0.5,0.6,0.8c0.4,0.3,0.4,0.3,0.8,0.6c0.4,0.3,0.4,0.3,0.7,0.7s0.6,0.1,0.9,0.5
				c0,0.3,0,0.6,0.1,0.9c0.1,0.3,0.1,0.6,0.2,0.8c0.1,0.3,0.3,0.5,0.4,0.8c0.1,0.2,0,0.6,0.1,0.8c0.1,0.2,0.5,0.4,0.6,0.6
				c-0.2,0.3-0.4,0.6-0.5,0.9c-0.1,0.3-0.3,0.6-0.4,0.9c-0.1,0.3,0.1,0.7,0.1,1c0,0.3-0.1,0.7-0.1,1c0.1,0.3,0.2,0.7,0.3,1
				c0.1,0.3,0.5,0.5,0.7,0.8c0.2,0.3,0.2,0.8,0.4,1.1c0.3,0.3,0.5,0.6,0.8,0.8c0.3,0.2,0.7,0.3,1.1,0.4c0.3,0.1,0.6,0.3,1,0.4
				c0,0.3,0.3,0.5,0.4,0.8c0.1,0.3,0,0.7,0.1,1c0.1,0.3,0.1,0.7,0.3,1c0.2,0.3,0.6,0.4,0.9,0.7c0.3,0.3,0.5,0.5,0.8,0.7
				c0.3,0.2,0.5,0.5,0.9,0.7c0.3,0.1,0.7,0.3,1,0.3c0.4,0.1,0.7,0.1,1.1,0.1c0.1,0,0.2-0.1,0.3-0.1c0,0.4-0.1,0.8,0.1,1.2
				c0.1,0.4,0.3,0.8,0.5,1.1c0.2,0.3,0.6,0.5,0.8,0.7c0.3,0.3,0.4,0.6,0.7,0.8c0.3,0.2,0.6,0.4,0.9,0.6c0.3,0.1,0.7,0.2,1.1,0.3
				c0.4,0.1,0.7,0.1,1.1,0.1c0.2,0,0.3,0,0.4,0c0,0.3,0.2,0.6,0.4,1c0.1,0.3,0.1,0.7,0.3,1c0.2,0.3,0.5,0.5,0.7,0.7
				c0.2,0.2,0.5,0.4,0.8,0.6c0.3,0.2,0.5,0.5,0.8,0.7c0.3,0.1,0.7-0.1,1,0c0.3,0.1,0.6,0.5,0.9,0.5c0.3,0,0.6-0.4,0.9-0.4
				c0.3-0.1,0.6,0,0.9-0.1c0.3-0.1,0.6-0.1,0.9-0.3c0.4-0.3,0.3-0.5,0.7-0.7c0.4-0.3,0.6,0,1-0.2c0.4-0.3,0.3-0.4,0.8-0.5
				c0.2,0.2,0.5,0.2,0.7,0.3c0.3,0.1,0.5,0.2,0.8,0.3c0.3,0.1,0.6,0.4,1,0.5c0.3,0.1,0.7,0.1,1.1,0.1c0.4,0.1,0.7,0.1,1.1,0.1
				c0.3,0,0.6-0.1,0.9-0.2c0.3,0,0.7,0.1,1,0c0.3-0.1,0.5-0.4,0.8-0.5c0.3-0.1,0.6-0.3,0.8-0.4c0.2-0.2,0.6-0.3,0.8-0.5
				c0.2-0.2,0.3-0.5,0.5-0.8c0.2-0.2,0.3-0.5,0.5-0.8c0.1,0,0.3,0,0.3,0c0.3,0,0.5,0.2,0.8,0.1c0.3,0,0.5-0.3,0.7-0.4
				c0.3-0.1,0.6-0.2,0.9-0.3c0.3-0.1,0.6-0.2,0.9-0.3c0.3-0.2,0.5-0.5,0.7-0.7c0.3-0.2,0.6-0.3,0.9-0.5c0.2-0.3,0.5-0.5,0.7-0.8
				c0.2-0.3,0.3-0.6,0.4-0.9c0.1-0.2,0.2-0.3,0.3-0.5c0.3-0.1,0.5-0.5,0.8-0.7c0.3-0.2,0.8-0.2,1-0.5c0.3-0.3,0.3-0.7,0.5-1
				c0.2-0.3,0.7-0.5,0.8-0.8c0.1-0.3,0.3-0.6,0.4-0.9c0.1-0.3,0.1-0.7,0.2-1c0-0.3,0-0.7,0-1c0-0.1,0-0.1,0-0.2
				c0.3-0.1,0.6-0.4,0.9-0.6c0.3-0.2,0.7-0.4,0.9-0.6c0.3-0.2,0.6-0.5,0.8-0.7c0.2-0.3,0.5-0.6,0.7-0.9c0.2-0.3,0-0.8,0.1-1.2
				c0.1-0.4,0.2-0.7,0.2-1.1c0-0.3,0.3-0.6,0.2-0.8c-0.1-0.3-0.2-0.5-0.3-0.8c-0.1-0.2-0.2-0.2-0.3-0.4c0.1-0.3,0.2-0.5,0.4-0.8
				c0.1-0.3,0.2-0.6,0.3-0.8c0.1-0.3,0.3-0.5,0.5-0.8c0.1-0.3,0.1-0.7,0.2-1.1c0.1-0.4,0.2-0.7,0.3-1.1c0.3-0.4,0.4-0.4,0.8-0.7
				c0.4-0.3,0.4-0.3,0.8-0.7c0.4-0.3,0.4-0.3,0.8-0.7c0.4-0.3,0.3-0.4,0.7-0.8c0.4-0.3,0.6-0.1,1-0.4c0.4-0.3,0.2-0.6,0.6-0.9
				s0.3-0.6,0.9-0.6c0.5,0,0.3,0.4,0.6,0.7c0.3,0.3,0.4,0.3,0.7,0.6c0.3,0.3,0.2,0.5,0.5,0.8c0.3,0.3,0.3,0.5,0.7,0.5
				c0.5,0,0.3-0.3,0.7-0.7c0.4-0.4,0.5-0.3,0.8-0.6c0.4-0.4,0.3-0.4,0.7-0.8c0.4-0.4,0.3-0.4,0.7-0.8c0.4-0.4,0.4-0.3,0.8-0.7
				c0.4-0.4,0.3-0.5,0.6-0.8c0.4-0.4,0.3-0.4,0.7-0.8c0.4-0.4,0.4-0.3,0.8-0.7c0.4-0.4,0.4-0.3,0.8-0.7c0.4-0.4,0.3-0.4,0.7-0.8
				c0.4-0.4,0.6-0.1,0.6-0.7c0-0.5-0.2-0.3-0.6-0.7c-0.4-0.4-0.2-0.5-0.6-0.9c-0.4-0.4-0.4-0.3-0.7-0.7c-0.4-0.4-0.4-0.3-0.8-0.6
				c-0.4-0.4-0.4-0.4-0.7-0.7c-0.4-0.4-0.4-0.3-0.8-0.7c-0.4-0.4-0.3-0.4-0.6-0.8c-0.4-0.4-0.3-0.4-0.7-0.8
				c-0.4-0.4-0.4-0.3-0.7-0.7c-0.4-0.4-0.3-0.5-0.6-0.8c-0.3-0.4-0.5-0.2-0.9-0.5c-0.3-0.4-0.3-0.4-0.7-0.8
				c-0.3-0.4-0.1-0.6-0.5-0.9c-0.4-0.4-0.4-0.4-0.7-0.7c-0.4-0.4-0.6-0.1-0.9-0.5c-0.4-0.4-0.1-0.6-0.5-0.9
				c-0.4-0.4-0.6-0.2-0.9-0.5c-0.4-0.4-0.3-0.5-0.6-0.8c-0.4-0.4-0.3-0.4-0.7-0.8c-0.4-0.4-0.3-0.4-0.7-0.8
				c-0.4-0.4-0.4-0.3-0.8-0.6c-0.4-0.4-0.3-0.4-0.7-0.8c-0.4-0.4-0.4-0.3-0.8-0.7c-0.4-0.4-0.4-0.3-0.8-0.7
				c-0.4-0.4-0.2-0.5-0.5-0.9c-0.4-0.4-0.4-0.4-0.7-0.7c-0.4-0.4-0.5-0.3-0.8-0.6c-0.4-0.4-0.3-0.4-0.5-0.9
				C69.5,58.4,69.5,58.2,69,58.2z M28.8,97.3c0,0-0.1,0-0.1,0c-0.2,0.2-0.4,0.4-0.7,0.4c-0.5,0-1-0.2-1.3-0.6
				c-0.2-0.2-0.2-0.5-0.2-0.8c0-0.5,0.3-0.9,0.8-1.2c0.4-0.2,0.4-0.3,0.8-0.5c0.4-0.2,0.5-0.1,0.9-0.4c0.4-0.2,0.4-0.2,0.8-0.5
				s0.2-0.5,0.6-0.8c0.2-0.2,0.6-0.3,0.8-0.3c0.5,0,0.9,0.3,1.2,0.7c0.5,0,0.3-0.3,0.7-0.5s0.8-0.8,0.8-0.4c0,0.5-0.3,0.2-0.7,0.4
				s-0.5,0.2-0.8,0.5c0.2,0.2,0.2,0.5,0.2,0.8c0,0.3-0.1,0.6-0.3,0.9c-0.4,0.3-0.3,0.5-0.8,0.8c-0.5,0.3-0.6,0.1-1,0.4
				c-0.5,0.3-0.5,0.2-0.9,0.5C29.3,97,29,97.2,28.8,97.3z M33.1,102.6c-0.2,0.2-0.4,0.1-0.7,0.1c-0.5,0-1-0.1-1.2-0.5
				c-0.2-0.2-0.3-0.5-0.3-0.8c0-0.3,0.2-0.7,0.4-1c0.4-0.3,0.5-0.2,1-0.5c0.5-0.3,0.4-0.3,0.9-0.6c0.5-0.3,0.5-0.2,1-0.5
				c0.2-0.2,0.5-0.3,0.7-0.5c0,0-0.1-0.3-0.1-0.3c0.2-0.2,0.6-0.3,0.8-0.3c0.5,0,1.1,0.3,1.4,0.8c0.2,0.2,0.3,0.6,0.3,0.8
				c0,0.5-0.5,0.8-1,1.1c-0.4,0.2-0.4,0.3-0.8,0.6c-0.4,0.2-0.4,0.3-0.8,0.5c-0.4,0.2-0.4,0.3-0.8,0.5
				C33.5,102.3,33.5,102.3,33.1,102.6z M41.8,105.3c-0.4,0.2-0.4,0.2-0.8,0.4c-0.4,0.2-0.3,0.4-0.7,0.6c-0.4,0.2-0.3,0.3-0.7,0.6
				c-0.4,0.2-0.4,0.2-0.8,0.5c-0.2,0.2-0.5,0.1-0.8,0.1c-0.5,0-0.9-0.2-1.2-0.7c-0.2-0.2-0.1-0.5-0.1-0.8c0-0.5,0.2-0.8,0.6-1.1
				c0.4-0.2,0.2-0.5,0.6-0.8c0.4-0.2,0.4-0.3,0.8-0.5c0.4-0.2,0.4-0.2,0.8-0.5c0.4-0.2,0.4-0.3,0.8-0.5c0.2-0.2,0.6,0.1,0.9,0.1
				c0.5,0,0.9,0.1,1.2,0.6c0.2,0.2,0.2,0.5,0.2,0.7C42.5,104.6,42.2,105,41.8,105.3z M46.7,108.5c0.1,0.2,0,0.4,0,0.6
				c0,0.3,0,0.6-0.3,0.8c-0.5,0.3-0.4,0.4-0.9,0.7c-0.5,0.3-0.5,0.3-0.9,0.6s-0.5,0.2-1,0.5c-0.2,0.1-0.3,0.2-0.5,0.2
				c-0.3,0-0.5-0.2-0.7-0.5c-0.1-0.2-0.1-0.3-0.1-0.4c0-0.3-0.1-0.8,0.2-0.9c0,0,0,0,0,0c0.5-0.3,0.5-0.3,0.9-0.6
				c0.5-0.3,0.4-0.3,0.9-0.6c0.5-0.3,0.6,0,1.1-0.3c0.2-0.1,0.3-0.2,0.4-0.2c0.3,0,0.7,0.1,0.8,0.4c0.5-0.1,0.4-0.3,0.8-0.5
				c0.4-0.3,0.5-1,0.7-0.5c0.2,0.4-0.2,0.5-0.7,0.7C47.2,108.5,47.1,108.2,46.7,108.5z M68.1,96.5c-0.1,0.3-0.5,0.5-0.9,0.8
				c-0.4,0.3-0.8,0.5-1.2,0.5c-0.2,0-0.3,0.1-0.5,0.2c-0.3-0.1-0.6-0.2-0.8-0.3c-0.3-0.1-0.5-0.3-0.7-0.5c-0.3-0.1-0.5-0.3-0.7-0.4
				c-0.3-0.2-0.4-0.4-0.6-0.6c-0.3-0.2-0.5-0.5-0.6-0.6c-0.1-0.1-0.3,0.2-0.4,0.1c0,0,0,0-0.1,0c0,0,0,0,0,0c0,0,0,0,0,0
				c-0.3-0.3-0.5-0.7-0.9-0.8c-0.4,0-0.8,0.2-1.1,0.5c-0.3,0.3-0.5,0.7-0.5,1.1c0,0.4,0.1,0.8,0.4,1.1c0,0,0.2,0.3,0.6,0.6
				c0.2,0.2,0.6,0.2,0.8,0.4c0.2,0.2,0.3,0.5,0.6,0.7c0.3,0.2,0.6,0.5,1,0.7c0.3,0.2,0.7,0.4,1.1,0.5c0.2,0.1,0.3,0.2,0.5,0.2
				c0.1,0.1,0.3,0.1,0.4,0.2c0,0-0.2,0.1-0.2,0.1c0,0,0,0.2,0,0.6c0,0.3,0.3,0.6,0.2,0.9c-0.1,0.3-0.4,0.5-0.5,0.7
				c-0.1,0.2-0.3,0.2-0.5,0.3c-0.1,0.1-0.2,0.4-0.5,0.4c0,0,0-0.2-0.1-0.2c-0.1,0-0.1-0.1-0.2-0.1c0,0,0,0.1,0,0.1
				c-0.4,0-0.8-0.2-1.1-0.3c-0.4-0.1-0.7-0.2-1.1-0.4c-0.4-0.2-0.8-0.2-1.1-0.4c-0.4-0.3-0.9-0.5-1.1-0.7c-0.1-0.1-0.1-0.3-0.2-0.3
				c0,0,0-0.1,0-0.1c0,0,0,0,0,0c0,0,0.1-0.1,0.1-0.1c-0.3-0.3-0.7-0.4-1.1-0.4c-0.4,0-0.9,0-1.2,0.3c-0.3,0.3-0.3,0.7-0.3,1.1
				c0,0.4,0,0.7,0.3,1c0,0,0,0,0,0c0,0,0.3,0.5,0.8,0.9c0.3,0.2,0.7,0.4,1.1,0.7c0.3,0.2,0.6,0.3,1,0.5c0.3,0.2,0.6,0.4,0.9,0.6
				c0.3,0.1,0.7,0.3,1,0.4c0,0,0.1,0,0.1,0c-0.2,0.3-0.5,0.6-1.1,0.9c-0.4,0.2-0.6,0.5-0.8,0.5c-0.2,0.1-0.3,0-0.5,0
				c-0.2,0-0.4-0.1-0.9-0.2c-0.1,0-0.2-0.1-0.3-0.1c0,0-0.1,0.1-0.1,0.1c-0.2-0.1-0.6-0.1-0.9-0.3c-0.3-0.2-0.4-0.5-0.6-0.7
				c-0.2-0.2-0.5-0.2-0.7-0.3c-0.1-0.1-0.1-0.1-0.1-0.1c0,0,0.1-0.1,0.1-0.1c0,0,0.1-0.1,0.1-0.1c-0.3-0.3-0.8-0.3-1.1-0.3
				c-0.4,0-0.7,0.2-1,0.5c-0.3,0.3-0.4,0.6-0.4,1c0,0.4,0.2,0.7,0.5,1c0,0,0.1,0.5,0.6,0.8c0.2,0.2,0.5,0.4,0.8,0.6
				c0.2,0.1,0.3,0.1,0.5,0.2c-0.2,0.4-0.5,0.5-0.7,0.7c-0.4,0.3-0.7,0.4-1.3,0.4c-0.3,0-0.6,0.2-0.9,0.2c-0.3-0.1-0.5-0.2-0.8-0.3
				c-0.2-0.1-0.5-0.3-0.7-0.4c0.1-0.4,0.5-0.9,0.5-1.3c0-0.3,0-0.6-0.1-0.9c-0.1-0.3-0.4-0.5-0.5-0.8c-0.1-0.3-0.1-0.6-0.2-0.9
				c-0.2-0.3-0.6-0.5-0.9-0.7c-0.3-0.3-0.5-0.6-0.8-0.8c-0.3-0.2-0.6-0.5-1-0.6c-0.4-0.1-0.7-0.3-1.1-0.3c0-0.1,0.1,0.1,0.1,0
				c0-0.3-0.2-0.7-0.2-1c-0.1-0.3-0.1-0.7-0.2-1c-0.1-0.3-0.4-0.5-0.6-0.8c0,0,0,0,0,0c-0.2-0.3-0.2-0.8-0.5-1
				c-0.3-0.3-0.6-0.5-0.9-0.7c-0.3-0.2-0.7-0.2-1.1-0.3c-0.3-0.1-0.6-0.4-1-0.5c-0.4-0.1-0.7,0-1.1,0c-0.1,0-0.3,0-0.3,0
				c0-0.4,0.1-0.8,0-1.2c-0.1-0.4-0.4-0.7-0.6-1c0,0-0.1,0.1-0.1,0.1c-0.2-0.3-0.2-0.8-0.5-1c-0.3-0.3-0.7-0.4-1-0.6
				c-0.3-0.2-0.6-0.4-1-0.5c-0.3-0.1-0.6-0.4-0.9-0.5c0-0.3,0-0.6-0.1-0.9c-0.1-0.3-0.1-0.6-0.3-1c-0.1-0.3-0.5-0.5-0.6-0.8
				c0,0,0.1,0,0.1,0c-0.2-0.3-0.4-0.6-0.6-0.9c-0.3-0.3-0.6-0.4-0.9-0.6c-0.3-0.2-0.5-0.6-0.8-0.7c-0.3-0.1-0.8,0-1.1-0.1
				c-0.4-0.1-0.7-0.2-1.1-0.2c-0.3,0-0.7-0.1-1,0c-0.3,0.1-0.6,0.3-0.9,0.5c-0.3,0.1-0.7,0.1-1,0.3c-0.5,0.3-0.5,0.3-0.9,0.6
				c-0.5,0.3-0.3,0.6-0.8,0.8c0-0.1-0.1-0.4-0.1-0.5c-0.1-0.3-0.2-0.7-0.3-1c-0.1-0.4-0.3-0.7-0.3-1c0-0.4,0.3-0.5,0.1-0.9
				c-0.2-0.5-0.6-0.2-1-0.5c-0.4-0.3-0.3-0.5-0.7-0.8c-0.4-0.3-0.3-0.5-0.7-0.8c-0.4-0.3-0.6-0.1-1-0.5c-0.4-0.3-0.4-0.3-0.8-0.7
				c-0.4-0.3-0.3-0.5-0.7-0.8c-0.4-0.3-0.4-0.4-0.8-0.7c-0.4-0.3-0.7-0.1-0.7-0.6c0-0.5,0.2-0.4,0.6-0.8c0.3-0.4,0.5-0.2,0.8-0.6
				c0.3-0.4,0.4-0.4,0.7-0.7c0.3-0.4,0.2-0.5,0.5-0.9c0.3-0.4,0.5-0.3,0.8-0.6c0.3-0.4,0.4-0.3,0.7-0.7c0.3-0.4,0.3-0.4,0.7-0.7
				c0.3-0.4,0.3-0.4,0.7-0.7c0.3-0.4,0.4-0.3,0.7-0.7c0.3-0.4,0.3-0.5,0.6-0.8c0.3-0.4,0.5-0.2,0.8-0.6c0.3-0.4,0.3-0.5,0.6-0.8
				c0.3-0.4,0.3-0.4,0.6-0.8c0.4-0.4,0.5-0.2,0.9-0.6c0.4-0.4,0.1-0.6,0.5-1c0.4-0.4,0.6-0.1,1-0.5c0.4-0.4,0-0.8,0.5-1
				c0.3,0.2,0.7,0.6,1,0.9c0.3,0.2,0.5,0.6,0.9,0.8c0.3,0.2,0.7,0.1,0.9,0.3c0.3,0.2,0.3,0.6,0.6,0.8c0.3,0.2,0.6,0.3,0.8,0.4
				c0.3,0.1,0.6,0.2,0.9,0.3c0.3,0.1,0.7,0.2,1,0.2c0.3,0.1,0.7,0.3,1,0.3c0.3,0,0.6-0.1,0.9-0.2c0.3,0,0.6-0.1,0.9-0.1
				c0.3,0,0.6-0.2,0.9-0.3c0.1,0,0.1,0.1,0.2,0.1c-0.2,0.2-0.4,0.6-0.6,0.8c-0.2,0.2-0.5,0.4-0.7,0.6c-0.2,0.2-0.6,0.4-0.8,0.6
				c-0.2,0.2-0.3,0.6-0.5,0.8c-0.2,0.2-0.4,0.5-0.6,0.8c-0.2,0.3-0.5,0.5-0.7,0.8c-0.2,0.3-0.6,0.5-0.8,0.7c-0.2,0.3-0.3,0.7-0.5,1
				c-0.2,0.3-0.4,0.5-0.6,0.8c-0.3,0.4-0.5,0.6-0.6,0.7c-0.2,0.3-0.3,0.7-0.4,1c-0.2,0.3-0.5,0.5-0.6,0.9c-0.1,0.3-0.2,0.7-0.3,1
				c-0.1,0.3,0,0.7,0,1.1c0,0.3-0.1,0.7-0.1,1c0,0.3,0.4,0.6,0.5,0.9c0.1,0.3,0,0.7,0.2,1c0.2,0.3,0.5,0.4,0.7,0.7
				c0.2,0.3,0.3,0.8,0.6,1c0.3,0.2,0.6,0.5,0.9,0.7c0.4,0.2,0.8,0.3,1.2,0.4c0.4,0.1,0.8,0,1.2,0c0.4,0,0.8,0.1,1.1,0
				c0.4-0.1,0.7-0.3,1.1-0.4c0.3-0.1,0.7-0.2,1.1-0.3c0.3-0.1,0.7-0.2,1-0.3c0.3-0.1,0.7-0.2,1-0.3c0.3-0.1,0.6-0.5,0.9-0.6
				c0.3-0.1,0.7-0.2,1-0.3c0.3-0.1,0.8,0.1,1.1,0c0.3-0.1,0.7-0.3,1-0.4c0.3-0.1,0.7-0.2,1-0.3c0.3-0.1,0.7-0.2,1-0.3
				c0.4-0.1,0.7-0.2,1-0.3c0.4-0.1,0.7-0.1,1.1-0.1c0.4-0.1,0.7-0.3,1.1-0.4c0.4-0.1,0.8-0.1,1.1-0.2c0.4-0.1,0.8-0.2,1.1-0.2
				c0.2,0,0.3,0,0.4,0c0.4,0.3,0.4,0.3,0.8,0.6c0.4,0.3,0.4,0.3,0.8,0.6c0.4,0.3,0.2,0.6,0.5,0.9c0.4,0.3,0.6,0.1,1,0.4
				c0.4,0.3,0.3,0.4,0.7,0.8c0.4,0.3,0.4,0.4,0.7,0.7c0.4,0.3,0.4,0.3,0.8,0.6c0.4,0.3,0.3,0.5,0.6,0.8c0.4,0.3,0.5,0.2,0.9,0.5
				c0.4,0.3,0.4,0.3,0.8,0.7c0.4,0.3,0.3,0.4,0.7,0.8c0.4,0.3,0.4,0.3,0.8,0.6c0.4,0.3,0.4,0.3,0.8,0.6c0.4,0.3,0.3,0.4,0.7,0.7
				c0.4,0.3,0.5,0.2,0.9,0.6c0.4,0.3,0.4,0.3,0.8,0.6c0,0,0,0,0,0c0,0,0,0.1,0,0.1C68.3,96.3,68.2,96.3,68.1,96.5z M69.5,87.6
				c-0.2,0.4-0.1,0.5-0.1,0.9c0,0.3,0.1,0.6,0,0.9c-0.1,0.3-0.1,0.6-0.2,0.9c-0.1,0.4-0.4,0.8-0.6,1.1c-0.5-0.2-0.3-0.4-0.7-0.7
				c-0.4-0.3-0.4-0.3-0.8-0.6c-0.4-0.3-0.3-0.4-0.7-0.7C66,89,66.1,89,65.7,88.6c-0.4-0.3-0.6-0.1-1-0.4c-0.4-0.3-0.4-0.3-0.8-0.6
				c-0.4-0.3-0.4-0.3-0.8-0.7c-0.4-0.3-0.4-0.3-0.8-0.6c-0.4-0.3-0.2-0.6-0.5-0.9c-0.4-0.3-0.4-0.3-0.8-0.6
				c-0.4-0.3-0.4-0.3-0.8-0.7c-0.4-0.3-0.4-0.3-0.8-0.6c-0.4-0.3-0.4-0.3-0.8-0.7c-0.4-0.3-0.5-0.1-0.9-0.5
				c-0.2-0.2-0.3-0.5-0.6-0.5c-0.3-0.1-0.5-0.1-0.8-0.1c0,0-0.4,0-1,0.1c-0.3,0-0.6,0-1,0.1c-0.3,0.1-0.6,0.4-0.9,0.5
				c-0.3,0.1-0.7-0.1-1,0c-0.3,0.1-0.7,0-1,0.1c-0.3,0.1-0.6,0.4-0.9,0.5c-0.3,0.1-0.7,0-1,0c-0.3,0.1-0.7,0-1,0.1
				c-0.3,0.1-0.6,0.5-0.9,0.6c-0.3,0.1-0.7,0-1,0.1c-0.3,0.1-0.7,0.1-1,0.2c-0.3,0.1-0.6,0.3-0.9,0.4c-0.3,0.1-0.7,0.1-1,0.2
				c-0.3,0.1-0.6,0.2-1,0.4c-0.3,0.1-0.6,0.4-0.9,0.6c-0.3,0.1-0.6,0.3-0.9,0.5c-0.3,0.1-0.7,0.1-0.9,0.2c-0.4,0.1-0.7,0-0.9,0
				c-0.3,0-0.5,0-0.6-0.1c-0.2-0.1-0.2-0.3-0.4-0.5c-0.1-0.3-0.3-0.6-0.3-1c0-0.3,0.1-0.5,0.2-0.8c0.1-0.3,0-0.6,0.1-0.8
				c0.2-0.2,0.4-0.5,0.6-0.8c0.2-0.2,0.4-0.5,0.6-0.8c0.2-0.2,0.4-0.4,0.6-0.7c0.2-0.2,0.3-0.5,0.5-0.8c0.2-0.2,0.3-0.5,0.5-0.8
				c0.2-0.2,0.5-0.4,0.7-0.6c0.2-0.2,0.5-0.4,0.7-0.7c0.2-0.3,0.4-0.6,0.6-0.9c0.3-0.2,0.6-0.4,0.9-0.6c0.3-0.2,0.5-0.6,0.7-0.8
				c0.3-0.2,0.6-0.4,0.9-0.6c0.3-0.2,0.6-0.4,0.9-0.5c0.3-0.2,0.6-0.3,0.8-0.4c0.3-0.1,0.5-0.4,0.8-0.5c0.3-0.1,0.5-0.4,0.8-0.5
				c0.3-0.1,0.7,0,1,0c0.3-0.1,0.6-0.3,0.9-0.3c0.3,0,0.6,0,0.9,0c0.3,0,0.6,0.2,1,0.2c0.3,0,0.6,0.1,1,0.2c0.3,0,0.7,0,1,0
				c0.3,0,0.6,0,1,0c0.3,0,0.6,0.2,0.9,0.2c0.3,0,0.6,0,0.9,0c0.3,0,0.7,0.2,1,0.2c0.3-0.1,0.7-0.2,1-0.3c0,0,0,0,0,0
				c0.3-0.1,0.6-0.2,0.9-0.4c0.3-0.1,0.5-0.3,0.8-0.5c0.3-0.2,0.4-0.6,0.6-0.7c0.3-0.2,0.5-0.3,0.8-0.5c0.3-0.2,0.6-0.5,0.9-0.8
				c0.3-0.2,0.7-0.2,1-0.5c0.5,0.2,0.3,0.3,0.7,0.7c0.4,0.4,0.6,0.2,0.9,0.6c0.4,0.4,0.2,0.5,0.6,0.9c0.4,0.4,0.5,0.2,0.9,0.6
				c0.4,0.4,0.3,0.5,0.6,0.8c0.4,0.4,0.3,0.5,0.6,0.8c0.4,0.4,0.3,0.4,0.7,0.8c0.4,0.4,0.4,0.3,0.8,0.7c0.4,0.4,0.5,0.3,0.8,0.7
				c0.4,0.4,0.3,0.4,0.7,0.8c0.4,0.4,0.5,0.3,0.9,0.6c0.4,0.4,0.4,0.4,0.7,0.7c0.4,0.4,0.2,0.6,0.5,0.9c0.4,0.4,0.4,0.4,0.7,0.7
				c0.4,0.4,0.5,0.2,0.9,0.6c0.4,0.4,0.6,0.3,0.6,0.8c0,0.5-0.3,0.4-0.7,0.7c-0.4,0.4-0.3,0.4-0.7,0.8c-0.4,0.4-0.6,0.1-1,0.5
				c-0.4,0.4-0.3,0.4-0.7,0.8c-0.4,0.4-0.3,0.4-0.7,0.8c-0.4,0.4-0.6,0.2-1,0.5c-0.4,0.4-0.2,0.6-0.7,0.9
				C69.9,87.3,69.7,87.2,69.5,87.6z"/>
		</g>
	</g>
</g>
</svg>
