<?xml version="1.0" encoding="utf-8"?>
<!-- Generator: Adobe Illustrator 19.2.1, SVG Export Plug-In . SVG Version: 6.00 Build 0)  -->
<!DOCTYPE svg PUBLIC "-//W3C//DTD SVG 1.1//EN" "http://www.w3.org/Graphics/SVG/1.1/DTD/svg11.dtd">
<svg version="1.1" id="レイヤー_1" xmlns="http://www.w3.org/2000/svg" xmlns:xlink="http://www.w3.org/1999/xlink" x="0px"
	 y="0px" viewBox="0 0 947 52.3" style="enable-background:new 0 0 947 52.3;" xml:space="preserve">
<style type="text/css">
	.st0{fill:#125E32;}
</style>
<metadata><?xpacket begin="﻿" id="W5M0MpCehiHzreSzNTczkc9d"?>
<x:xmpmeta xmlns:x="adobe:ns:meta/" x:xmptk="Adobe XMP Core 5.6-c111 79.158366, 2015/09/25-01:12:00        ">
   <rdf:RDF xmlns:rdf="http://www.w3.org/1999/02/22-rdf-syntax-ns#">
      <rdf:Description rdf:about=""
            xmlns:dc="http://purl.org/dc/elements/1.1/"
            xmlns:xmp="http://ns.adobe.com/xap/1.0/"
            xmlns:xmpGImg="http://ns.adobe.com/xap/1.0/g/img/"
            xmlns:xmpMM="http://ns.adobe.com/xap/1.0/mm/"
            xmlns:stRef="http://ns.adobe.com/xap/1.0/sType/ResourceRef#"
            xmlns:stEvt="http://ns.adobe.com/xap/1.0/sType/ResourceEvent#"
            xmlns:illustrator="http://ns.adobe.com/illustrator/1.0/"
            xmlns:xmpTPg="http://ns.adobe.com/xap/1.0/t/pg/"
            xmlns:stDim="http://ns.adobe.com/xap/1.0/sType/Dimensions#"
            xmlns:xmpG="http://ns.adobe.com/xap/1.0/g/"
            xmlns:pdf="http://ns.adobe.com/pdf/1.3/">
         <dc:format>image/svg+xml</dc:format>
         <dc:title>
            <rdf:Alt>
               <rdf:li xml:lang="x-default">Web</rdf:li>
            </rdf:Alt>
         </dc:title>
         <xmp:CreatorTool>Adobe Illustrator CC 2015 (Macintosh)</xmp:CreatorTool>
         <xmp:CreateDate>2016-04-19T08:34:01+09:00</xmp:CreateDate>
         <xmp:ModifyDate>2016-04-19T08:34:01+09:00</xmp:ModifyDate>
         <xmp:MetadataDate>2016-04-19T08:34:01+09:00</xmp:MetadataDate>
         <xmp:Thumbnails>
            <rdf:Alt>
               <rdf:li rdf:parseType="Resource">
                  <xmpGImg:width>256</xmpGImg:width>
                  <xmpGImg:height>16</xmpGImg:height>
                  <xmpGImg:format>JPEG</xmpGImg:format>
                  <xmpGImg:image>/9j/4AAQSkZJRgABAgEASABIAAD/7QAsUGhvdG9zaG9wIDMuMAA4QklNA+0AAAAAABAASAAAAAEA&#xA;AQBIAAAAAQAB/+4ADkFkb2JlAGTAAAAAAf/bAIQABgQEBAUEBgUFBgkGBQYJCwgGBggLDAoKCwoK&#xA;DBAMDAwMDAwQDA4PEA8ODBMTFBQTExwbGxscHx8fHx8fHx8fHwEHBwcNDA0YEBAYGhURFRofHx8f&#xA;Hx8fHx8fHx8fHx8fHx8fHx8fHx8fHx8fHx8fHx8fHx8fHx8fHx8fHx8fHx8f/8AAEQgAEAEAAwER&#xA;AAIRAQMRAf/EAaIAAAAHAQEBAQEAAAAAAAAAAAQFAwIGAQAHCAkKCwEAAgIDAQEBAQEAAAAAAAAA&#xA;AQACAwQFBgcICQoLEAACAQMDAgQCBgcDBAIGAnMBAgMRBAAFIRIxQVEGE2EicYEUMpGhBxWxQiPB&#xA;UtHhMxZi8CRygvElQzRTkqKyY3PCNUQnk6OzNhdUZHTD0uIIJoMJChgZhJRFRqS0VtNVKBry4/PE&#xA;1OT0ZXWFlaW1xdXl9WZ2hpamtsbW5vY3R1dnd4eXp7fH1+f3OEhYaHiImKi4yNjo+Ck5SVlpeYmZ&#xA;qbnJ2en5KjpKWmp6ipqqusra6voRAAICAQIDBQUEBQYECAMDbQEAAhEDBCESMUEFURNhIgZxgZEy&#xA;obHwFMHR4SNCFVJicvEzJDRDghaSUyWiY7LCB3PSNeJEgxdUkwgJChgZJjZFGidkdFU38qOzwygp&#xA;0+PzhJSktMTU5PRldYWVpbXF1eX1RlZmdoaWprbG1ub2R1dnd4eXp7fH1+f3OEhYaHiImKi4yNjo&#xA;+DlJWWl5iZmpucnZ6fkqOkpaanqKmqq6ytrq+v/aAAwDAQACEQMRAD8A7ZPonmzV9V1CfR/zB9KO&#xA;3neL6lBZ2k6WrdRDJUksyBt+W+Ro97hHHOUiY5PsGzK9Gh1LTtEjTXdSTULu3V2utTMSWqOoZmDN&#xA;GpKJxSgO9Nq4Q5MAYx9Rs9/J45YebNZ1bT/N+gaTp+p+ZYNS1C6fSdVgkaKCGGYDgoupj8IidfhH&#xA;T6Mhbq45pSE4xEp2TR/azTUHb8vvKTvb6paw3V/emdDrPMW6yzr6k8S/VQzLyKO46jkT7ZLkHKl+&#xA;4hsRZP8AF+xjP5QeftSksJp9d1rSm09lutSu0e5me/tw0wQK6sPSjiDOOKhu42rkYlo0WoNXKUa3&#xA;PPcMy866/rs2r6P5W8s3EdpfawktzcasyCYW1nCBV40Pwu8hai12++okT0crPkkZCEDRl17g8+0X&#xA;WvPOk+T5vPqa/catpltqEqT6behHWewW4FuJIn2MclanY0/UYgmrcHHkyRx+LxGQvke66Tz80fMP&#xA;mrTvM+nX2lW0X1e20jV7myumloW428TySNEykfueKlVP2q9sMiW7V5ZxmDEfwy+55l5n8yaprjaX&#xA;car5muS5t5xOqaattNBIEt7iOOJBNH6zSM6cHqviOuQJdflymdGUjy/m13Hv3fUVmkqWkCSsXlWN&#xA;RI7ChZgoqSKtSp9zlz0UeTxP80Z7xdY85CCWROMGh/YeRaK1w3PeOrgEdeO+VydRqyeKdf0fvY/p&#xA;Ekaea/LX6PuIGZtVtlnW0vNWuGMR5cuaXsUUXCtKmtenauDq0w+uNH+IcjL9Kd/nbr/mSx84Wtrb&#xA;6idPgMMU8Qh1O5sllt1ZhIsqD04lkaQkBlYtxA+WGR3bdfkmMgANf5xDC/KvmXXn8waTb6TftFa3&#xA;EyQWulnWLwwm4ebnzlRAzhGNeQKUNffIguLhyy4gInbu4i9l/NTzD55sONjoQsrG1uI1LanPd28V&#xA;y1X4yx20Vy8KB0UhuTNSh2+LLJEu11mXINo0B32L+FsF8v6p5p0DVIx5UWJ7O5UfXtM1bWdOuhcX&#xA;AFBJDJFO0iTSnalOJPXalIjbk4eOc4H0cuoMom/t5px+bmueZLXXR9W1G60w22jW961razsIzPJq&#xA;kFq4egHMCOdhWg7YyLbrckxLYkekH/ZAMB1C911rPUeGrTHUHmnNsy3cp+Eykx8ZF1BIgOHT9x9+&#xA;RcKUpUd9/f8A8e/Qz780b9R57LzXF0+mQ6LbTiG11I6dFzmvZIhKZN0NeSjp+rJS5ubq5fvOtcI/&#xA;irqwbzbH5m01PMYEeqae2l21jMjNrElwYTcziPk/FqSiQbAKBx6nAXDzCceL6hQH8XeX1Blr0KTa&#xA;L5w8va1qmqaZp10JrzR5BDfR0I4saj4SRRgGBU07j5YAWrHnjMkA7xSPz/bSXuq6JaCz1WvqSSW+&#xA;raXLwSGUAH0rhQ393IqkMxG3QdTgLTqRcoipe8fpeH2c3mmbQ7FgdTlutRidLG4V7plmmRCWMcg1&#xA;VUbjxJJENNvs9sr3dREzMR9Vn3/8X+hnXna51nTfKHk68fWL+0u59Ot7e6ih1A2yvMkCOznjb3Zk&#xA;kJLVavbJHk5mcyjCBsg131+gvOtO17VrFr+b/EV4qz3DSyNDqksVGIA/fMbJ+T+LfD8sjbgxySF+&#xA;o/6b/jr2bzzq3n7QdBsNN0RrZWa1VLjWtTvbf6z6worpGsxgjklp8XNvhPgNsmSQ7XUTywiBGuXM&#xA;kX+hgujal5m0C/t5vLDoBP8A8de11jWdNuobqWhJmUx3Bkjmc7fDt0r03iNnDhKcD6Pjcom/t5pz&#xA;+amv+aoNWidL260eaDRLa+msLS4JiFzJqcFtIrsoUSBUnZa0FaDDIlt1mSYlzMfSDV9eIBg2pXut&#xA;vZX3p6tMdRaWcwMt3N0MzGPjINRWGnClP3H0HrkXDlKVHff3/wDHv0PQfzUvwPOkby3F02l2+h/X&#xA;DFa6gdPQu18kKyGUVU7S06b7ZOXNzdZL951rhvnXVgvmqLzJp8utRrHqlgtjp0F4jNrL3Ji9WYoJ&#xA;CVbjIsn2QoFR1yJcTMJx4vqFC/qt6X5f8kfml5OspNL8s3Wg3mntK8wn1GK6iuWLmtZWtyQ7dqns&#xA;MkAQ5+PT5sQ4YGJHnd/Yn935Z84+YPJmsaL5lv7OK+1EFLebTUkEUSUUhWEp5sCwIbf7OGiQ3SxZ&#xA;J4zGZFnuS7T0/ObTdMg06DTfL7raIsMMsc1xFGUQBR+6CCmw7EY7sI/mIigIbe9lUmkXmseV207z&#xA;Elsb+6t3iuzaqzwJJIpXlD6vxfDXauGnJMDKFTqy85TyV+ZMflZ/KEOmaJFDJb/o+XzArMHe1ICk&#xA;mIJz9QqO5py+/I0apwPAy8Hh1HuvyZD5s/LjV7yz0d/LuqjT9U0qyfSzczJyWa1mjWJ68d1dePNa&#xA;d8Ji35tLIgcBogV8ELqP5a61eWGleTo7iC28i2EcBvinP65ePE3No2H2EVpF5sQe+Dh6dGMtLIgY&#xA;/wDJj5lD/m1+XXmrzI6XWmai7BQLK00+MR26QwXXBbuSWWvOVCIxWMdvHcFlEljrNNPJuD5V7+bE&#xA;Ne/LD8yl1ubVre1tdV/Rt/DNYRSlIzchII4Yn9PnwWOBYkBVmqxB7YDEuNk0mXi4gAaO3n/Y98tv&#xA;rH1eL6zx+scF9b068OdPi41qaV6Vyx3Iut2Ea9pPmvzJ5ntrGaxi0zyzpl5Ddz6h6we4vzAOccSI&#xA;m6R8j8fP6MiQS4mSE8kwKqAN33pHaQ/mbpGu65ZaZo7vFq+ti8i1eSaBoI7J2USAxs/OvBTtSv04&#xA;N2kDNGUgB9UrvyQf5peSvPWv+bfr2laaj2ttbpbW919YMTupPqP9i5tiBzalCO1cZA2x1eDJOdxG&#xA;1d/7QxTy7+Vv5n6TeabdPpMc5024S5jja7qOSPy+EG69MGhIr6f35ERLjYtJmiQa5Hv/AGvTPzM8&#xA;v6tqHmHyzqVp5dj8zWWmrfre2E0ltGlbhIliJFyeJoUJ2B6ZOQc/V45SlEiPGBe23l3sb1TyvrWp&#xA;SabHY/lpaaDJBqFpcy6lBPpvNIoZg8g/c8HNVHY4K8mieKUqrEI7jf0sh/Mb8tNa8z60t9YX9va2&#xA;8llHYXUcyO7lI7xLyqFSADzhUb++GUbb9VpZZJWDW1fbbze2/LT8wY/KB0dvL8/1wwSRcgdBMfJy&#xA;SP3zKbqm/X1OXgchwmnAGly8HDw7/wCZ/azvWPK3mMa7Fcf4eXW9MufLkGjX1s13FblZFmaRxViT&#xA;sCKMvfodskQ5k8M+K+HiHBwndieo+QvzQvdI8w2U2jiWbWYrK1tnNzaxpbW9hMJIo+KsxkPEceRI&#xA;8cFFxpabMYyFfVXUbU9+yx3SjDZ2cEs80EEcU1ywe5kRFVpGChQzkCrEKAKntigRA5ML/MfTPOGp&#xA;32lRaVZC60iwf9JXkK3K20tzcWzKbe15sKIpY8y3t2IFYytxNVDJIjhFxG/OrrkHl1n+Tnmq20zS&#xA;VuvLEV0bSYnUYINSYS3SMkgHIPJHDEqlwCI2qwrkOEuujoZgC43XP1c/0M9uPJvmnWm8k2l9bjRL&#xA;XSbaafUptLlSFoLgxCKKCChk47NuRyBFRXpWVHZzTgnPgB9IiN6+5GyfktoMtne2Umsay9pqMpuL&#xA;+A3alJpW41eQen8THgu58MPCzOgjRFyo891T80dA1bU7ry9dWWhp5ht9OupZb3TZZLeNHR4Si1+s&#xA;HgfiNehxkF1eOUjEiPFR5bfpYd5p8p69rGk/UdN/LC00W6aaFxqEM+mB0WORXYD0+DfEopsciR5O&#xA;LmwylGhiET3+llP5jflprXmfWlvrC/t7W3kso7C6jmR3cpHeJeVQqQAecKjf3yUo25Oq0sskrBra&#xA;vtt5vbflp+YMflA6O3l+f64YJIuQOgmPk5JH75lN1Tfr6nLwOQ4TTgDS5eDh4d/8z+1n+s+WPMia&#xA;5ZXaaCutafJ5c/QuoWjXUVvR3lV3HJq1oEpVfoOSIc2eKfEDw8Q4OE7sRvfIf5m3Njrts+jB/wBJ&#xA;2cGnacn1q1RLS0tpvVijNGZpSq/DyJBwUXFlp8xEhw8xQ3GwD//Z</xmpGImg:image>
               </rdf:li>
            </rdf:Alt>
         </xmp:Thumbnails>
         <xmpMM:RenditionClass>proof:pdf</xmpMM:RenditionClass>
         <xmpMM:OriginalDocumentID>uuid:65E6390686CF11DBA6E2D887CEACB407</xmpMM:OriginalDocumentID>
         <xmpMM:DocumentID>xmp.did:5ba025f5-8458-4a4e-84fc-6940c0289ac4</xmpMM:DocumentID>
         <xmpMM:InstanceID>xmp.iid:5ba025f5-8458-4a4e-84fc-6940c0289ac4</xmpMM:InstanceID>
         <xmpMM:DerivedFrom rdf:parseType="Resource">
            <stRef:instanceID>uuid:e51d4a6c-161a-45bd-8568-09ebdb6c1752</stRef:instanceID>
            <stRef:documentID>xmp.did:868bf8c0-aea4-2045-8529-4a2481a9a87a</stRef:documentID>
            <stRef:originalDocumentID>uuid:65E6390686CF11DBA6E2D887CEACB407</stRef:originalDocumentID>
            <stRef:renditionClass>proof:pdf</stRef:renditionClass>
         </xmpMM:DerivedFrom>
         <xmpMM:History>
            <rdf:Seq>
               <rdf:li rdf:parseType="Resource">
                  <stEvt:action>saved</stEvt:action>
                  <stEvt:instanceID>xmp.iid:5ba025f5-8458-4a4e-84fc-6940c0289ac4</stEvt:instanceID>
                  <stEvt:when>2016-04-19T08:34:01+09:00</stEvt:when>
                  <stEvt:softwareAgent>Adobe Illustrator CC 2015 (Macintosh)</stEvt:softwareAgent>
                  <stEvt:changed>/</stEvt:changed>
               </rdf:li>
            </rdf:Seq>
         </xmpMM:History>
         <illustrator:StartupProfile>Web</illustrator:StartupProfile>
         <xmpTPg:NPages>1</xmpTPg:NPages>
         <xmpTPg:HasVisibleTransparency>False</xmpTPg:HasVisibleTransparency>
         <xmpTPg:HasVisibleOverprint>False</xmpTPg:HasVisibleOverprint>
         <xmpTPg:MaxPageSize rdf:parseType="Resource">
            <stDim:w>947.009277</stDim:w>
            <stDim:h>52.261935</stDim:h>
            <stDim:unit>Pixels</stDim:unit>
         </xmpTPg:MaxPageSize>
         <xmpTPg:PlateNames>
            <rdf:Seq>
               <rdf:li>Cyan</rdf:li>
               <rdf:li>Magenta</rdf:li>
               <rdf:li>Yellow</rdf:li>
               <rdf:li>Black</rdf:li>
            </rdf:Seq>
         </xmpTPg:PlateNames>
         <xmpTPg:SwatchGroups>
            <rdf:Seq>
               <rdf:li rdf:parseType="Resource">
                  <xmpG:groupName>初期設定のスウォッチグループ</xmpG:groupName>
                  <xmpG:groupType>0</xmpG:groupType>
                  <xmpG:Colorants>
                     <rdf:Seq>
                        <rdf:li rdf:parseType="Resource">
                           <xmpG:swatchName>ホワイト</xmpG:swatchName>
                           <xmpG:mode>RGB</xmpG:mode>
                           <xmpG:type>PROCESS</xmpG:type>
                           <xmpG:red>255</xmpG:red>
                           <xmpG:green>255</xmpG:green>
                           <xmpG:blue>255</xmpG:blue>
                        </rdf:li>
                        <rdf:li rdf:parseType="Resource">
                           <xmpG:swatchName>ブラック</xmpG:swatchName>
                           <xmpG:mode>RGB</xmpG:mode>
                           <xmpG:type>PROCESS</xmpG:type>
                           <xmpG:red>0</xmpG:red>
                           <xmpG:green>0</xmpG:green>
                           <xmpG:blue>0</xmpG:blue>
                        </rdf:li>
                        <rdf:li rdf:parseType="Resource">
                           <xmpG:swatchName>RGB レッド</xmpG:swatchName>
                           <xmpG:mode>RGB</xmpG:mode>
                           <xmpG:type>PROCESS</xmpG:type>
                           <xmpG:red>255</xmpG:red>
                           <xmpG:green>0</xmpG:green>
                           <xmpG:blue>0</xmpG:blue>
                        </rdf:li>
                        <rdf:li rdf:parseType="Resource">
                           <xmpG:swatchName>RGB イエロー</xmpG:swatchName>
                           <xmpG:mode>RGB</xmpG:mode>
                           <xmpG:type>PROCESS</xmpG:type>
                           <xmpG:red>255</xmpG:red>
                           <xmpG:green>255</xmpG:green>
                           <xmpG:blue>0</xmpG:blue>
                        </rdf:li>
                        <rdf:li rdf:parseType="Resource">
                           <xmpG:swatchName>RGB グリーン</xmpG:swatchName>
                           <xmpG:mode>RGB</xmpG:mode>
                           <xmpG:type>PROCESS</xmpG:type>
                           <xmpG:red>0</xmpG:red>
                           <xmpG:green>255</xmpG:green>
                           <xmpG:blue>0</xmpG:blue>
                        </rdf:li>
                        <rdf:li rdf:parseType="Resource">
                           <xmpG:swatchName>RGB シアン</xmpG:swatchName>
                           <xmpG:mode>RGB</xmpG:mode>
                           <xmpG:type>PROCESS</xmpG:type>
                           <xmpG:red>0</xmpG:red>
                           <xmpG:green>255</xmpG:green>
                           <xmpG:blue>255</xmpG:blue>
                        </rdf:li>
                        <rdf:li rdf:parseType="Resource">
                           <xmpG:swatchName>RGB ブルー</xmpG:swatchName>
                           <xmpG:mode>RGB</xmpG:mode>
                           <xmpG:type>PROCESS</xmpG:type>
                           <xmpG:red>0</xmpG:red>
                           <xmpG:green>0</xmpG:green>
                           <xmpG:blue>255</xmpG:blue>
                        </rdf:li>
                        <rdf:li rdf:parseType="Resource">
                           <xmpG:swatchName>RGB マゼンタ</xmpG:swatchName>
                           <xmpG:mode>RGB</xmpG:mode>
                           <xmpG:type>PROCESS</xmpG:type>
                           <xmpG:red>255</xmpG:red>
                           <xmpG:green>0</xmpG:green>
                           <xmpG:blue>255</xmpG:blue>
                        </rdf:li>
                        <rdf:li rdf:parseType="Resource">
                           <xmpG:swatchName>R=193 G=39 B=45</xmpG:swatchName>
                           <xmpG:mode>RGB</xmpG:mode>
                           <xmpG:type>PROCESS</xmpG:type>
                           <xmpG:red>193</xmpG:red>
                           <xmpG:green>39</xmpG:green>
                           <xmpG:blue>45</xmpG:blue>
                        </rdf:li>
                        <rdf:li rdf:parseType="Resource">
                           <xmpG:swatchName>R=237 G=28 B=36</xmpG:swatchName>
                           <xmpG:mode>RGB</xmpG:mode>
                           <xmpG:type>PROCESS</xmpG:type>
                           <xmpG:red>237</xmpG:red>
                           <xmpG:green>28</xmpG:green>
                           <xmpG:blue>36</xmpG:blue>
                        </rdf:li>
                        <rdf:li rdf:parseType="Resource">
                           <xmpG:swatchName>R=241 G=90 B=36</xmpG:swatchName>
                           <xmpG:mode>RGB</xmpG:mode>
                           <xmpG:type>PROCESS</xmpG:type>
                           <xmpG:red>241</xmpG:red>
                           <xmpG:green>90</xmpG:green>
                           <xmpG:blue>36</xmpG:blue>
                        </rdf:li>
                        <rdf:li rdf:parseType="Resource">
                           <xmpG:swatchName>R=247 G=147 B=30</xmpG:swatchName>
                           <xmpG:mode>RGB</xmpG:mode>
                           <xmpG:type>PROCESS</xmpG:type>
                           <xmpG:red>247</xmpG:red>
                           <xmpG:green>147</xmpG:green>
                           <xmpG:blue>30</xmpG:blue>
                        </rdf:li>
                        <rdf:li rdf:parseType="Resource">
                           <xmpG:swatchName>R=251 G=176 B=59</xmpG:swatchName>
                           <xmpG:mode>RGB</xmpG:mode>
                           <xmpG:type>PROCESS</xmpG:type>
                           <xmpG:red>251</xmpG:red>
                           <xmpG:green>176</xmpG:green>
                           <xmpG:blue>59</xmpG:blue>
                        </rdf:li>
                        <rdf:li rdf:parseType="Resource">
                           <xmpG:swatchName>R=252 G=238 B=33</xmpG:swatchName>
                           <xmpG:mode>RGB</xmpG:mode>
                           <xmpG:type>PROCESS</xmpG:type>
                           <xmpG:red>252</xmpG:red>
                           <xmpG:green>238</xmpG:green>
                           <xmpG:blue>33</xmpG:blue>
                        </rdf:li>
                        <rdf:li rdf:parseType="Resource">
                           <xmpG:swatchName>R=217 G=224 B=33</xmpG:swatchName>
                           <xmpG:mode>RGB</xmpG:mode>
                           <xmpG:type>PROCESS</xmpG:type>
                           <xmpG:red>217</xmpG:red>
                           <xmpG:green>224</xmpG:green>
                           <xmpG:blue>33</xmpG:blue>
                        </rdf:li>
                        <rdf:li rdf:parseType="Resource">
                           <xmpG:swatchName>R=140 G=198 B=63</xmpG:swatchName>
                           <xmpG:mode>RGB</xmpG:mode>
                           <xmpG:type>PROCESS</xmpG:type>
                           <xmpG:red>140</xmpG:red>
                           <xmpG:green>198</xmpG:green>
                           <xmpG:blue>63</xmpG:blue>
                        </rdf:li>
                        <rdf:li rdf:parseType="Resource">
                           <xmpG:swatchName>R=57 G=181 B=74</xmpG:swatchName>
                           <xmpG:mode>RGB</xmpG:mode>
                           <xmpG:type>PROCESS</xmpG:type>
                           <xmpG:red>57</xmpG:red>
                           <xmpG:green>181</xmpG:green>
                           <xmpG:blue>74</xmpG:blue>
                        </rdf:li>
                        <rdf:li rdf:parseType="Resource">
                           <xmpG:swatchName>R=0 G=146 B=69</xmpG:swatchName>
                           <xmpG:mode>RGB</xmpG:mode>
                           <xmpG:type>PROCESS</xmpG:type>
                           <xmpG:red>0</xmpG:red>
                           <xmpG:green>146</xmpG:green>
                           <xmpG:blue>69</xmpG:blue>
                        </rdf:li>
                        <rdf:li rdf:parseType="Resource">
                           <xmpG:swatchName>R=0 G=104 B=55</xmpG:swatchName>
                           <xmpG:mode>RGB</xmpG:mode>
                           <xmpG:type>PROCESS</xmpG:type>
                           <xmpG:red>0</xmpG:red>
                           <xmpG:green>104</xmpG:green>
                           <xmpG:blue>55</xmpG:blue>
                        </rdf:li>
                        <rdf:li rdf:parseType="Resource">
                           <xmpG:swatchName>R=34 G=181 B=115</xmpG:swatchName>
                           <xmpG:mode>RGB</xmpG:mode>
                           <xmpG:type>PROCESS</xmpG:type>
                           <xmpG:red>34</xmpG:red>
                           <xmpG:green>181</xmpG:green>
                           <xmpG:blue>115</xmpG:blue>
                        </rdf:li>
                        <rdf:li rdf:parseType="Resource">
                           <xmpG:swatchName>R=0 G=169 B=157</xmpG:swatchName>
                           <xmpG:mode>RGB</xmpG:mode>
                           <xmpG:type>PROCESS</xmpG:type>
                           <xmpG:red>0</xmpG:red>
                           <xmpG:green>169</xmpG:green>
                           <xmpG:blue>157</xmpG:blue>
                        </rdf:li>
                        <rdf:li rdf:parseType="Resource">
                           <xmpG:swatchName>R=41 G=171 B=226</xmpG:swatchName>
                           <xmpG:mode>RGB</xmpG:mode>
                           <xmpG:type>PROCESS</xmpG:type>
                           <xmpG:red>41</xmpG:red>
                           <xmpG:green>171</xmpG:green>
                           <xmpG:blue>226</xmpG:blue>
                        </rdf:li>
                        <rdf:li rdf:parseType="Resource">
                           <xmpG:swatchName>R=0 G=113 B=188</xmpG:swatchName>
                           <xmpG:mode>RGB</xmpG:mode>
                           <xmpG:type>PROCESS</xmpG:type>
                           <xmpG:red>0</xmpG:red>
                           <xmpG:green>113</xmpG:green>
                           <xmpG:blue>188</xmpG:blue>
                        </rdf:li>
                        <rdf:li rdf:parseType="Resource">
                           <xmpG:swatchName>R=46 G=49 B=146</xmpG:swatchName>
                           <xmpG:mode>RGB</xmpG:mode>
                           <xmpG:type>PROCESS</xmpG:type>
                           <xmpG:red>46</xmpG:red>
                           <xmpG:green>49</xmpG:green>
                           <xmpG:blue>146</xmpG:blue>
                        </rdf:li>
                        <rdf:li rdf:parseType="Resource">
                           <xmpG:swatchName>R=27 G=20 B=100</xmpG:swatchName>
                           <xmpG:mode>RGB</xmpG:mode>
                           <xmpG:type>PROCESS</xmpG:type>
                           <xmpG:red>27</xmpG:red>
                           <xmpG:green>20</xmpG:green>
                           <xmpG:blue>100</xmpG:blue>
                        </rdf:li>
                        <rdf:li rdf:parseType="Resource">
                           <xmpG:swatchName>R=102 G=45 B=145</xmpG:swatchName>
                           <xmpG:mode>RGB</xmpG:mode>
                           <xmpG:type>PROCESS</xmpG:type>
                           <xmpG:red>102</xmpG:red>
                           <xmpG:green>45</xmpG:green>
                           <xmpG:blue>145</xmpG:blue>
                        </rdf:li>
                        <rdf:li rdf:parseType="Resource">
                           <xmpG:swatchName>R=147 G=39 B=143</xmpG:swatchName>
                           <xmpG:mode>RGB</xmpG:mode>
                           <xmpG:type>PROCESS</xmpG:type>
                           <xmpG:red>147</xmpG:red>
                           <xmpG:green>39</xmpG:green>
                           <xmpG:blue>143</xmpG:blue>
                        </rdf:li>
                        <rdf:li rdf:parseType="Resource">
                           <xmpG:swatchName>R=158 G=0 B=93</xmpG:swatchName>
                           <xmpG:mode>RGB</xmpG:mode>
                           <xmpG:type>PROCESS</xmpG:type>
                           <xmpG:red>158</xmpG:red>
                           <xmpG:green>0</xmpG:green>
                           <xmpG:blue>93</xmpG:blue>
                        </rdf:li>
                        <rdf:li rdf:parseType="Resource">
                           <xmpG:swatchName>R=212 G=20 B=90</xmpG:swatchName>
                           <xmpG:mode>RGB</xmpG:mode>
                           <xmpG:type>PROCESS</xmpG:type>
                           <xmpG:red>212</xmpG:red>
                           <xmpG:green>20</xmpG:green>
                           <xmpG:blue>90</xmpG:blue>
                        </rdf:li>
                        <rdf:li rdf:parseType="Resource">
                           <xmpG:swatchName>R=237 G=30 B=121</xmpG:swatchName>
                           <xmpG:mode>RGB</xmpG:mode>
                           <xmpG:type>PROCESS</xmpG:type>
                           <xmpG:red>237</xmpG:red>
                           <xmpG:green>30</xmpG:green>
                           <xmpG:blue>121</xmpG:blue>
                        </rdf:li>
                        <rdf:li rdf:parseType="Resource">
                           <xmpG:swatchName>R=199 G=178 B=153</xmpG:swatchName>
                           <xmpG:mode>RGB</xmpG:mode>
                           <xmpG:type>PROCESS</xmpG:type>
                           <xmpG:red>199</xmpG:red>
                           <xmpG:green>178</xmpG:green>
                           <xmpG:blue>153</xmpG:blue>
                        </rdf:li>
                        <rdf:li rdf:parseType="Resource">
                           <xmpG:swatchName>R=153 G=134 B=117</xmpG:swatchName>
                           <xmpG:mode>RGB</xmpG:mode>
                           <xmpG:type>PROCESS</xmpG:type>
                           <xmpG:red>153</xmpG:red>
                           <xmpG:green>134</xmpG:green>
                           <xmpG:blue>117</xmpG:blue>
                        </rdf:li>
                        <rdf:li rdf:parseType="Resource">
                           <xmpG:swatchName>R=115 G=99 B=87</xmpG:swatchName>
                           <xmpG:mode>RGB</xmpG:mode>
                           <xmpG:type>PROCESS</xmpG:type>
                           <xmpG:red>115</xmpG:red>
                           <xmpG:green>99</xmpG:green>
                           <xmpG:blue>87</xmpG:blue>
                        </rdf:li>
                        <rdf:li rdf:parseType="Resource">
                           <xmpG:swatchName>R=83 G=71 B=65</xmpG:swatchName>
                           <xmpG:mode>RGB</xmpG:mode>
                           <xmpG:type>PROCESS</xmpG:type>
                           <xmpG:red>83</xmpG:red>
                           <xmpG:green>71</xmpG:green>
                           <xmpG:blue>65</xmpG:blue>
                        </rdf:li>
                        <rdf:li rdf:parseType="Resource">
                           <xmpG:swatchName>R=198 G=156 B=109</xmpG:swatchName>
                           <xmpG:mode>RGB</xmpG:mode>
                           <xmpG:type>PROCESS</xmpG:type>
                           <xmpG:red>198</xmpG:red>
                           <xmpG:green>156</xmpG:green>
                           <xmpG:blue>109</xmpG:blue>
                        </rdf:li>
                        <rdf:li rdf:parseType="Resource">
                           <xmpG:swatchName>R=166 G=124 B=82</xmpG:swatchName>
                           <xmpG:mode>RGB</xmpG:mode>
                           <xmpG:type>PROCESS</xmpG:type>
                           <xmpG:red>166</xmpG:red>
                           <xmpG:green>124</xmpG:green>
                           <xmpG:blue>82</xmpG:blue>
                        </rdf:li>
                        <rdf:li rdf:parseType="Resource">
                           <xmpG:swatchName>R=140 G=98 B=57</xmpG:swatchName>
                           <xmpG:mode>RGB</xmpG:mode>
                           <xmpG:type>PROCESS</xmpG:type>
                           <xmpG:red>140</xmpG:red>
                           <xmpG:green>98</xmpG:green>
                           <xmpG:blue>57</xmpG:blue>
                        </rdf:li>
                        <rdf:li rdf:parseType="Resource">
                           <xmpG:swatchName>R=117 G=76 B=36</xmpG:swatchName>
                           <xmpG:mode>RGB</xmpG:mode>
                           <xmpG:type>PROCESS</xmpG:type>
                           <xmpG:red>117</xmpG:red>
                           <xmpG:green>76</xmpG:green>
                           <xmpG:blue>36</xmpG:blue>
                        </rdf:li>
                        <rdf:li rdf:parseType="Resource">
                           <xmpG:swatchName>R=96 G=56 B=19</xmpG:swatchName>
                           <xmpG:mode>RGB</xmpG:mode>
                           <xmpG:type>PROCESS</xmpG:type>
                           <xmpG:red>96</xmpG:red>
                           <xmpG:green>56</xmpG:green>
                           <xmpG:blue>19</xmpG:blue>
                        </rdf:li>
                        <rdf:li rdf:parseType="Resource">
                           <xmpG:swatchName>R=66 G=33 B=11</xmpG:swatchName>
                           <xmpG:mode>RGB</xmpG:mode>
                           <xmpG:type>PROCESS</xmpG:type>
                           <xmpG:red>66</xmpG:red>
                           <xmpG:green>33</xmpG:green>
                           <xmpG:blue>11</xmpG:blue>
                        </rdf:li>
                     </rdf:Seq>
                  </xmpG:Colorants>
               </rdf:li>
               <rdf:li rdf:parseType="Resource">
                  <xmpG:groupName>グレー</xmpG:groupName>
                  <xmpG:groupType>1</xmpG:groupType>
                  <xmpG:Colorants>
                     <rdf:Seq>
                        <rdf:li rdf:parseType="Resource">
                           <xmpG:swatchName>R=0 G=0 B=0</xmpG:swatchName>
                           <xmpG:mode>RGB</xmpG:mode>
                           <xmpG:type>PROCESS</xmpG:type>
                           <xmpG:red>0</xmpG:red>
                           <xmpG:green>0</xmpG:green>
                           <xmpG:blue>0</xmpG:blue>
                        </rdf:li>
                        <rdf:li rdf:parseType="Resource">
                           <xmpG:swatchName>R=26 G=26 B=26</xmpG:swatchName>
                           <xmpG:mode>RGB</xmpG:mode>
                           <xmpG:type>PROCESS</xmpG:type>
                           <xmpG:red>26</xmpG:red>
                           <xmpG:green>26</xmpG:green>
                           <xmpG:blue>26</xmpG:blue>
                        </rdf:li>
                        <rdf:li rdf:parseType="Resource">
                           <xmpG:swatchName>R=51 G=51 B=51</xmpG:swatchName>
                           <xmpG:mode>RGB</xmpG:mode>
                           <xmpG:type>PROCESS</xmpG:type>
                           <xmpG:red>51</xmpG:red>
                           <xmpG:green>51</xmpG:green>
                           <xmpG:blue>51</xmpG:blue>
                        </rdf:li>
                        <rdf:li rdf:parseType="Resource">
                           <xmpG:swatchName>R=77 G=77 B=77</xmpG:swatchName>
                           <xmpG:mode>RGB</xmpG:mode>
                           <xmpG:type>PROCESS</xmpG:type>
                           <xmpG:red>77</xmpG:red>
                           <xmpG:green>77</xmpG:green>
                           <xmpG:blue>77</xmpG:blue>
                        </rdf:li>
                        <rdf:li rdf:parseType="Resource">
                           <xmpG:swatchName>R=102 G=102 B=102</xmpG:swatchName>
                           <xmpG:mode>RGB</xmpG:mode>
                           <xmpG:type>PROCESS</xmpG:type>
                           <xmpG:red>102</xmpG:red>
                           <xmpG:green>102</xmpG:green>
                           <xmpG:blue>102</xmpG:blue>
                        </rdf:li>
                        <rdf:li rdf:parseType="Resource">
                           <xmpG:swatchName>R=128 G=128 B=128</xmpG:swatchName>
                           <xmpG:mode>RGB</xmpG:mode>
                           <xmpG:type>PROCESS</xmpG:type>
                           <xmpG:red>128</xmpG:red>
                           <xmpG:green>128</xmpG:green>
                           <xmpG:blue>128</xmpG:blue>
                        </rdf:li>
                        <rdf:li rdf:parseType="Resource">
                           <xmpG:swatchName>R=153 G=153 B=153</xmpG:swatchName>
                           <xmpG:mode>RGB</xmpG:mode>
                           <xmpG:type>PROCESS</xmpG:type>
                           <xmpG:red>153</xmpG:red>
                           <xmpG:green>153</xmpG:green>
                           <xmpG:blue>153</xmpG:blue>
                        </rdf:li>
                        <rdf:li rdf:parseType="Resource">
                           <xmpG:swatchName>R=179 G=179 B=179</xmpG:swatchName>
                           <xmpG:mode>RGB</xmpG:mode>
                           <xmpG:type>PROCESS</xmpG:type>
                           <xmpG:red>179</xmpG:red>
                           <xmpG:green>179</xmpG:green>
                           <xmpG:blue>179</xmpG:blue>
                        </rdf:li>
                        <rdf:li rdf:parseType="Resource">
                           <xmpG:swatchName>R=204 G=204 B=204</xmpG:swatchName>
                           <xmpG:mode>RGB</xmpG:mode>
                           <xmpG:type>PROCESS</xmpG:type>
                           <xmpG:red>204</xmpG:red>
                           <xmpG:green>204</xmpG:green>
                           <xmpG:blue>204</xmpG:blue>
                        </rdf:li>
                        <rdf:li rdf:parseType="Resource">
                           <xmpG:swatchName>R=230 G=230 B=230</xmpG:swatchName>
                           <xmpG:mode>RGB</xmpG:mode>
                           <xmpG:type>PROCESS</xmpG:type>
                           <xmpG:red>230</xmpG:red>
                           <xmpG:green>230</xmpG:green>
                           <xmpG:blue>230</xmpG:blue>
                        </rdf:li>
                        <rdf:li rdf:parseType="Resource">
                           <xmpG:swatchName>R=242 G=242 B=242</xmpG:swatchName>
                           <xmpG:mode>RGB</xmpG:mode>
                           <xmpG:type>PROCESS</xmpG:type>
                           <xmpG:red>242</xmpG:red>
                           <xmpG:green>242</xmpG:green>
                           <xmpG:blue>242</xmpG:blue>
                        </rdf:li>
                     </rdf:Seq>
                  </xmpG:Colorants>
               </rdf:li>
               <rdf:li rdf:parseType="Resource">
                  <xmpG:groupName>Web カラーグループ</xmpG:groupName>
                  <xmpG:groupType>1</xmpG:groupType>
                  <xmpG:Colorants>
                     <rdf:Seq>
                        <rdf:li rdf:parseType="Resource">
                           <xmpG:swatchName>R=63 G=169 B=245</xmpG:swatchName>
                           <xmpG:mode>RGB</xmpG:mode>
                           <xmpG:type>PROCESS</xmpG:type>
                           <xmpG:red>63</xmpG:red>
                           <xmpG:green>169</xmpG:green>
                           <xmpG:blue>245</xmpG:blue>
                        </rdf:li>
                        <rdf:li rdf:parseType="Resource">
                           <xmpG:swatchName>R=122 G=201 B=67</xmpG:swatchName>
                           <xmpG:mode>RGB</xmpG:mode>
                           <xmpG:type>PROCESS</xmpG:type>
                           <xmpG:red>122</xmpG:red>
                           <xmpG:green>201</xmpG:green>
                           <xmpG:blue>67</xmpG:blue>
                        </rdf:li>
                        <rdf:li rdf:parseType="Resource">
                           <xmpG:swatchName>R=255 G=147 B=30</xmpG:swatchName>
                           <xmpG:mode>RGB</xmpG:mode>
                           <xmpG:type>PROCESS</xmpG:type>
                           <xmpG:red>255</xmpG:red>
                           <xmpG:green>147</xmpG:green>
                           <xmpG:blue>30</xmpG:blue>
                        </rdf:li>
                        <rdf:li rdf:parseType="Resource">
                           <xmpG:swatchName>R=255 G=29 B=37</xmpG:swatchName>
                           <xmpG:mode>RGB</xmpG:mode>
                           <xmpG:type>PROCESS</xmpG:type>
                           <xmpG:red>255</xmpG:red>
                           <xmpG:green>29</xmpG:green>
                           <xmpG:blue>37</xmpG:blue>
                        </rdf:li>
                        <rdf:li rdf:parseType="Resource">
                           <xmpG:swatchName>R=255 G=123 B=172</xmpG:swatchName>
                           <xmpG:mode>RGB</xmpG:mode>
                           <xmpG:type>PROCESS</xmpG:type>
                           <xmpG:red>255</xmpG:red>
                           <xmpG:green>123</xmpG:green>
                           <xmpG:blue>172</xmpG:blue>
                        </rdf:li>
                        <rdf:li rdf:parseType="Resource">
                           <xmpG:swatchName>R=189 G=204 B=212</xmpG:swatchName>
                           <xmpG:mode>RGB</xmpG:mode>
                           <xmpG:type>PROCESS</xmpG:type>
                           <xmpG:red>189</xmpG:red>
                           <xmpG:green>204</xmpG:green>
                           <xmpG:blue>212</xmpG:blue>
                        </rdf:li>
                     </rdf:Seq>
                  </xmpG:Colorants>
               </rdf:li>
            </rdf:Seq>
         </xmpTPg:SwatchGroups>
         <pdf:Producer>Adobe PDF library 10.01</pdf:Producer>
      </rdf:Description>
   </rdf:RDF>
</x:xmpmeta>
                                                                                                    
                                                                                                    
                                                                                                    
                                                                                                    
                                                                                                    
                                                                                                    
                                                                                                    
                                                                                                    
                                                                                                    
                                                                                                    
                                                                                                    
                                                                                                    
                                                                                                    
                                                                                                    
                                                                                                    
                                                                                                    
                                                                                                    
                                                                                                    
                                                                                                    
                                                                                                    
                           
<?xpacket end="w"?>
	</metadata>
<g>
	<g>
		<path class="st0" d="M12.8,29.2c-1.4,0.9-6.7,4.2-6.7,7.2c0,4.7,11.8,5,17.2,5c6.2,0,11.8-0.6,17.9-1.9l0.3,6.5
			c-8.4,1.5-16.7,1.5-18,1.5C17.2,47.4,0,47.3,0,36.7c0-3.6,2.2-7.1,8.6-11.6L12.8,29.2z M36.3,15.2c-3.1-0.6-9.4-1.7-18.5-1.7
			c-6.1,0-10.2,0.5-13,0.8l0.3-6.3c2.4-0.3,6.5-0.7,12.1-0.7c6.8,0,12.9,0.5,19.6,1.6L36.3,15.2z"/>
		<path class="st0" d="M62.3,4.2L68.7,3l2.1,11.6c0.3,1.9,0.7,3.5,1.2,5.4c4.8-1.8,11.1-3.5,16.1-4.9l2.1,6
			c-8.5,2-14.4,3.8-19.2,5.6c-3.6,1.4-11.5,4.4-11.5,9.6c0,5.3,6.6,6.5,15.7,6.5c3.4,0,9.2-0.2,18.3-1.8l0.4,6.5
			c-3.4,0.4-10.4,1.3-18.5,1.3c-5.4,0-22.2-0.1-22.2-11.7c0-8,7.1-12.1,12.9-14.8c-0.6-2.1-1.1-4.2-1.5-6.3L62.3,4.2z M86.4,1.3
			c2,2.9,3.2,5.7,4.9,10.5L87,13.9C85.6,9.4,84.6,7,82.4,3.2L86.4,1.3z M95.1,0c2.3,3.6,3.5,6.6,4.9,10.6l-4.3,2
			C94.3,8,93.2,5.4,91,1.8L95.1,0z"/>
		<path class="st0" d="M122.1,3l6,1l-1.8,8.8c5.3-0.1,6.8-0.1,12-0.5l-0.9,5.9c-5.9,0.3-8,0.3-12.3,0.3l-1.5,6.7
			c2.2,0,7.1,0,13.2-0.4l-0.8,6.1c-4.1,0.2-9.6,0.3-13.6,0.2c-0.3,1.8-0.4,3.7-0.4,4.8c0,7,6.4,7.9,10.5,7.9c4.2,0,11.8-1,11.8-8.6
			c0-3.9-1.9-7.1-2.7-8.5l5.7-1.9c1.7,2.9,3,6.6,3,10.6c0,9.1-6.3,14.1-17.7,14.1c-11,0-16.6-5.2-16.6-13.4c0-0.3,0-2.2,0.4-5.2
			c-6.6-0.2-8.4-0.9-9.7-1.4l1.1-5.9c3.2,1.1,5.9,1.3,9.7,1.5l1.4-6.8c-1.8-0.1-6.2-0.3-9.9-1.2l1-5.8c3.8,0.9,6.5,1.1,10,1.3
			L122.1,3z"/>
		<path class="st0" d="M186.5,44.2c9.7-3,14.8-9.2,14.8-17.7c0-7.1-3.9-14.2-13.8-15.4c-0.8,6.2-2.4,18.5-7,28.1
			c-2.7,5.7-5.3,7.3-8.1,7.3c-5.4,0-11.1-7.5-11.1-17.6c0-13.7,10.4-23.5,24.1-23.5c12.7,0,22.1,8.3,22.1,21.2
			c0,16.4-14.2,21.5-17.4,22.7L186.5,44.2z M167.1,29.1c0,6.5,3,11.1,5.1,11.1c1.6,0,3-3.5,4-6c3.5-8.8,4.7-18.3,5.3-22.8
			C169.6,13.9,167.1,23.7,167.1,29.1z"/>
		<path class="st0" d="M226.1,48.3c1.8-2,4.4-4.7,5.8-9.5c-3,1.8-10.8,4.7-15.2,6l-0.6-5.8c1.6-0.3,2.7-0.5,6.1-1.6V19.6h-5.5v-5.4
			h5.5v-13h5.2v13h4.1v5.4h-4.1v16c2.5-0.9,3.2-1.3,4.1-1.7l0.4,4.7c1-3.7,1.5-10,1.5-11.4v-18h18.1c-0.1-5.8-0.1-6.5-0.1-8h5.4
			c0,1.1,0.1,6.5,0.2,8h6.3c-1.5-2-2.1-2.8-5.1-5.5l3.8-3c2.7,2,4.8,4.6,5.5,5.6l-3.6,3h3.9v5.2H257c0.3,11.7,0.4,13,0.9,16.5
			c2.4-5.2,3.5-9.7,4.2-13l5.2,1.4c-0.8,3.3-2.9,11.7-7.8,19.4c0.4,1.4,1.8,6.5,2.6,6.5c0.8,0,2.2-4.1,2.7-5.6l4,3.4
			c-0.8,2.5-2.9,9.1-6.7,9.1c-2.1,0-4-1-6.5-8.2c-4.5,4.6-7.9,6.6-10.3,8l-3.4-4.8c2.8-1.3,7.5-3.6,12-9.3c-1.5-6.6-2-16.6-2.1-23.5
			h-12.9V21h10.8c0,8.3,0,17.4-1.5,20.5c-1.3,2.6-2.9,2.6-5.2,2.6h-3.2l-0.9-5.1h3.5c1,0,1.4-0.2,1.6-0.7c0.5-1.2,0.6-4.1,0.9-12.3
			h-6v2.1c0,3-0.9,8.9-1.7,12.5c-1.4,5.6-3,7.9-6,11.4L226.1,48.3z"/>
		<path class="st0" d="M322.9,31c-1.5,12-6.1,17.9-19.1,21.3l-2.2-5.8c11.3-1.8,15-7.5,15.6-15.9L322.9,31z M305.2,29.9V1.2h5.8
			v28.7H305.2z M318,2.8h31.7v25.8H318V2.8z M323.5,7.8v5.4h20.8V7.8H323.5z M323.5,17.8v5.8h20.8v-5.8H323.5z M336.7,30.6V45
			c0,1.1,0.8,1.5,1.7,1.5h6.6c1.5,0,1.6-1.2,1.7-1.8c0.1-1,0.5-5.2,0.5-6.3l5.8,1.4c-0.8,10.5-1.5,12.1-6.5,12.1h-10
			c-1,0-5.4,0-5.4-4.1V30.6H336.7z"/>
		<path class="st0" d="M363.1,17.7v-4.3H375c-0.2-0.7-0.9-3.9-1-4.6h-7.7V4.4h19.6V1.2h5.6v3.2h19.5v4.3h-7.4
			c-0.3,1.6-0.8,3.1-1.2,4.6h11.7v4.3H363.1z M409.4,20.2v16.7h-18.3v2.6h19.7v4.1h-19.7v2.6h22.8v4.5h-50.8v-4.5h22.7v-2.6h-19.7
			v-4.1h19.7v-2.6h-18.1V20.2H409.4z M373.1,23.9v2.9h12.7v-2.9H373.1z M373.1,30.2v2.9h12.7v-2.9H373.1z M379.4,8.9
			c0.4,1.5,0.8,2.9,1.1,4.5h16c0.3-1,0.8-3.1,1.1-4.5H379.4z M391.2,23.9v2.9h12.9v-2.9H391.2z M391.2,30.2v2.9h12.9v-2.9H391.2z"/>
		<path class="st0" d="M472.8,21.9c-2.7-1.2-4.7-2.2-8.2-4.3v4.3h-28.5v-4.4c-3.3,2-5.3,3-8.6,4.4l-3.3-5.6
			c8.5-2.8,17.5-8.4,23.3-15h5.3c4.8,5.3,10.2,9.8,23.4,15L472.8,21.9z M470.3,27.4v23.7h-40.5V27.4H470.3z M464.5,32.5h-29V46h29
			V32.5z M463.1,16.7C455,11.4,452.2,8.5,450,6c-3.6,4.3-7.8,7.7-12.7,10.8H463.1z"/>
		<path class="st0" d="M501.5,4.8v40.9h-15.2V4.8H501.5z M496.4,9.9h-5v30.6h5V9.9z M534,27.6v23.6h-30.2V27.6H534z M532.4,3v21
			h-26.8V3H532.4z M528.8,32.1h-19.7v5.1h19.7V32.1z M528.8,41.4h-19.7v5.1h19.7V41.4z M527.4,7.4h-16.7v4h16.7V7.4z M527.4,15.4
			h-16.7v4.1h16.7V15.4z"/>
		<path class="st0" d="M591,3.1v47.8h-46.8V3.1H591z M549.8,8.4v37.2h35.5V8.4H549.8z M577.7,39c0,3.8-3.3,4.7-5.5,4.7h-7.1
			l-0.9-5.4h6.5c1.2,0,1.5-0.4,1.5-1.3V21.2h-20v-4.9h20v-6h5.4v6h5.4v4.9h-5.4V39z M558.4,23.5c4.4,5.5,6.1,9,6.9,10.6l-4.7,2.9
			c-0.9-1.9-3.5-7.2-6.7-10.9L558.4,23.5z"/>
		<path class="st0" d="M637.8,26.7c0,3.5-2.8,6.5-6.5,6.5c-3.6,0-6.5-2.9-6.5-6.5c0-3.6,3-6.4,6.5-6.4
			C634.9,20.3,637.8,23.2,637.8,26.7z"/>
		<path class="st0" d="M678.3,33.2c-3.1,6.8-6.6,13.4-11,18.8l-3.7-5.5c6-7.2,8.7-13,10.3-17L678.3,33.2z M666.7,15.8
			c2.2,1.1,6.8,3.7,9.3,5.4l-3.3,5.2c-2.7-2.2-6.7-4.6-8.8-5.6L666.7,15.8z M669.5,1.2c3,1.4,7.2,4,9.2,5.3l-3.4,5.1
			c-3.8-3.3-6.7-4.8-8.7-5.9L669.5,1.2z M674.7,45.5c1.8-0.1,3.3-0.2,6.6-0.5V25.6h5.6v5.5h9.2v5.2h-9.2v8.1c4.7-0.6,6.9-1,9.2-1.5
			v5.2c-5.7,1.1-13.6,2.5-20.4,3L674.7,45.5z M679.9,2.9h33.4V24h-33.4V2.9z M685.2,7.6v3.7h22.5V7.6H685.2z M685.2,15.4v4h22.5v-4
			H685.2z M703.4,25.6v7.2c1.5-0.7,4.1-1.7,8.1-5.7l3.6,4.1c-4.9,4-9.6,6.1-11.7,7.1v6.5c0,1.5,0.4,1.8,1.2,1.8h4
			c1.1,0,1.4,0,1.7-6.5l5.3,1.1c-0.2,9.8-2.2,10.6-4.7,10.6h-8.5c-1.2,0-4.5-0.2-4.5-3.4V25.6H703.4z"/>
		<path class="st0" d="M722.5,48.2c1.4-1.7,5.1-6.1,5.1-15.1v-9.9h41.8v16.2h-36.8c-0.3,1.6-1.5,8.3-5.3,12.7L722.5,48.2z
			 M751.2,1.3v4h22.5v5.1h-22.5v4.2h19.6v4.9H726v-4.9h19.3v-4.2h-22.3V5.3h22.3v-4H751.2z M745.4,34.5v-6.4h-12.3v6.4H745.4z
			 M763.9,34.5v-6.4h-13.1v6.4H763.9z"/>
		<path class="st0" d="M829.5,21.9c-2.7-1.2-4.7-2.2-8.2-4.3v4.3h-28.5v-4.4c-3.3,2-5.3,3-8.6,4.4l-3.3-5.6
			c8.5-2.8,17.5-8.4,23.3-15h5.3c4.8,5.3,10.2,9.8,23.4,15L829.5,21.9z M827,27.4v23.7h-40.5V27.4H827z M821.2,32.5h-29V46h29V32.5z
			 M819.9,16.7C811.7,11.4,809,8.5,806.7,6c-3.6,4.3-7.8,7.7-12.7,10.8H819.9z"/>
		<path class="st0" d="M856.4,4.8v40.9h-15.2V4.8H856.4z M851.3,9.9h-5v30.6h5V9.9z M889,27.6v23.6h-30.2V27.6H889z M887.4,3v21
			h-26.8V3H887.4z M883.8,32.1h-19.7v5.1h19.7V32.1z M883.8,41.4h-19.7v5.1h19.7V41.4z M882.4,7.4h-16.7v4h16.7V7.4z M882.4,15.4
			h-16.7v4.1h16.7V15.4z"/>
		<path class="st0" d="M947,3.1v47.8h-46.8V3.1H947z M905.9,8.4v37.2h35.5V8.4H905.9z M933.7,39c0,3.8-3.3,4.7-5.5,4.7h-7.1
			l-0.9-5.4h6.5c1.2,0,1.5-0.4,1.5-1.3V21.2h-20v-4.9h20v-6h5.4v6h5.4v4.9h-5.4V39z M914.5,23.5c4.4,5.5,6.1,9,6.9,10.6l-4.7,2.9
			c-0.9-1.9-3.5-7.2-6.7-10.9L914.5,23.5z"/>
	</g>
</g>
</svg>
