<?xml version="1.0" encoding="utf-8"?>
<!-- Generator: Adobe Illustrator 23.0.1, SVG Export Plug-In . SVG Version: 6.00 Build 0)  -->
<svg version="1.1" id="レイヤー_1" xmlns="http://www.w3.org/2000/svg" xmlns:xlink="http://www.w3.org/1999/xlink" x="0px"
	 y="0px" viewBox="0 0 50 50" style="enable-background:new 0 0 50 50;" xml:space="preserve">
<style type="text/css">
	.st0{fill:#FF9FA8;}
	.st1{display:none;}
	.st2{display:inline;}
</style>
<g id="レイヤー_1_1_">
	<g>
		<path class="st0" d="M25,13.1c3.9,0,4.3,0,5.9,0.1c1.4,0.1,2.2,0.3,2.7,0.5c0.6,0.2,1.2,0.6,1.7,1.1s0.9,1,1.1,1.7
			c0.2,0.5,0.4,1.3,0.5,2.7c0.1,1.5,0.1,2,0.1,5.9s0,4.3-0.1,5.9c-0.1,1.4-0.3,2.2-0.5,2.7c-0.5,1.3-1.5,2.3-2.8,2.8
			c-0.5,0.2-1.3,0.4-2.7,0.5c-1.5,0.1-2,0.1-5.9,0.1s-4.3,0-5.9-0.1c-1.4-0.1-2.2-0.3-2.7-0.5c-0.6-0.2-1.2-0.6-1.7-1.1
			s-0.9-1-1.1-1.7c-0.2-0.5-0.4-1.3-0.5-2.7C13,29.5,13,29,13,25.1s0-4.3,0.1-5.9c0.1-1.4,0.3-2.2,0.5-2.7c0.2-0.6,0.6-1.2,1.1-1.7
			s1-0.9,1.7-1.1c0.5-0.2,1.3-0.4,2.7-0.5C20.7,13.1,21.1,13.1,25,13.1 M25,10.5c-3.9,0-4.4,0-6,0.1c-1.5,0.1-2.6,0.3-3.5,0.7
			c-1,0.4-1.8,0.9-2.6,1.7c-0.7,0.7-1.3,1.6-1.7,2.6c-0.4,0.9-0.6,2-0.7,3.5c-0.1,1.5-0.1,2-0.1,6s0,4.4,0.1,6
			c0.1,1.5,0.3,2.6,0.7,3.5c0.4,1,0.9,1.8,1.7,2.6c0.7,0.7,1.6,1.3,2.6,1.7c0.9,0.4,2,0.6,3.5,0.7c1.5,0.1,2,0.1,6,0.1s4.4,0,6-0.1
			c1.5-0.1,2.6-0.3,3.5-0.7c1.9-0.8,3.5-2.3,4.2-4.2c0.4-0.9,0.6-2,0.7-3.5c0.1-1.5,0.1-2,0.1-6s0-4.4-0.1-6
			c-0.1-1.5-0.3-2.6-0.7-3.5c-0.4-1-0.9-1.8-1.7-2.6c-0.7-0.7-1.6-1.3-2.6-1.7c-0.9-0.4-2-0.6-3.5-0.7C29.4,10.5,28.9,10.5,25,10.5
			L25,10.5L25,10.5z"/>
		<path class="st0" d="M25,17.6c-4.1,0-7.4,3.3-7.4,7.4s3.3,7.4,7.4,7.4s7.4-3.3,7.4-7.4l0,0C32.4,20.9,29.1,17.6,25,17.6z M25,29.8
			c-2.7,0-4.8-2.2-4.8-4.8s2.2-4.8,4.8-4.8s4.8,2.2,4.8,4.8S27.7,29.8,25,29.8z"/>
		<circle class="st0" cx="32.7" cy="17.3" r="1.7"/>
	</g>
</g>
<g id="レイヤー_2_1_" class="st1">
	<path class="st2" d="M41.2,14.4c-0.4,0.6-0.9,1.3-1.5,2c-0.5,0.5-1.1,1.1-1.8,1.7v0.2v0.2c0,0.1,0,0.2,0,0.2v0.2
		c0,2.4-0.4,4.7-1.3,7.1c-0.8,2.4-2.1,4.5-3.6,6.4c-1.7,2-3.7,3.6-6.1,4.8s-5.1,1.8-8,1.8c-1.9,0-3.7-0.3-5.4-0.8s-3.3-1.3-4.8-2.3
		c0.1,0,0.2,0,0.4,0c0.3,0,0.6,0.1,0.8,0.1h0.4c1.5,0,3-0.3,4.5-0.8c1.3-0.5,2.6-1.2,3.8-2.2c-1.4,0-2.7-0.5-3.9-1.4s-2-2.1-2.3-3.5
		c0.3,0.1,0.5,0.1,0.6,0.1h0.3c0.1,0,0.2,0,0.3,0c0.2,0,0.3,0,0.5,0s0.5,0,0.9-0.1c0,0,0.1,0,0.2,0c0.1,0,0.2,0,0.2,0
		c-1.5-0.3-2.8-1.1-3.8-2.4s-1.5-2.8-1.5-4.5l0,0l0,0l0,0c0.4,0.3,0.9,0.5,1.4,0.6c0.6,0.2,1.1,0.3,1.6,0.3c-1-0.7-1.7-1.5-2.1-2.5
		c-0.5-1-0.8-2.1-0.8-3.4c0-0.7,0.1-1.3,0.2-1.9c0.1-0.4,0.3-1,0.7-1.7c1.7,2.2,3.7,3.9,6.1,5.2s5,2.1,7.7,2.2
		c-0.1-0.5-0.1-0.7-0.1-0.8c0-0.3-0.1-0.6-0.1-0.8c0-1.9,0.7-3.6,2-5s2.9-2.1,4.7-2.1c1,0,1.9,0.2,2.7,0.6c0.8,0.4,1.6,1,2.2,1.6
		c0.7-0.2,1.4-0.4,2.2-0.7c0.7-0.3,1.3-0.6,2-1c-0.3,0.8-0.6,1.6-1.1,2.2c-0.6,0.7-1.2,1.2-1.8,1.6c0.7-0.1,1.3-0.3,2-0.4
		C39.9,14.9,40.5,14.7,41.2,14.4z"/>
</g>
</svg>
